<?xml version="1.0" encoding="UTF-8" standalone="no"?>
<!-- Created with Inkscape (http://www.inkscape.org/) -->

<svg
   xmlns:dc="http://purl.org/dc/elements/1.1/"
   xmlns:cc="http://creativecommons.org/ns#"
   xmlns:rdf="http://www.w3.org/1999/02/22-rdf-syntax-ns#"
   xmlns:svg="http://www.w3.org/2000/svg"
   xmlns="http://www.w3.org/2000/svg"
   xmlns:sodipodi="http://sodipodi.sourceforge.net/DTD/sodipodi-0.dtd"
   xmlns:inkscape="http://www.inkscape.org/namespaces/inkscape"
   width="5760"
   height="112"
   viewBox="0 0 1524 29.633334"
   version="1.1"
   id="svg8"
   inkscape:version="0.92.4 (5da689c313, 2019-01-14)"
   sodipodi:docname="april-week13.svg">
  <defs
     id="defs2">
    <inkscape:path-effect
       effect="bspline"
       id="path-effect893"
       is_visible="true"
       weight="33.333333"
       steps="2"
       helper_size="0"
       apply_no_weight="true"
       apply_with_weight="true"
       only_selected="false" />
    <inkscape:path-effect
       effect="bspline"
       id="path-effect889"
       is_visible="true"
       weight="33.333333"
       steps="2"
       helper_size="0"
       apply_no_weight="true"
       apply_with_weight="true"
       only_selected="false" />
    <inkscape:path-effect
       effect="bspline"
       id="path-effect825"
       is_visible="true"
       weight="33.333333"
       steps="2"
       helper_size="0"
       apply_no_weight="true"
       apply_with_weight="true"
       only_selected="false" />
    <inkscape:path-effect
       effect="bspline"
       id="path-effect821"
       is_visible="true"
       weight="33.333333"
       steps="2"
       helper_size="0"
       apply_no_weight="true"
       apply_with_weight="true"
       only_selected="false" />
    <inkscape:path-effect
       effect="bspline"
       id="path-effect825-0"
       is_visible="true"
       weight="33.333333"
       steps="2"
       helper_size="0"
       apply_no_weight="true"
       apply_with_weight="true"
       only_selected="false" />
    <inkscape:path-effect
       effect="bspline"
       id="path-effect825-7"
       is_visible="true"
       weight="33.333333"
       steps="2"
       helper_size="0"
       apply_no_weight="true"
       apply_with_weight="true"
       only_selected="false" />
    <inkscape:path-effect
       effect="bspline"
       id="path-effect825-7-4"
       is_visible="true"
       weight="33.333333"
       steps="2"
       helper_size="0"
       apply_no_weight="true"
       apply_with_weight="true"
       only_selected="false" />
    <inkscape:path-effect
       effect="bspline"
       id="path-effect825-7-6"
       is_visible="true"
       weight="33.333333"
       steps="2"
       helper_size="0"
       apply_no_weight="true"
       apply_with_weight="true"
       only_selected="false" />
    <inkscape:path-effect
       effect="bspline"
       id="path-effect825-7-8"
       is_visible="true"
       weight="33.333333"
       steps="2"
       helper_size="0"
       apply_no_weight="true"
       apply_with_weight="true"
       only_selected="false" />
  </defs>
  <sodipodi:namedview
     id="base"
     pagecolor="#ffffff"
     bordercolor="#666666"
     borderopacity="1.0"
     inkscape:pageopacity="0.0"
     inkscape:pageshadow="2"
     inkscape:zoom="0.24748737"
     inkscape:cx="2892.4716"
     inkscape:cy="409.81049"
     inkscape:document-units="mm"
     inkscape:current-layer="layer1"
     showgrid="false"
     units="px"
     inkscape:window-width="1920"
     inkscape:window-height="1027"
     inkscape:window-x="-8"
     inkscape:window-y="-8"
     inkscape:window-maximized="1" />
  <metadata
     id="metadata5">
    <rdf:RDF>
      <cc:Work
         rdf:about="">
        <dc:format>image/svg+xml</dc:format>
        <dc:type
           rdf:resource="http://purl.org/dc/dcmitype/StillImage" />
        <dc:title></dc:title>
      </cc:Work>
    </rdf:RDF>
  </metadata>
  <g
     inkscape:label="Layer 1"
     inkscape:groupmode="layer"
     id="layer1"
     transform="translate(0,-267.36665)">
    <path
       style="fill:#aa0000;stroke:#001600;stroke-width:0.26458332px;stroke-linecap:butt;stroke-linejoin:miter;stroke-opacity:1;fill-opacity:1"
       d="M -3.2072344,253.16778 C -3.2072344,253.16778 -2.1381562,320.5197 -2.1381562,320.5197 -2.1381562,320.5197 1531.9889,316.24339 1531.9889,316.24339 1531.9889,316.24339 1531.9889,252.0987 1531.9889,252.0987 1531.9889,252.0987 -3.2072344,253.16778 -3.2072344,253.16778 Z"
       id="path819"
       inkscape:connector-curvature="0"
       inkscape:path-effect="#path-effect821"
       inkscape:original-d="M -3.2072344,253.16778 -2.1381562,320.5197 1531.9889,316.24339 V 252.0987 Z" />
    <path
       style="fill:#ffcc00;stroke:none;stroke-width:0.26458332px;stroke-linecap:butt;stroke-linejoin:miter;stroke-opacity:1"
       d="M 539.88445,527.92085 C 539.88445,527.92085 446.87465,450.94723 446.87465,450.94723 446.87465,450.94723 567.68047,452.01631 567.68047,452.01631 567.68047,452.01631 613.40255,325.86509 613.40255,325.86509 613.40255,325.86509 671.38105,447.74 671.38105,447.74 671.38105,447.74 780.70867,448.05312 780.70867,448.05312 780.70867,448.05312 700.24616,526.85178 700.24616,526.85178 700.24616,526.85178 749.12176,642.70131 749.12176,642.70131 749.12176,642.70131 620.86385,557.75872 620.86385,557.75872 620.86385,557.75872 496.91374,642.07507 496.91374,642.07507 496.91374,642.07507 539.88445,527.92085 539.88445,527.92085 Z"
       id="path823"
       inkscape:connector-curvature="0"
       inkscape:path-effect="#path-effect825"
       inkscape:original-d="M 539.88445,527.92085 446.87465,450.94723 567.68047,452.01631 613.40255,325.86509 671.38105,447.74 780.70867,448.05312 700.24616,526.85178 749.12176,642.70131 620.86385,557.75872 496.91374,642.07507 Z"
       sodipodi:nodetypes="ccccccccccc"
       transform="matrix(0.33815413,-0.20607417,0.20607417,0.33815413,8.6820565,281.62092)" />
    <path
       transform="matrix(0.26327738,0,0,0.26327738,-117.65199,145.74061)"
       style="fill:#ffcc00;stroke:none;stroke-width:0.26458332px;stroke-linecap:butt;stroke-linejoin:miter;stroke-opacity:1"
       d="M 539.88445,527.92085 C 539.88445,527.92085 446.87465,450.94723 446.87465,450.94723 446.87465,450.94723 567.68047,452.01631 567.68047,452.01631 567.68047,452.01631 613.40255,325.86509 613.40255,325.86509 613.40255,325.86509 671.38105,447.74 671.38105,447.74 671.38105,447.74 780.70867,448.05312 780.70867,448.05312 780.70867,448.05312 700.24616,526.85178 700.24616,526.85178 700.24616,526.85178 749.12176,642.70131 749.12176,642.70131 749.12176,642.70131 620.86385,557.75872 620.86385,557.75872 620.86385,557.75872 496.91374,642.07507 496.91374,642.07507 496.91374,642.07507 539.88445,527.92085 539.88445,527.92085 Z"
       id="path823-3"
       inkscape:connector-curvature="0"
       inkscape:path-effect="#path-effect825-0"
       inkscape:original-d="M 539.88445,527.92085 446.87465,450.94723 567.68047,452.01631 613.40255,325.86509 671.38105,447.74 780.70867,448.05312 700.24616,526.85178 749.12176,642.70131 620.86385,557.75872 496.91374,642.07507 Z"
       sodipodi:nodetypes="ccccccccccc" />
    <path
       transform="matrix(0.35464899,0.06684517,-0.07269449,0.32611237,625.33223,65.799598)"
       style="fill:#ffcc00;stroke:none;stroke-width:0.26458332px;stroke-linecap:butt;stroke-linejoin:miter;stroke-opacity:1"
       d="M 533.06365,525.84184 C 533.06365,525.84184 446.87465,450.94723 446.87465,450.94723 446.87465,450.94723 562.33529,446.73724 562.33529,446.73724 562.33529,446.73724 613.40255,325.86509 613.40255,325.86509 613.40255,325.86509 670.07167,443.95176 670.07167,443.95176 670.07167,443.95176 780.70867,448.05312 780.70867,448.05312 780.70867,448.05312 700.24616,526.85178 700.24616,526.85178 700.24616,526.85178 709.31181,668.15492 709.31181,668.15492 709.31181,668.15492 612.98076,577.69451 612.98076,577.69451 612.98076,577.69451 497.31606,654.45901 497.31606,654.45901 497.31606,654.45901 533.06365,525.84184 533.06365,525.84184 Z"
       id="path823-7"
       inkscape:connector-curvature="0"
       inkscape:path-effect="#path-effect825-7"
       inkscape:original-d="M 533.06365,525.84184 446.87465,450.94723 562.33529,446.73724 613.40255,325.86509 670.07167,443.95176 780.70867,448.05312 700.24616,526.85178 709.31181,668.15492 612.98076,577.69451 497.31606,654.45901 Z"
       sodipodi:nodetypes="ccccccccccc" />
    <path
       transform="matrix(0.05414892,0.53697195,-0.53697195,0.05414892,1605.9016,-141.54346)"
       style="fill:#ffcc00;stroke:none;stroke-width:0.26458332px;stroke-linecap:butt;stroke-linejoin:miter;stroke-opacity:1"
       d="M 539.88445,527.92085 C 539.88445,527.92085 446.87465,450.94723 446.87465,450.94723 446.87465,450.94723 567.68047,452.01631 567.68047,452.01631 567.68047,452.01631 613.40255,325.86509 613.40255,325.86509 613.40255,325.86509 671.38105,447.74 671.38105,447.74 671.38105,447.74 780.70867,448.05312 780.70867,448.05312 780.70867,448.05312 700.24616,526.85178 700.24616,526.85178 700.24616,526.85178 709.31181,668.15492 709.31181,668.15492 709.31181,668.15492 619.40954,572.90533 619.40954,572.90533 619.40954,572.90533 497.31606,654.45901 497.31606,654.45901 497.31606,654.45901 539.88445,527.92085 539.88445,527.92085 Z"
       id="path823-7-8"
       inkscape:connector-curvature="0"
       inkscape:path-effect="#path-effect825-7-4"
       inkscape:original-d="M 539.88445,527.92085 446.87465,450.94723 567.68047,452.01631 613.40255,325.86509 671.38105,447.74 780.70867,448.05312 700.24616,526.85178 709.31181,668.15492 619.40954,572.90533 497.31606,654.45901 Z"
       sodipodi:nodetypes="ccccccccccc" />
    <path
       transform="matrix(0.38447483,0.37874805,-0.37874805,0.38447483,465.5922,-231.16567)"
       style="fill:#ffcc00;stroke:none;stroke-width:0.26458332px;stroke-linecap:butt;stroke-linejoin:miter;stroke-opacity:1"
       d="M 539.88445,527.92085 C 539.88445,527.92085 446.87465,450.94723 446.87465,450.94723 446.87465,450.94723 567.68047,452.01631 567.68047,452.01631 567.68047,452.01631 613.40255,325.86509 613.40255,325.86509 613.40255,325.86509 671.38105,447.74 671.38105,447.74 671.38105,447.74 780.70867,448.05312 780.70867,448.05312 780.70867,448.05312 700.24616,526.85178 700.24616,526.85178 700.24616,526.85178 709.31181,668.15492 709.31181,668.15492 709.31181,668.15492 619.40954,572.90533 619.40954,572.90533 619.40954,572.90533 497.31606,654.45901 497.31606,654.45901 497.31606,654.45901 539.88445,527.92085 539.88445,527.92085 Z"
       id="path823-7-6"
       inkscape:connector-curvature="0"
       inkscape:path-effect="#path-effect825-7-6"
       inkscape:original-d="M 539.88445,527.92085 446.87465,450.94723 567.68047,452.01631 613.40255,325.86509 671.38105,447.74 780.70867,448.05312 700.24616,526.85178 709.31181,668.15492 619.40954,572.90533 497.31606,654.45901 Z"
       sodipodi:nodetypes="ccccccccccc" />
    <path
       transform="matrix(0.19775174,-0.01957711,0.0232953,0.16618839,977.72879,212.67249)"
       style="fill:#ffcc00;stroke:none;stroke-width:0.26458332px;stroke-linecap:butt;stroke-linejoin:miter;stroke-opacity:1"
       d="M 540.95918,526.91026 C 540.95918,526.91026 446.87465,450.94723 446.87465,450.94723 446.87465,450.94723 572.63119,438.38461 572.63119,438.38461 572.63119,438.38461 628.9378,319.73481 628.9378,319.73481 628.9378,319.73481 664.83119,438.43948 664.83119,438.43948 664.83119,438.43948 780.70867,448.05312 780.70867,448.05312 780.70867,448.05312 698.84996,534.64765 698.84996,534.64765 698.84996,534.64765 709.31181,668.15492 709.31181,668.15492 709.31181,668.15492 615.06225,585.47092 615.06225,585.47092 615.06225,585.47092 497.31606,654.45901 497.31606,654.45901 497.31606,654.45901 540.95918,526.91026 540.95918,526.91026 Z"
       id="path823-7-9"
       inkscape:connector-curvature="0"
       inkscape:path-effect="#path-effect825-7-8"
       inkscape:original-d="M 540.95918,526.91026 446.87465,450.94723 572.63119,438.38461 628.9378,319.73481 664.83119,438.43948 780.70867,448.05312 698.84996,534.64765 709.31181,668.15492 615.06225,585.47092 497.31606,654.45901 Z"
       sodipodi:nodetypes="ccccccccccc" />
    <path
       style="fill:none;stroke:#000000;stroke-width:0.26458332px;stroke-linecap:butt;stroke-linejoin:miter;stroke-opacity:1"
       d="M 1604.1309,160.92856 C 1604.1309,160.92856 1359.2914,407.15414 1359.2914,407.15414 1359.2914,407.15414 1127.881,141.27379 1127.881,141.27379 1127.881,141.27379 774.09524,409.63688 774.09524,409.63688 774.09524,409.63688 586.61905,73.238079 586.61905,73.238079 586.61905,73.238079 266.09524,153.36903 266.09524,153.36903 266.09524,153.36903 539.75,411.90475 539.75,411.90475 539.75,411.90475 261.55952,499.59522 261.55952,499.59522 261.55952,499.59522 125.4881,108.01189 125.4881,108.01189 125.4881,108.01189 -81.642857,212.33332 -81.642857,212.33332 -81.642857,212.33332 182.94048,623.57141 182.94048,623.57141 182.94048,623.57141 1682.75,534.36903 1682.75,534.36903 1682.75,534.36903 1604.1309,160.92856 1604.1309,160.92856 Z"
       id="path887"
       inkscape:connector-curvature="0"
       inkscape:path-effect="#path-effect889"
       inkscape:original-d="M 1604.1309,160.92856 1359.2914,407.15414 1127.881,141.27379 774.09524,409.63688 586.61905,73.238079 266.09524,153.36903 539.75,411.90475 261.55952,499.59522 125.4881,108.01189 -81.642857,212.33332 182.94048,623.57141 1682.75,534.36903 Z"
       sodipodi:nodetypes="ccccccccccccc" />
    <path
       style="fill:none;stroke:#000000;stroke-width:0.26458332px;stroke-linecap:butt;stroke-linejoin:miter;stroke-opacity:1"
       d="M -134.55952,295.48808 C -134.55952,295.48808 1892.9047,259.20236 1892.9047,259.20236"
       id="path891"
       inkscape:connector-curvature="0"
       inkscape:path-effect="#path-effect893"
       inkscape:original-d="M -134.55952,295.48808 1892.9047,259.20236" />
  </g>
</svg>
