<?xml version="1.0" encoding="UTF-8" standalone="no"?>
<svg
   xmlns:dc="http://purl.org/dc/elements/1.1/"
   xmlns:cc="http://creativecommons.org/ns#"
   xmlns:rdf="http://www.w3.org/1999/02/22-rdf-syntax-ns#"
   xmlns:svg="http://www.w3.org/2000/svg"
   xmlns="http://www.w3.org/2000/svg"
   xmlns:xlink="http://www.w3.org/1999/xlink"
   id="svg8"
   version="1.1"
   viewBox="0 0 1524 29.633333"
   height="112"
   width="5760">
  <defs
     id="defs2">
    <linearGradient
       id="linearGradient2036">
      <stop
         id="stop2032"
         offset="0"
         style="stop-color:#aad400;stop-opacity:1;" />
      <stop
         id="stop2034"
         offset="1"
         style="stop-color:#aad400;stop-opacity:0;" />
    </linearGradient>
    <linearGradient
       id="linearGradient2002">
      <stop
         id="stop1998"
         offset="0"
         style="stop-color:#000000;stop-opacity:1;" />
      <stop
         id="stop2000"
         offset="1"
         style="stop-color:#000000;stop-opacity:0;" />
    </linearGradient>
    <linearGradient
       id="linearGradient1988">
      <stop
         id="stop1984"
         offset="0"
         style="stop-color:#a0892c;stop-opacity:1;" />
      <stop
         id="stop1986"
         offset="1"
         style="stop-color:#a0892c;stop-opacity:0;" />
    </linearGradient>
    <linearGradient
       id="linearGradient14171">
      <stop
         id="stop14167"
         offset="0"
         style="stop-color:#d35f5f;stop-opacity:1;" />
      <stop
         id="stop14169"
         offset="1"
         style="stop-color:#d35f5f;stop-opacity:0;" />
    </linearGradient>
    <linearGradient
       id="linearGradient14147">
      <stop
         id="stop14143"
         offset="0"
         style="stop-color:#ffd42a;stop-opacity:1;" />
      <stop
         id="stop14145"
         offset="1"
         style="stop-color:#ffd42a;stop-opacity:0;" />
    </linearGradient>
    <linearGradient
       id="linearGradient14127">
      <stop
         id="stop14123"
         offset="0"
         style="stop-color:#ff7f2a;stop-opacity:1;" />
      <stop
         id="stop14125"
         offset="1"
         style="stop-color:#ff7f2a;stop-opacity:0;" />
    </linearGradient>
    <linearGradient
       id="linearGradient13540">
      <stop
         id="stop13536"
         offset="0"
         style="stop-color:#483737;stop-opacity:1;" />
      <stop
         id="stop13538"
         offset="1"
         style="stop-color:#483737;stop-opacity:0;" />
    </linearGradient>
    <linearGradient
       gradientUnits="userSpaceOnUse"
       y2="910.18628"
       x2="1049.3131"
       y1="1023.8406"
       x1="1050.6644"
       id="linearGradient13542"
       xlink:href="#linearGradient13540" />
    <linearGradient
       gradientUnits="userSpaceOnUse"
       y2="720.50159"
       x2="1121.8286"
       y1="831.91315"
       x1="1123.3335"
       id="linearGradient14129"
       xlink:href="#linearGradient14127" />
    <linearGradient
       gradientUnits="userSpaceOnUse"
       y2="774.9121"
       x2="2151.2667"
       y1="774.9121"
       x1="-34.224284"
       id="linearGradient14149"
       xlink:href="#linearGradient14147" />
    <linearGradient
       gradientUnits="userSpaceOnUse"
       y2="795.2464"
       x2="1136.3357"
       y1="961.96918"
       x1="1136.4781"
       id="linearGradient14173"
       xlink:href="#linearGradient14171" />
    <linearGradient
       y2="341.01114"
       x2="1997.8119"
       y1="341.01114"
       x1="1433.8059"
       gradientUnits="userSpaceOnUse"
       id="linearGradient1992"
       xlink:href="#linearGradient1988" />
    <linearGradient
       y2="341.01114"
       x2="1997.8119"
       y1="341.01114"
       x1="1433.8059"
       gradientUnits="userSpaceOnUse"
       id="linearGradient2006"
       xlink:href="#linearGradient2002" />
    <linearGradient
       gradientUnits="userSpaceOnUse"
       y2="602.09766"
       x2="830.13013"
       y1="0.17057292"
       x1="806.97919"
       id="linearGradient2038"
       xlink:href="#linearGradient2036" />
  </defs>
  <metadata
     id="metadata5">
    <rdf:RDF>
      <cc:Work
         rdf:about="">
        <dc:format>image/svg+xml</dc:format>
        <dc:type
           rdf:resource="http://purl.org/dc/dcmitype/StillImage" />
        <dc:title></dc:title>
      </cc:Work>
    </rdf:RDF>
  </metadata>
  <g
     style="display:inline"
     transform="translate(0,-267.36667)"
     id="layer1">
    <path
       transform="matrix(0.86300406,0,0,0.15273164,80.559388,235.59702)"
       id="path2138"
       d="M -99.21875,202.74219 C -99.21875,202.74219 1681.7577,199.4349 1681.7577,199.4349 1681.7577,199.4349 1680.1042,427.63802 1680.1042,427.63802 1680.1042,427.63802 -100.8724,427.63803 -100.8724,427.63803 -100.8724,427.63803 -99.21875,202.74219 -99.21875,202.74219 Z"
       style="fill:#333333;stroke:#000000;stroke-width:0.26458332px;stroke-linecap:butt;stroke-linejoin:miter;stroke-opacity:1" />
    <g
       transform="matrix(-0.01393089,0.08365299,-0.08365299,-0.01393089,661.22442,224.56962)"
       id="g2178">
      <circle
         style="opacity:1;vector-effect:none;fill:#0066ff;fill-opacity:1;fill-rule:evenodd;stroke-width:0.35714281;stroke-linecap:butt;stroke-linejoin:miter;stroke-miterlimit:4;stroke-dasharray:none;stroke-dashoffset:0;stroke-opacity:1"
         id="path2146"
         cx="631.69269"
         cy="-185.86458"
         r="138.90625" />
      <path
         style="fill:#008000;stroke:none;stroke-width:0.26458332px;stroke-linecap:butt;stroke-linejoin:miter;stroke-opacity:1"
         d="M 752.40884,-255.73111 C 727.19074,-250.08115 701.97295,-244.43127 684.05838,-230.2376 666.14381,-216.04393 655.53292,-193.3063 656.91088,-174.35813 658.28883,-155.40996 671.6558,-140.25154 680.33743,-125.231 689.01905,-110.21047 693.01536,-95.327654 693.63556,-84.303417 694.25577,-73.27918 691.49957,-66.113062 688.74349,-58.947263 699.31353,-63.692482 708.78644,-67.945167 723.96447,-82.228017 739.14249,-96.510867 754.31544,-115.45013 762.7476,-139.68501 771.17976,-163.9199 771.11499,-190.64714 767.90548,-210.94751 764.69597,-231.24788 758.62165,-243.35152 752.40884,-255.73111 Z"
         id="path2148" />
      <path
         style="fill:#008000;fill-opacity:1;stroke:none;stroke-width:0.26458332px;stroke-linecap:butt;stroke-linejoin:miter;stroke-opacity:1"
         d="M 525.30823,-226.10342 C 549.14829,-222.10693 592.28088,-196.33762 610.57433,-163.29933 628.86777,-130.26104 622.32205,-89.95312 615.77637,-49.645505 583.87478,-55.502167 551.9734,-61.35879 531.40606,-85.509027 510.83871,-109.65926 501.60586,-152.10284 499.26326,-182.21303 496.92065,-212.32322 501.46818,-230.09991 525.30823,-226.10342 Z"
         id="path2152" />
      <path
         transform="matrix(0.99291974,0.11878713,-0.05215653,0.43596684,-102.58947,-296.67793)"
         style="display:inline;fill:#008000;stroke:none;stroke-width:0.26458332px;stroke-linecap:butt;stroke-linejoin:miter;stroke-opacity:1"
         d="M 752.40884,-255.73111 C 727.19074,-250.08115 701.97295,-244.43127 684.05838,-230.2376 666.14381,-216.04393 655.53292,-193.3063 656.91088,-174.35813 658.28883,-155.40996 671.6558,-140.25154 680.33743,-125.231 689.01905,-110.21047 693.01536,-95.327654 693.63556,-84.303417 694.25577,-73.27918 691.49957,-66.113062 688.74349,-58.947263 699.31353,-63.692482 708.78644,-67.945167 723.96447,-82.228017 739.14249,-96.510867 754.31544,-115.45013 762.7476,-139.68501 771.17976,-163.9199 771.11499,-190.64714 767.90548,-210.94751 764.69597,-231.24788 758.62165,-243.35152 752.40884,-255.73111 Z"
         id="path2148-2" />
    </g>
    <path
       transform="matrix(0.00865869,0,0,0.00865869,202.66638,274.8799)"
       id="path2180"
       d="M 205.8789,334.20703 C 205.8789,334.20703 245.5664,363.55925 245.5664,363.55925 245.5664,363.55925 208.35938,384.22982 208.35938,384.22982 208.35938,384.22982 209.1862,418.95638 209.1862,418.95638 209.1862,418.95638 180.2474,379.6823 180.2474,379.6823 180.2474,379.6823 132.29167,376.78841 132.29167,376.78841 132.29167,376.78841 178.59375,345.78256 178.59375,345.78256 178.59375,345.78256 164.95117,310.64258 164.95117,310.64258 164.95117,310.64258 205.8789,334.20703 205.8789,334.20703 Z"
       style="fill:#e6e6e6;stroke:none;stroke-width:0.26458332px;stroke-linecap:butt;stroke-linejoin:miter;stroke-opacity:1" />
    <path
       transform="matrix(0.00865869,0,0,0.00865869,267.30408,280.68665)"
       id="path2180-2"
       d="M 205.8789,334.20703 C 205.8789,334.20703 245.5664,363.55925 245.5664,363.55925 245.5664,363.55925 208.35938,384.22982 208.35938,384.22982 208.35938,384.22982 209.1862,418.95638 209.1862,418.95638 209.1862,418.95638 180.2474,379.6823 180.2474,379.6823 180.2474,379.6823 132.29167,376.78841 132.29167,376.78841 132.29167,376.78841 178.59375,345.78256 178.59375,345.78256 178.59375,345.78256 164.95117,310.64258 164.95117,310.64258 164.95117,310.64258 205.8789,334.20703 205.8789,334.20703 Z"
       style="display:inline;fill:#e6e6e6;stroke:none;stroke-width:0.26458332px;stroke-linecap:butt;stroke-linejoin:miter;stroke-opacity:1" />
    <path
       transform="matrix(0.00565994,0.00655271,-0.00655271,0.00565994,298.90902,273.52677)"
       id="path2180-8"
       d="M 205.8789,334.20703 C 205.8789,334.20703 245.5664,363.55925 245.5664,363.55925 245.5664,363.55925 208.35938,384.22982 208.35938,384.22982 208.35938,384.22982 209.1862,418.95638 209.1862,418.95638 209.1862,418.95638 180.2474,379.6823 180.2474,379.6823 180.2474,379.6823 132.29167,376.78841 132.29167,376.78841 132.29167,376.78841 178.59375,345.78256 178.59375,345.78256 178.59375,345.78256 164.95117,310.64258 164.95117,310.64258 164.95117,310.64258 205.8789,334.20703 205.8789,334.20703 Z"
       style="display:inline;fill:#e6e6e6;stroke:none;stroke-width:0.26458332px;stroke-linecap:butt;stroke-linejoin:miter;stroke-opacity:1" />
    <path
       transform="matrix(0.00382164,0.00776968,-0.00776968,0.00382164,207.9099,288.14527)"
       id="path2180-7"
       d="M 205.8789,334.20703 C 205.8789,334.20703 245.5664,363.55925 245.5664,363.55925 245.5664,363.55925 208.35938,384.22982 208.35938,384.22982 208.35938,384.22982 209.1862,418.95638 209.1862,418.95638 209.1862,418.95638 180.2474,379.6823 180.2474,379.6823 180.2474,379.6823 132.29167,376.78841 132.29167,376.78841 132.29167,376.78841 178.59375,345.78256 178.59375,345.78256 178.59375,345.78256 164.95117,310.64258 164.95117,310.64258 164.95117,310.64258 205.8789,334.20703 205.8789,334.20703 Z"
       style="display:inline;fill:#e6e6e6;stroke:none;stroke-width:0.26458332px;stroke-linecap:butt;stroke-linejoin:miter;stroke-opacity:1" />
    <path
       transform="matrix(-0.00199094,0.00842669,-0.00842669,-0.00199094,184.25386,274.35597)"
       id="path2180-0"
       d="M 205.8789,334.20703 C 205.8789,334.20703 245.5664,363.55925 245.5664,363.55925 245.5664,363.55925 208.35938,384.22982 208.35938,384.22982 208.35938,384.22982 209.1862,418.95638 209.1862,418.95638 209.1862,418.95638 180.2474,379.6823 180.2474,379.6823 180.2474,379.6823 132.29167,376.78841 132.29167,376.78841 132.29167,376.78841 178.59375,345.78256 178.59375,345.78256 178.59375,345.78256 164.95117,310.64258 164.95117,310.64258 164.95117,310.64258 205.8789,334.20703 205.8789,334.20703 Z"
       style="display:inline;fill:#e6e6e6;stroke:none;stroke-width:0.26458332px;stroke-linecap:butt;stroke-linejoin:miter;stroke-opacity:1" />
    <path
       transform="matrix(0.00865869,0,0,0.00865869,369.1942,288.05356)"
       id="path2180-09"
       d="M 205.8789,334.20703 C 205.8789,334.20703 245.5664,363.55925 245.5664,363.55925 245.5664,363.55925 208.35938,384.22982 208.35938,384.22982 208.35938,384.22982 209.1862,418.95638 209.1862,418.95638 209.1862,418.95638 180.2474,379.6823 180.2474,379.6823 180.2474,379.6823 132.29167,376.78841 132.29167,376.78841 132.29167,376.78841 178.59375,345.78256 178.59375,345.78256 178.59375,345.78256 164.95117,310.64258 164.95117,310.64258 164.95117,310.64258 205.8789,334.20703 205.8789,334.20703 Z"
       style="display:inline;fill:#e6e6e6;stroke:none;stroke-width:0.26458332px;stroke-linecap:butt;stroke-linejoin:miter;stroke-opacity:1" />
    <path
       transform="matrix(0.00865869,0,0,0.00865869,439.88756,278.95851)"
       id="path2180-82"
       d="M 205.8789,334.20703 C 205.8789,334.20703 245.5664,363.55925 245.5664,363.55925 245.5664,363.55925 208.35938,384.22982 208.35938,384.22982 208.35938,384.22982 209.1862,418.95638 209.1862,418.95638 209.1862,418.95638 180.2474,379.6823 180.2474,379.6823 180.2474,379.6823 132.29167,376.78841 132.29167,376.78841 132.29167,376.78841 178.59375,345.78256 178.59375,345.78256 178.59375,345.78256 164.95117,310.64258 164.95117,310.64258 164.95117,310.64258 205.8789,334.20703 205.8789,334.20703 Z"
       style="display:inline;fill:#e6e6e6;stroke:none;stroke-width:0.26458332px;stroke-linecap:butt;stroke-linejoin:miter;stroke-opacity:1" />
    <path
       transform="matrix(0.00865869,0,0,0.00865869,525.46373,280.19874)"
       id="path2180-87"
       d="M 205.8789,334.20703 C 205.8789,334.20703 245.5664,363.55925 245.5664,363.55925 245.5664,363.55925 208.35938,384.22982 208.35938,384.22982 208.35938,384.22982 209.1862,418.95638 209.1862,418.95638 209.1862,418.95638 180.2474,379.6823 180.2474,379.6823 180.2474,379.6823 132.29167,376.78841 132.29167,376.78841 132.29167,376.78841 178.59375,345.78256 178.59375,345.78256 178.59375,345.78256 164.95117,310.64258 164.95117,310.64258 164.95117,310.64258 205.8789,334.20703 205.8789,334.20703 Z"
       style="display:inline;fill:#e6e6e6;stroke:none;stroke-width:0.26458332px;stroke-linecap:butt;stroke-linejoin:miter;stroke-opacity:1" />
    <path
       transform="matrix(0.00865869,0,0,0.00865869,402.68053,275.65121)"
       id="path2180-6"
       d="M 205.8789,334.20703 C 205.8789,334.20703 245.5664,363.55925 245.5664,363.55925 245.5664,363.55925 208.35938,384.22982 208.35938,384.22982 208.35938,384.22982 209.1862,418.95638 209.1862,418.95638 209.1862,418.95638 180.2474,379.6823 180.2474,379.6823 180.2474,379.6823 132.29167,376.78841 132.29167,376.78841 132.29167,376.78841 178.59375,345.78256 178.59375,345.78256 178.59375,345.78256 164.95117,310.64258 164.95117,310.64258 164.95117,310.64258 205.8789,334.20703 205.8789,334.20703 Z"
       style="display:inline;fill:#e6e6e6;stroke:none;stroke-width:0.26458332px;stroke-linecap:butt;stroke-linejoin:miter;stroke-opacity:1" />
    <path
       transform="matrix(0.00865869,0,0,0.00865869,470.0666,285.9865)"
       id="path2180-4"
       d="M 205.8789,334.20703 C 205.8789,334.20703 245.5664,363.55925 245.5664,363.55925 245.5664,363.55925 208.35938,384.22982 208.35938,384.22982 208.35938,384.22982 209.1862,418.95638 209.1862,418.95638 209.1862,418.95638 180.2474,379.6823 180.2474,379.6823 180.2474,379.6823 132.29167,376.78841 132.29167,376.78841 132.29167,376.78841 178.59375,345.78256 178.59375,345.78256 178.59375,345.78256 164.95117,310.64258 164.95117,310.64258 164.95117,310.64258 205.8789,334.20703 205.8789,334.20703 Z"
       style="display:inline;fill:#e6e6e6;stroke:none;stroke-width:0.26458332px;stroke-linecap:butt;stroke-linejoin:miter;stroke-opacity:1" />
    <path
       transform="matrix(0.00865869,0,0,0.00865869,499.83222,273.99757)"
       id="path2180-3"
       d="M 205.8789,334.20703 C 205.8789,334.20703 245.5664,363.55925 245.5664,363.55925 245.5664,363.55925 208.35938,384.22982 208.35938,384.22982 208.35938,384.22982 209.1862,418.95638 209.1862,418.95638 209.1862,418.95638 180.2474,379.6823 180.2474,379.6823 180.2474,379.6823 132.29167,376.78841 132.29167,376.78841 132.29167,376.78841 178.59375,345.78256 178.59375,345.78256 178.59375,345.78256 164.95117,310.64258 164.95117,310.64258 164.95117,310.64258 205.8789,334.20703 205.8789,334.20703 Z"
       style="display:inline;fill:#e6e6e6;stroke:none;stroke-width:0.26458332px;stroke-linecap:butt;stroke-linejoin:miter;stroke-opacity:1" />
    <path
       transform="matrix(0.00865869,0,0,0.00865869,583.01621,278.64036)"
       id="path2180-44"
       d="M 205.8789,334.20703 C 205.8789,334.20703 245.5664,363.55925 245.5664,363.55925 245.5664,363.55925 208.35938,384.22982 208.35938,384.22982 208.35938,384.22982 209.1862,418.95638 209.1862,418.95638 209.1862,418.95638 180.2474,379.6823 180.2474,379.6823 180.2474,379.6823 132.29167,376.78841 132.29167,376.78841 132.29167,376.78841 178.59375,345.78256 178.59375,345.78256 178.59375,345.78256 164.95117,310.64258 164.95117,310.64258 164.95117,310.64258 205.8789,334.20703 205.8789,334.20703 Z"
       style="display:inline;fill:#e6e6e6;stroke:none;stroke-width:0.26458332px;stroke-linecap:butt;stroke-linejoin:miter;stroke-opacity:1" />
    <path
       transform="matrix(0.00865869,0,0,0.00865869,794.66027,276.30175)"
       id="path2180-5"
       d="M 205.8789,334.20703 C 205.8789,334.20703 245.5664,363.55925 245.5664,363.55925 245.5664,363.55925 208.35938,384.22982 208.35938,384.22982 208.35938,384.22982 209.1862,418.95638 209.1862,418.95638 209.1862,418.95638 180.2474,379.6823 180.2474,379.6823 180.2474,379.6823 132.29167,376.78841 132.29167,376.78841 132.29167,376.78841 178.59375,345.78256 178.59375,345.78256 178.59375,345.78256 164.95117,310.64258 164.95117,310.64258 164.95117,310.64258 205.8789,334.20703 205.8789,334.20703 Z"
       style="display:inline;fill:#e6e6e6;stroke:none;stroke-width:0.26458332px;stroke-linecap:butt;stroke-linejoin:miter;stroke-opacity:1" />
    <path
       transform="matrix(0.00865869,0,0,-0.00865869,692.93081,275.6033)"
       id="path2180-46"
       d="M 205.8789,334.20703 C 205.8789,334.20703 245.5664,363.55925 245.5664,363.55925 245.5664,363.55925 208.35938,384.22982 208.35938,384.22982 208.35938,384.22982 209.1862,418.95638 209.1862,418.95638 209.1862,418.95638 180.2474,379.6823 180.2474,379.6823 180.2474,379.6823 132.29167,376.78841 132.29167,376.78841 132.29167,376.78841 178.59375,345.78256 178.59375,345.78256 178.59375,345.78256 164.95117,310.64258 164.95117,310.64258 164.95117,310.64258 205.8789,334.20703 205.8789,334.20703 Z"
       style="display:inline;fill:#e6e6e6;stroke:none;stroke-width:0.26458332px;stroke-linecap:butt;stroke-linejoin:miter;stroke-opacity:1" />
    <path
       transform="matrix(0.00865869,0,0,0.00865869,628.61908,289.1641)"
       id="path2180-54"
       d="M 205.8789,334.20703 C 205.8789,334.20703 245.5664,363.55925 245.5664,363.55925 245.5664,363.55925 208.35938,384.22982 208.35938,384.22982 208.35938,384.22982 209.1862,418.95638 209.1862,418.95638 209.1862,418.95638 180.2474,379.6823 180.2474,379.6823 180.2474,379.6823 132.29167,376.78841 132.29167,376.78841 132.29167,376.78841 178.59375,345.78256 178.59375,345.78256 178.59375,345.78256 164.95117,310.64258 164.95117,310.64258 164.95117,310.64258 205.8789,334.20703 205.8789,334.20703 Z"
       style="display:inline;fill:#e6e6e6;stroke:none;stroke-width:0.26458332px;stroke-linecap:butt;stroke-linejoin:miter;stroke-opacity:1" />
    <path
       transform="matrix(0.00865869,0,0,-0.00865869,800.50679,283.78843)"
       id="path2180-1"
       d="M 205.8789,334.20703 C 205.8789,334.20703 245.5664,363.55925 245.5664,363.55925 245.5664,363.55925 208.35938,384.22982 208.35938,384.22982 208.35938,384.22982 209.1862,418.95638 209.1862,418.95638 209.1862,418.95638 180.2474,379.6823 180.2474,379.6823 180.2474,379.6823 132.29167,376.78841 132.29167,376.78841 132.29167,376.78841 178.59375,345.78256 178.59375,345.78256 178.59375,345.78256 164.95117,310.64258 164.95117,310.64258 164.95117,310.64258 205.8789,334.20703 205.8789,334.20703 Z"
       style="display:inline;fill:#e6e6e6;stroke:none;stroke-width:0.26458332px;stroke-linecap:butt;stroke-linejoin:miter;stroke-opacity:1" />
    <path
       transform="matrix(0.00865869,0,0,0.00865869,910.42138,280.97897)"
       id="path2180-22"
       d="M 205.8789,334.20703 C 205.8789,334.20703 245.5664,363.55925 245.5664,363.55925 245.5664,363.55925 208.35938,384.22982 208.35938,384.22982 208.35938,384.22982 209.1862,418.95638 209.1862,418.95638 209.1862,418.95638 180.2474,379.6823 180.2474,379.6823 180.2474,379.6823 132.29167,376.78841 132.29167,376.78841 132.29167,376.78841 178.59375,345.78256 178.59375,345.78256 178.59375,345.78256 164.95117,310.64258 164.95117,310.64258 164.95117,310.64258 205.8789,334.20703 205.8789,334.20703 Z"
       style="display:inline;fill:#e6e6e6;stroke:none;stroke-width:0.26458332px;stroke-linecap:butt;stroke-linejoin:miter;stroke-opacity:1" />
    <path
       transform="matrix(0.00865869,0,0,0.00865869,984.08755,284.48688)"
       id="path2180-9"
       d="M 205.8789,334.20703 C 205.8789,334.20703 245.5664,363.55925 245.5664,363.55925 245.5664,363.55925 208.35938,384.22982 208.35938,384.22982 208.35938,384.22982 209.1862,418.95638 209.1862,418.95638 209.1862,418.95638 180.2474,379.6823 180.2474,379.6823 180.2474,379.6823 132.29167,376.78841 132.29167,376.78841 132.29167,376.78841 178.59375,345.78256 178.59375,345.78256 178.59375,345.78256 164.95117,310.64258 164.95117,310.64258 164.95117,310.64258 205.8789,334.20703 205.8789,334.20703 Z"
       style="display:inline;fill:#e6e6e6;stroke:none;stroke-width:0.26458332px;stroke-linecap:butt;stroke-linejoin:miter;stroke-opacity:1" />
    <path
       transform="matrix(0.00433605,0.00749477,-0.00749477,0.00433605,1088.1985,275.29337)"
       id="path2180-89"
       d="M 205.8789,334.20703 C 205.8789,334.20703 245.5664,363.55925 245.5664,363.55925 245.5664,363.55925 208.35938,384.22982 208.35938,384.22982 208.35938,384.22982 209.1862,418.95638 209.1862,418.95638 209.1862,418.95638 180.2474,379.6823 180.2474,379.6823 180.2474,379.6823 132.29167,376.78841 132.29167,376.78841 132.29167,376.78841 178.59375,345.78256 178.59375,345.78256 178.59375,345.78256 164.95117,310.64258 164.95117,310.64258 164.95117,310.64258 205.8789,334.20703 205.8789,334.20703 Z"
       style="display:inline;fill:#e6e6e6;stroke:none;stroke-width:0.26458332px;stroke-linecap:butt;stroke-linejoin:miter;stroke-opacity:1" />
    <path
       transform="matrix(0.00687245,0.0052671,-0.0052671,0.00687245,1179.2816,293.49783)"
       id="path2180-61"
       d="M 205.8789,334.20703 C 205.8789,334.20703 245.5664,363.55925 245.5664,363.55925 245.5664,363.55925 208.35938,384.22982 208.35938,384.22982 208.35938,384.22982 209.1862,418.95638 209.1862,418.95638 209.1862,418.95638 180.2474,379.6823 180.2474,379.6823 180.2474,379.6823 132.29167,376.78841 132.29167,376.78841 132.29167,376.78841 178.59375,345.78256 178.59375,345.78256 178.59375,345.78256 164.95117,310.64258 164.95117,310.64258 164.95117,310.64258 205.8789,334.20703 205.8789,334.20703 Z"
       style="display:inline;fill:#e6e6e6;stroke:none;stroke-width:0.26458332px;stroke-linecap:butt;stroke-linejoin:miter;stroke-opacity:1" />
    <path
       transform="matrix(0.00865869,0,0,0.00865869,1274.075,286.82549)"
       id="path2180-68"
       d="M 205.8789,334.20703 C 205.8789,334.20703 245.5664,363.55925 245.5664,363.55925 245.5664,363.55925 208.35938,384.22982 208.35938,384.22982 208.35938,384.22982 209.1862,418.95638 209.1862,418.95638 209.1862,418.95638 180.2474,379.6823 180.2474,379.6823 180.2474,379.6823 132.29167,376.78841 132.29167,376.78841 132.29167,376.78841 178.59375,345.78256 178.59375,345.78256 178.59375,345.78256 164.95117,310.64258 164.95117,310.64258 164.95117,310.64258 205.8789,334.20703 205.8789,334.20703 Z"
       style="display:inline;fill:#e6e6e6;stroke:none;stroke-width:0.26458332px;stroke-linecap:butt;stroke-linejoin:miter;stroke-opacity:1" />
    <path
       transform="matrix(0.00865869,0,0,0.00865869,1334.8788,272.79384)"
       id="path2180-57"
       d="M 205.8789,334.20703 C 205.8789,334.20703 245.5664,363.55925 245.5664,363.55925 245.5664,363.55925 208.35938,384.22982 208.35938,384.22982 208.35938,384.22982 209.1862,418.95638 209.1862,418.95638 209.1862,418.95638 180.2474,379.6823 180.2474,379.6823 180.2474,379.6823 132.29167,376.78841 132.29167,376.78841 132.29167,376.78841 178.59375,345.78256 178.59375,345.78256 178.59375,345.78256 164.95117,310.64258 164.95117,310.64258 164.95117,310.64258 205.8789,334.20703 205.8789,334.20703 Z"
       style="display:inline;fill:#e6e6e6;stroke:none;stroke-width:0.26458332px;stroke-linecap:butt;stroke-linejoin:miter;stroke-opacity:1" />
    <path
       transform="matrix(0.00865869,0,0,0.00865869,1399.1905,291.50271)"
       id="path2180-30"
       d="M 205.8789,334.20703 C 205.8789,334.20703 245.5664,363.55925 245.5664,363.55925 245.5664,363.55925 208.35938,384.22982 208.35938,384.22982 208.35938,384.22982 209.1862,418.95638 209.1862,418.95638 209.1862,418.95638 180.2474,379.6823 180.2474,379.6823 180.2474,379.6823 132.29167,376.78841 132.29167,376.78841 132.29167,376.78841 178.59375,345.78256 178.59375,345.78256 178.59375,345.78256 164.95117,310.64258 164.95117,310.64258 164.95117,310.64258 205.8789,334.20703 205.8789,334.20703 Z"
       style="display:inline;fill:#e6e6e6;stroke:none;stroke-width:0.26458332px;stroke-linecap:butt;stroke-linejoin:miter;stroke-opacity:1" />
    <path
       transform="matrix(0.00725702,-0.0047232,-0.0047232,-0.00725702,1453.797,281.83084)"
       id="path2180-878"
       d="M 205.8789,334.20703 C 205.8789,334.20703 245.5664,363.55925 245.5664,363.55925 245.5664,363.55925 208.35938,384.22982 208.35938,384.22982 208.35938,384.22982 209.1862,418.95638 209.1862,418.95638 209.1862,418.95638 180.2474,379.6823 180.2474,379.6823 180.2474,379.6823 132.29167,376.78841 132.29167,376.78841 132.29167,376.78841 178.59375,345.78256 178.59375,345.78256 178.59375,345.78256 164.95117,310.64258 164.95117,310.64258 164.95117,310.64258 205.8789,334.20703 205.8789,334.20703 Z"
       style="display:inline;fill:#e6e6e6;stroke:none;stroke-width:0.26458332px;stroke-linecap:butt;stroke-linejoin:miter;stroke-opacity:1" />
    <path
       transform="matrix(0.00865869,0,0,0.00865869,1506.7665,291.50271)"
       id="path2180-84"
       d="M 205.8789,334.20703 C 205.8789,334.20703 245.5664,363.55925 245.5664,363.55925 245.5664,363.55925 208.35938,384.22982 208.35938,384.22982 208.35938,384.22982 209.1862,418.95638 209.1862,418.95638 209.1862,418.95638 180.2474,379.6823 180.2474,379.6823 180.2474,379.6823 132.29167,376.78841 132.29167,376.78841 132.29167,376.78841 178.59375,345.78256 178.59375,345.78256 178.59375,345.78256 164.95117,310.64258 164.95117,310.64258 164.95117,310.64258 205.8789,334.20703 205.8789,334.20703 Z"
       style="display:inline;fill:#e6e6e6;stroke:none;stroke-width:0.26458332px;stroke-linecap:butt;stroke-linejoin:miter;stroke-opacity:1" />
    <path
       transform="matrix(0.00865869,0,0,0.00865869,1552.3694,273.96315)"
       id="path2180-06"
       d="M 205.8789,334.20703 C 205.8789,334.20703 245.5664,363.55925 245.5664,363.55925 245.5664,363.55925 208.35938,384.22982 208.35938,384.22982 208.35938,384.22982 209.1862,418.95638 209.1862,418.95638 209.1862,418.95638 180.2474,379.6823 180.2474,379.6823 180.2474,379.6823 132.29167,376.78841 132.29167,376.78841 132.29167,376.78841 178.59375,345.78256 178.59375,345.78256 178.59375,345.78256 164.95117,310.64258 164.95117,310.64258 164.95117,310.64258 205.8789,334.20703 205.8789,334.20703 Z"
       style="display:inline;fill:#e6e6e6;stroke:none;stroke-width:0.26458332px;stroke-linecap:butt;stroke-linejoin:miter;stroke-opacity:1" />
    <path
       transform="matrix(0.00865869,0,0,0.00865869,1586.2792,287.9948)"
       id="path2180-575"
       d="M 205.8789,334.20703 C 205.8789,334.20703 245.5664,363.55925 245.5664,363.55925 245.5664,363.55925 208.35938,384.22982 208.35938,384.22982 208.35938,384.22982 209.1862,418.95638 209.1862,418.95638 209.1862,418.95638 180.2474,379.6823 180.2474,379.6823 180.2474,379.6823 132.29167,376.78841 132.29167,376.78841 132.29167,376.78841 178.59375,345.78256 178.59375,345.78256 178.59375,345.78256 164.95117,310.64258 164.95117,310.64258 164.95117,310.64258 205.8789,334.20703 205.8789,334.20703 Z"
       style="display:inline;fill:#e6e6e6;stroke:none;stroke-width:0.26458332px;stroke-linecap:butt;stroke-linejoin:miter;stroke-opacity:1" />
    <path
       transform="matrix(0.00865869,0,0,0.00865869,26.476101,283.50603)"
       id="path2180-540"
       d="M 205.8789,334.20703 C 205.8789,334.20703 245.5664,363.55925 245.5664,363.55925 245.5664,363.55925 208.35938,384.22982 208.35938,384.22982 208.35938,384.22982 209.1862,418.95638 209.1862,418.95638 209.1862,418.95638 180.2474,379.6823 180.2474,379.6823 180.2474,379.6823 132.29167,376.78841 132.29167,376.78841 132.29167,376.78841 178.59375,345.78256 178.59375,345.78256 178.59375,345.78256 164.95117,310.64258 164.95117,310.64258 164.95117,310.64258 205.8789,334.20703 205.8789,334.20703 Z"
       style="display:inline;fill:#e6e6e6;stroke:none;stroke-width:0.26458332px;stroke-linecap:butt;stroke-linejoin:miter;stroke-opacity:1" />
    <path
       transform="matrix(0.00865869,0,0,0.00865869,62.029487,274.61768)"
       id="path2180-820"
       d="M 205.8789,334.20703 C 205.8789,334.20703 245.5664,363.55925 245.5664,363.55925 245.5664,363.55925 208.35938,384.22982 208.35938,384.22982 208.35938,384.22982 209.1862,418.95638 209.1862,418.95638 209.1862,418.95638 180.2474,379.6823 180.2474,379.6823 180.2474,379.6823 132.29167,376.78841 132.29167,376.78841 132.29167,376.78841 178.59375,345.78256 178.59375,345.78256 178.59375,345.78256 164.95117,310.64258 164.95117,310.64258 164.95117,310.64258 205.8789,334.20703 205.8789,334.20703 Z"
       style="display:inline;fill:#e6e6e6;stroke:none;stroke-width:0.26458332px;stroke-linecap:butt;stroke-linejoin:miter;stroke-opacity:1" />
    <path
       transform="matrix(0.00865869,0,0,0.00865869,100.68346,290.94744)"
       id="path2180-445"
       d="M 205.8789,334.20703 C 205.8789,334.20703 245.5664,363.55925 245.5664,363.55925 245.5664,363.55925 208.35938,384.22982 208.35938,384.22982 208.35938,384.22982 209.1862,418.95638 209.1862,418.95638 209.1862,418.95638 180.2474,379.6823 180.2474,379.6823 180.2474,379.6823 132.29167,376.78841 132.29167,376.78841 132.29167,376.78841 178.59375,345.78256 178.59375,345.78256 178.59375,345.78256 164.95117,310.64258 164.95117,310.64258 164.95117,310.64258 205.8789,334.20703 205.8789,334.20703 Z"
       style="display:inline;fill:#e6e6e6;stroke:none;stroke-width:0.26458332px;stroke-linecap:butt;stroke-linejoin:miter;stroke-opacity:1" />
    <path
       transform="matrix(0.00865869,0,0,-0.00865869,123.8345,279.0747)"
       id="path2180-25"
       d="M 205.8789,334.20703 C 205.8789,334.20703 245.5664,363.55925 245.5664,363.55925 245.5664,363.55925 208.35938,384.22982 208.35938,384.22982 208.35938,384.22982 209.1862,418.95638 209.1862,418.95638 209.1862,418.95638 180.2474,379.6823 180.2474,379.6823 180.2474,379.6823 132.29167,376.78841 132.29167,376.78841 132.29167,376.78841 178.59375,345.78256 178.59375,345.78256 178.59375,345.78256 164.95117,310.64258 164.95117,310.64258 164.95117,310.64258 205.8789,334.20703 205.8789,334.20703 Z"
       style="display:inline;fill:#e6e6e6;stroke:none;stroke-width:0.26458332px;stroke-linecap:butt;stroke-linejoin:miter;stroke-opacity:1" />
    <path
       transform="matrix(0.00865869,0,0,0.00865869,5.1854111,268.62322)"
       id="path2180-79"
       d="M 205.8789,334.20703 C 205.8789,334.20703 245.5664,363.55925 245.5664,363.55925 245.5664,363.55925 208.35938,384.22982 208.35938,384.22982 208.35938,384.22982 209.1862,418.95638 209.1862,418.95638 209.1862,418.95638 180.2474,379.6823 180.2474,379.6823 180.2474,379.6823 132.29167,376.78841 132.29167,376.78841 132.29167,376.78841 178.59375,345.78256 178.59375,345.78256 178.59375,345.78256 164.95117,310.64258 164.95117,310.64258 164.95117,310.64258 205.8789,334.20703 205.8789,334.20703 Z"
       style="display:inline;fill:#e6e6e6;stroke:none;stroke-width:0.26458332px;stroke-linecap:butt;stroke-linejoin:miter;stroke-opacity:1" />
    <path
       transform="matrix(0.00865869,0,0,0.00865869,93.242052,273.58416)"
       id="path2180-78"
       d="M 205.8789,334.20703 C 205.8789,334.20703 245.5664,363.55925 245.5664,363.55925 245.5664,363.55925 208.35938,384.22982 208.35938,384.22982 208.35938,384.22982 209.1862,418.95638 209.1862,418.95638 209.1862,418.95638 180.2474,379.6823 180.2474,379.6823 180.2474,379.6823 132.29167,376.78841 132.29167,376.78841 132.29167,376.78841 178.59375,345.78256 178.59375,345.78256 178.59375,345.78256 164.95117,310.64258 164.95117,310.64258 164.95117,310.64258 205.8789,334.20703 205.8789,334.20703 Z"
       style="display:inline;fill:#e6e6e6;stroke:none;stroke-width:0.26458332px;stroke-linecap:butt;stroke-linejoin:miter;stroke-opacity:1" />
    <path
       transform="matrix(0.00865869,0,0,0.00865869,129.62226,288.46697)"
       id="path2180-88"
       d="M 205.8789,334.20703 C 205.8789,334.20703 245.5664,363.55925 245.5664,363.55925 245.5664,363.55925 208.35938,384.22982 208.35938,384.22982 208.35938,384.22982 209.1862,418.95638 209.1862,418.95638 209.1862,418.95638 180.2474,379.6823 180.2474,379.6823 180.2474,379.6823 132.29167,376.78841 132.29167,376.78841 132.29167,376.78841 178.59375,345.78256 178.59375,345.78256 178.59375,345.78256 164.95117,310.64258 164.95117,310.64258 164.95117,310.64258 205.8789,334.20703 205.8789,334.20703 Z"
       style="display:inline;fill:#e6e6e6;stroke:none;stroke-width:0.26458332px;stroke-linecap:butt;stroke-linejoin:miter;stroke-opacity:1" />
    <path
       transform="matrix(0.00276183,0.00820641,-0.00820641,0.00276183,240.4253,280.41041)"
       id="path2180-90"
       d="M 205.8789,334.20703 C 205.8789,334.20703 245.5664,363.55925 245.5664,363.55925 245.5664,363.55925 208.35938,384.22982 208.35938,384.22982 208.35938,384.22982 209.1862,418.95638 209.1862,418.95638 209.1862,418.95638 180.2474,379.6823 180.2474,379.6823 180.2474,379.6823 132.29167,376.78841 132.29167,376.78841 132.29167,376.78841 178.59375,345.78256 178.59375,345.78256 178.59375,345.78256 164.95117,310.64258 164.95117,310.64258 164.95117,310.64258 205.8789,334.20703 205.8789,334.20703 Z"
       style="display:inline;fill:#e6e6e6;stroke:none;stroke-width:0.26458332px;stroke-linecap:butt;stroke-linejoin:miter;stroke-opacity:1" />
    <path
       transform="matrix(0.00499024,0.00707604,-0.00707604,0.00499024,332.3677,274.82577)"
       id="path2180-00"
       d="M 205.8789,334.20703 C 205.8789,334.20703 245.5664,363.55925 245.5664,363.55925 245.5664,363.55925 208.35938,384.22982 208.35938,384.22982 208.35938,384.22982 209.1862,418.95638 209.1862,418.95638 209.1862,418.95638 180.2474,379.6823 180.2474,379.6823 180.2474,379.6823 132.29167,376.78841 132.29167,376.78841 132.29167,376.78841 178.59375,345.78256 178.59375,345.78256 178.59375,345.78256 164.95117,310.64258 164.95117,310.64258 164.95117,310.64258 205.8789,334.20703 205.8789,334.20703 Z"
       style="display:inline;fill:#e6e6e6;stroke:none;stroke-width:0.26458332px;stroke-linecap:butt;stroke-linejoin:miter;stroke-opacity:1" />
    <path
       transform="matrix(0.00865869,0,0,0.00865869,394.4123,287.22673)"
       id="path2180-93"
       d="M 205.8789,334.20703 C 205.8789,334.20703 245.5664,363.55925 245.5664,363.55925 245.5664,363.55925 208.35938,384.22982 208.35938,384.22982 208.35938,384.22982 209.1862,418.95638 209.1862,418.95638 209.1862,418.95638 180.2474,379.6823 180.2474,379.6823 180.2474,379.6823 132.29167,376.78841 132.29167,376.78841 132.29167,376.78841 178.59375,345.78256 178.59375,345.78256 178.59375,345.78256 164.95117,310.64258 164.95117,310.64258 164.95117,310.64258 205.8789,334.20703 205.8789,334.20703 Z"
       style="display:inline;fill:#e6e6e6;stroke:none;stroke-width:0.26458332px;stroke-linecap:butt;stroke-linejoin:miter;stroke-opacity:1" />
    <path
       transform="matrix(0.00865869,0,0,0.00865869,730.1024,282.2658)"
       id="path2180-572"
       d="M 205.8789,334.20703 C 205.8789,334.20703 245.5664,363.55925 245.5664,363.55925 245.5664,363.55925 208.35938,384.22982 208.35938,384.22982 208.35938,384.22982 209.1862,418.95638 209.1862,418.95638 209.1862,418.95638 180.2474,379.6823 180.2474,379.6823 180.2474,379.6823 132.29167,376.78841 132.29167,376.78841 132.29167,376.78841 178.59375,345.78256 178.59375,345.78256 178.59375,345.78256 164.95117,310.64258 164.95117,310.64258 164.95117,310.64258 205.8789,334.20703 205.8789,334.20703 Z"
       style="display:inline;fill:#e6e6e6;stroke:none;stroke-width:0.26458332px;stroke-linecap:butt;stroke-linejoin:miter;stroke-opacity:1" />
    <path
       transform="matrix(0.00865869,0,0,0.00865869,613.52037,271.5171)"
       id="path2180-250"
       d="M 205.8789,334.20703 C 205.8789,334.20703 245.5664,363.55925 245.5664,363.55925 245.5664,363.55925 208.35938,384.22982 208.35938,384.22982 208.35938,384.22982 209.1862,418.95638 209.1862,418.95638 209.1862,418.95638 180.2474,379.6823 180.2474,379.6823 180.2474,379.6823 132.29167,376.78841 132.29167,376.78841 132.29167,376.78841 178.59375,345.78256 178.59375,345.78256 178.59375,345.78256 164.95117,310.64258 164.95117,310.64258 164.95117,310.64258 205.8789,334.20703 205.8789,334.20703 Z"
       style="display:inline;fill:#e6e6e6;stroke:none;stroke-width:0.26458332px;stroke-linecap:butt;stroke-linejoin:miter;stroke-opacity:1" />
    <path
       transform="matrix(0.00865869,0,0,0.00865869,835.93574,283.50603)"
       id="path2180-11"
       d="M 205.8789,334.20703 C 205.8789,334.20703 245.5664,363.55925 245.5664,363.55925 245.5664,363.55925 208.35938,384.22982 208.35938,384.22982 208.35938,384.22982 209.1862,418.95638 209.1862,418.95638 209.1862,418.95638 180.2474,379.6823 180.2474,379.6823 180.2474,379.6823 132.29167,376.78841 132.29167,376.78841 132.29167,376.78841 178.59375,345.78256 178.59375,345.78256 178.59375,345.78256 164.95117,310.64258 164.95117,310.64258 164.95117,310.64258 205.8789,334.20703 205.8789,334.20703 Z"
       style="display:inline;fill:#e6e6e6;stroke:none;stroke-width:0.26458332px;stroke-linecap:butt;stroke-linejoin:miter;stroke-opacity:1" />
    <path
       transform="matrix(0.00865869,0,0,0.00865869,869.42207,275.2378)"
       id="path2180-885"
       d="M 205.8789,334.20703 C 205.8789,334.20703 245.5664,363.55925 245.5664,363.55925 245.5664,363.55925 208.35938,384.22982 208.35938,384.22982 208.35938,384.22982 209.1862,418.95638 209.1862,418.95638 209.1862,418.95638 180.2474,379.6823 180.2474,379.6823 180.2474,379.6823 132.29167,376.78841 132.29167,376.78841 132.29167,376.78841 178.59375,345.78256 178.59375,345.78256 178.59375,345.78256 164.95117,310.64258 164.95117,310.64258 164.95117,310.64258 205.8789,334.20703 205.8789,334.20703 Z"
       style="display:inline;fill:#e6e6e6;stroke:none;stroke-width:0.26458332px;stroke-linecap:butt;stroke-linejoin:miter;stroke-opacity:1" />
    <path
       transform="matrix(0.00865869,0,0,0.00865869,763.17532,289.7072)"
       id="path2180-80"
       d="M 205.8789,334.20703 C 205.8789,334.20703 245.5664,363.55925 245.5664,363.55925 245.5664,363.55925 208.35938,384.22982 208.35938,384.22982 208.35938,384.22982 209.1862,418.95638 209.1862,418.95638 209.1862,418.95638 180.2474,379.6823 180.2474,379.6823 180.2474,379.6823 132.29167,376.78841 132.29167,376.78841 132.29167,376.78841 178.59375,345.78256 178.59375,345.78256 178.59375,345.78256 164.95117,310.64258 164.95117,310.64258 164.95117,310.64258 205.8789,334.20703 205.8789,334.20703 Z"
       style="display:inline;fill:#e6e6e6;stroke:none;stroke-width:0.26458332px;stroke-linecap:butt;stroke-linejoin:miter;stroke-opacity:1" />
    <path
       transform="matrix(0.00865869,0,0,0.00865869,647.62682,270.17351)"
       id="path2180-52"
       d="M 205.8789,334.20703 C 205.8789,334.20703 245.5664,363.55925 245.5664,363.55925 245.5664,363.55925 208.35938,384.22982 208.35938,384.22982 208.35938,384.22982 209.1862,418.95638 209.1862,418.95638 209.1862,418.95638 180.2474,379.6823 180.2474,379.6823 180.2474,379.6823 132.29167,376.78841 132.29167,376.78841 132.29167,376.78841 178.59375,345.78256 178.59375,345.78256 178.59375,345.78256 164.95117,310.64258 164.95117,310.64258 164.95117,310.64258 205.8789,334.20703 205.8789,334.20703 Z"
       style="display:inline;fill:#e6e6e6;stroke:none;stroke-width:0.26458332px;stroke-linecap:butt;stroke-linejoin:miter;stroke-opacity:1" />
    <path
       transform="matrix(0.00865869,0,0,0.00865869,963.67988,269.45004)"
       id="path2180-28"
       d="M 205.8789,334.20703 C 205.8789,334.20703 245.5664,363.55925 245.5664,363.55925 245.5664,363.55925 208.35938,384.22982 208.35938,384.22982 208.35938,384.22982 209.1862,418.95638 209.1862,418.95638 209.1862,418.95638 180.2474,379.6823 180.2474,379.6823 180.2474,379.6823 132.29167,376.78841 132.29167,376.78841 132.29167,376.78841 178.59375,345.78256 178.59375,345.78256 178.59375,345.78256 164.95117,310.64258 164.95117,310.64258 164.95117,310.64258 205.8789,334.20703 205.8789,334.20703 Z"
       style="display:inline;fill:#e6e6e6;stroke:none;stroke-width:0.26458332px;stroke-linecap:butt;stroke-linejoin:miter;stroke-opacity:1" />
    <path
       transform="matrix(0.00865869,0,0,0.00865869,1020.7307,290.53403)"
       id="path2180-005"
       d="M 205.8789,334.20703 C 205.8789,334.20703 245.5664,363.55925 245.5664,363.55925 245.5664,363.55925 208.35938,384.22982 208.35938,384.22982 208.35938,384.22982 209.1862,418.95638 209.1862,418.95638 209.1862,418.95638 180.2474,379.6823 180.2474,379.6823 180.2474,379.6823 132.29167,376.78841 132.29167,376.78841 132.29167,376.78841 178.59375,345.78256 178.59375,345.78256 178.59375,345.78256 164.95117,310.64258 164.95117,310.64258 164.95117,310.64258 205.8789,334.20703 205.8789,334.20703 Z"
       style="display:inline;fill:#e6e6e6;stroke:none;stroke-width:0.26458332px;stroke-linecap:butt;stroke-linejoin:miter;stroke-opacity:1" />
    <path
       transform="matrix(0.00865869,0,0,0.00865869,1044.7085,271.93051)"
       id="path2180-03"
       d="M 205.8789,334.20703 C 205.8789,334.20703 245.5664,363.55925 245.5664,363.55925 245.5664,363.55925 208.35938,384.22982 208.35938,384.22982 208.35938,384.22982 209.1862,418.95638 209.1862,418.95638 209.1862,418.95638 180.2474,379.6823 180.2474,379.6823 180.2474,379.6823 132.29167,376.78841 132.29167,376.78841 132.29167,376.78841 178.59375,345.78256 178.59375,345.78256 178.59375,345.78256 164.95117,310.64258 164.95117,310.64258 164.95117,310.64258 205.8789,334.20703 205.8789,334.20703 Z"
       style="display:inline;fill:#e6e6e6;stroke:none;stroke-width:0.26458332px;stroke-linecap:butt;stroke-linejoin:miter;stroke-opacity:1" />
    <path
       transform="matrix(0.00865869,0,0,0.00865869,1119.1226,288.05356)"
       id="path2180-60"
       d="M 205.8789,334.20703 C 205.8789,334.20703 245.5664,363.55925 245.5664,363.55925 245.5664,363.55925 208.35938,384.22982 208.35938,384.22982 208.35938,384.22982 209.1862,418.95638 209.1862,418.95638 209.1862,418.95638 180.2474,379.6823 180.2474,379.6823 180.2474,379.6823 132.29167,376.78841 132.29167,376.78841 132.29167,376.78841 178.59375,345.78256 178.59375,345.78256 178.59375,345.78256 164.95117,310.64258 164.95117,310.64258 164.95117,310.64258 205.8789,334.20703 205.8789,334.20703 Z"
       style="display:inline;fill:#e6e6e6;stroke:none;stroke-width:0.26458332px;stroke-linecap:butt;stroke-linejoin:miter;stroke-opacity:1" />
    <path
       transform="matrix(0.00865869,0,0,0.00865869,1143.9273,274.41098)"
       id="path2180-117"
       d="M 205.8789,334.20703 C 205.8789,334.20703 245.5664,363.55925 245.5664,363.55925 245.5664,363.55925 208.35938,384.22982 208.35938,384.22982 208.35938,384.22982 209.1862,418.95638 209.1862,418.95638 209.1862,418.95638 180.2474,379.6823 180.2474,379.6823 180.2474,379.6823 132.29167,376.78841 132.29167,376.78841 132.29167,376.78841 178.59375,345.78256 178.59375,345.78256 178.59375,345.78256 164.95117,310.64258 164.95117,310.64258 164.95117,310.64258 205.8789,334.20703 205.8789,334.20703 Z"
       style="display:inline;fill:#e6e6e6;stroke:none;stroke-width:0.26458332px;stroke-linecap:butt;stroke-linejoin:miter;stroke-opacity:1" />
    <path
       transform="matrix(0.00865869,0,0,0.00865869,1217.5145,290.53403)"
       id="path2180-91"
       d="M 205.8789,334.20703 C 205.8789,334.20703 245.5664,363.55925 245.5664,363.55925 245.5664,363.55925 208.35938,384.22982 208.35938,384.22982 208.35938,384.22982 209.1862,418.95638 209.1862,418.95638 209.1862,418.95638 180.2474,379.6823 180.2474,379.6823 180.2474,379.6823 132.29167,376.78841 132.29167,376.78841 132.29167,376.78841 178.59375,345.78256 178.59375,345.78256 178.59375,345.78256 164.95117,310.64258 164.95117,310.64258 164.95117,310.64258 205.8789,334.20703 205.8789,334.20703 Z"
       style="display:inline;fill:#e6e6e6;stroke:none;stroke-width:0.26458332px;stroke-linecap:butt;stroke-linejoin:miter;stroke-opacity:1" />
    <path
       transform="matrix(-0.00217167,0.00838193,-0.00838193,-0.00217167,1208.9758,276.36489)"
       id="path2180-13"
       d="M 205.8789,334.20703 C 205.8789,334.20703 245.5664,363.55925 245.5664,363.55925 245.5664,363.55925 208.35938,384.22982 208.35938,384.22982 208.35938,384.22982 209.1862,418.95638 209.1862,418.95638 209.1862,418.95638 180.2474,379.6823 180.2474,379.6823 180.2474,379.6823 132.29167,376.78841 132.29167,376.78841 132.29167,376.78841 178.59375,345.78256 178.59375,345.78256 178.59375,345.78256 164.95117,310.64258 164.95117,310.64258 164.95117,310.64258 205.8789,334.20703 205.8789,334.20703 Z"
       style="display:inline;fill:#e6e6e6;stroke:none;stroke-width:0.26458332px;stroke-linecap:butt;stroke-linejoin:miter;stroke-opacity:1" />
    <path
       transform="matrix(-0.00348695,0.00792553,-0.00792553,-0.00348695,1261.5611,277.34434)"
       id="path2180-255"
       d="M 205.8789,334.20703 C 205.8789,334.20703 245.5664,363.55925 245.5664,363.55925 245.5664,363.55925 208.35938,384.22982 208.35938,384.22982 208.35938,384.22982 209.1862,418.95638 209.1862,418.95638 209.1862,418.95638 180.2474,379.6823 180.2474,379.6823 180.2474,379.6823 132.29167,376.78841 132.29167,376.78841 132.29167,376.78841 178.59375,345.78256 178.59375,345.78256 178.59375,345.78256 164.95117,310.64258 164.95117,310.64258 164.95117,310.64258 205.8789,334.20703 205.8789,334.20703 Z"
       style="display:inline;fill:#e6e6e6;stroke:none;stroke-width:0.26458332px;stroke-linecap:butt;stroke-linejoin:miter;stroke-opacity:1" />
    <path
       transform="matrix(0.00865869,0,0,0.00865869,1320.454,285.9865)"
       id="path2180-799"
       d="M 205.8789,334.20703 C 205.8789,334.20703 245.5664,363.55925 245.5664,363.55925 245.5664,363.55925 208.35938,384.22982 208.35938,384.22982 208.35938,384.22982 209.1862,418.95638 209.1862,418.95638 209.1862,418.95638 180.2474,379.6823 180.2474,379.6823 180.2474,379.6823 132.29167,376.78841 132.29167,376.78841 132.29167,376.78841 178.59375,345.78256 178.59375,345.78256 178.59375,345.78256 164.95117,310.64258 164.95117,310.64258 164.95117,310.64258 205.8789,334.20703 205.8789,334.20703 Z"
       style="display:inline;fill:#e6e6e6;stroke:none;stroke-width:0.26458332px;stroke-linecap:butt;stroke-linejoin:miter;stroke-opacity:1" />
    <path
       transform="matrix(0.00865869,0,0,0.00865869,1382.0523,270.69028)"
       id="path2180-37"
       d="M 205.8789,334.20703 C 205.8789,334.20703 245.5664,363.55925 245.5664,363.55925 245.5664,363.55925 208.35938,384.22982 208.35938,384.22982 208.35938,384.22982 209.1862,418.95638 209.1862,418.95638 209.1862,418.95638 180.2474,379.6823 180.2474,379.6823 180.2474,379.6823 132.29167,376.78841 132.29167,376.78841 132.29167,376.78841 178.59375,345.78256 178.59375,345.78256 178.59375,345.78256 164.95117,310.64258 164.95117,310.64258 164.95117,310.64258 205.8789,334.20703 205.8789,334.20703 Z"
       style="display:inline;fill:#e6e6e6;stroke:none;stroke-width:0.26458332px;stroke-linecap:butt;stroke-linejoin:miter;stroke-opacity:1" />
    <path
       transform="matrix(0.00865869,0,0,0.00865869,1436.2092,288.88038)"
       id="path2180-137"
       d="M 205.8789,334.20703 C 205.8789,334.20703 245.5664,363.55925 245.5664,363.55925 245.5664,363.55925 208.35938,384.22982 208.35938,384.22982 208.35938,384.22982 209.1862,418.95638 209.1862,418.95638 209.1862,418.95638 180.2474,379.6823 180.2474,379.6823 180.2474,379.6823 132.29167,376.78841 132.29167,376.78841 132.29167,376.78841 178.59375,345.78256 178.59375,345.78256 178.59375,345.78256 164.95117,310.64258 164.95117,310.64258 164.95117,310.64258 205.8789,334.20703 205.8789,334.20703 Z"
       style="display:inline;fill:#e6e6e6;stroke:none;stroke-width:0.26458332px;stroke-linecap:butt;stroke-linejoin:miter;stroke-opacity:1" />
    <path
       transform="matrix(0.00865869,0,0,0.00865869,1491.1929,273.17074)"
       id="path2180-81"
       d="M 205.8789,334.20703 C 205.8789,334.20703 245.5664,363.55925 245.5664,363.55925 245.5664,363.55925 208.35938,384.22982 208.35938,384.22982 208.35938,384.22982 209.1862,418.95638 209.1862,418.95638 209.1862,418.95638 180.2474,379.6823 180.2474,379.6823 180.2474,379.6823 132.29167,376.78841 132.29167,376.78841 132.29167,376.78841 178.59375,345.78256 178.59375,345.78256 178.59375,345.78256 164.95117,310.64258 164.95117,310.64258 164.95117,310.64258 205.8789,334.20703 205.8789,334.20703 Z"
       style="display:inline;fill:#e6e6e6;stroke:none;stroke-width:0.26458332px;stroke-linecap:butt;stroke-linejoin:miter;stroke-opacity:1" />
    <path
       transform="matrix(0.00865869,0,0,0.00865869,1534.6011,290.94744)"
       id="path2180-602"
       d="M 205.8789,334.20703 C 205.8789,334.20703 245.5664,363.55925 245.5664,363.55925 245.5664,363.55925 208.35938,384.22982 208.35938,384.22982 208.35938,384.22982 209.1862,418.95638 209.1862,418.95638 209.1862,418.95638 180.2474,379.6823 180.2474,379.6823 180.2474,379.6823 132.29167,376.78841 132.29167,376.78841 132.29167,376.78841 178.59375,345.78256 178.59375,345.78256 178.59375,345.78256 164.95117,310.64258 164.95117,310.64258 164.95117,310.64258 205.8789,334.20703 205.8789,334.20703 Z"
       style="display:inline;fill:#e6e6e6;stroke:none;stroke-width:0.26458332px;stroke-linecap:butt;stroke-linejoin:miter;stroke-opacity:1" />
    <path
       transform="matrix(0.00865869,0,0,0.00865869,1572.5399,276.00943)"
       id="path2180-281"
       d="M 205.8789,334.20703 C 205.8789,334.20703 245.5664,363.55925 245.5664,363.55925 245.5664,363.55925 208.35938,384.22982 208.35938,384.22982 208.35938,384.22982 209.1862,418.95638 209.1862,418.95638 209.1862,418.95638 180.2474,379.6823 180.2474,379.6823 180.2474,379.6823 132.29167,376.78841 132.29167,376.78841 132.29167,376.78841 178.59375,345.78256 178.59375,345.78256 178.59375,345.78256 164.95117,310.64258 164.95117,310.64258 164.95117,310.64258 205.8789,334.20703 205.8789,334.20703 Z"
       style="display:inline;fill:#e6e6e6;stroke:none;stroke-width:0.26458332px;stroke-linecap:butt;stroke-linejoin:miter;stroke-opacity:1" />
    <path
       transform="matrix(0.00865869,0,0,0.00865869,1597.9722,279.80967)"
       id="path2180-74"
       d="M 205.8789,334.20703 C 205.8789,334.20703 245.5664,363.55925 245.5664,363.55925 245.5664,363.55925 208.35938,384.22982 208.35938,384.22982 208.35938,384.22982 209.1862,418.95638 209.1862,418.95638 209.1862,418.95638 180.2474,379.6823 180.2474,379.6823 180.2474,379.6823 132.29167,376.78841 132.29167,376.78841 132.29167,376.78841 178.59375,345.78256 178.59375,345.78256 178.59375,345.78256 164.95117,310.64258 164.95117,310.64258 164.95117,310.64258 205.8789,334.20703 205.8789,334.20703 Z"
       style="display:inline;fill:#e6e6e6;stroke:none;stroke-width:0.26458332px;stroke-linecap:butt;stroke-linejoin:miter;stroke-opacity:1" />
    <path
       transform="matrix(0.00865869,0,0,0.00865869,1523.1368,275.13245)"
       id="path2180-17"
       d="M 205.8789,334.20703 C 205.8789,334.20703 245.5664,363.55925 245.5664,363.55925 245.5664,363.55925 208.35938,384.22982 208.35938,384.22982 208.35938,384.22982 209.1862,418.95638 209.1862,418.95638 209.1862,418.95638 180.2474,379.6823 180.2474,379.6823 180.2474,379.6823 132.29167,376.78841 132.29167,376.78841 132.29167,376.78841 178.59375,345.78256 178.59375,345.78256 178.59375,345.78256 164.95117,310.64258 164.95117,310.64258 164.95117,310.64258 205.8789,334.20703 205.8789,334.20703 Z"
       style="display:inline;fill:#e6e6e6;stroke:none;stroke-width:0.26458332px;stroke-linecap:butt;stroke-linejoin:miter;stroke-opacity:1" />
    <g
       transform="matrix(0.02791866,0,0,0.02791866,907.45529,266.9197)"
       id="g2676">
      <circle
         style="opacity:1;vector-effect:none;fill:#99ff55;fill-opacity:1;fill-rule:evenodd;stroke-width:0.35714281;stroke-linecap:butt;stroke-linejoin:miter;stroke-miterlimit:4;stroke-dasharray:none;stroke-dashoffset:0;stroke-opacity:1"
         id="path2658"
         cx="790.64227"
         cy="240.62221"
         r="32.740517" />
      <path
         style="fill:#806600;stroke:none;stroke-width:0.26458332px;stroke-linecap:butt;stroke-linejoin:miter;stroke-opacity:1"
         d="M 699.22715,185.35078 C 719.07697,183.26006 738.23896,190.03529 742.50849,200.46589 746.77802,210.89648 736.15309,224.98213 721.09426,231.76693 706.03542,238.55174 686.54043,238.03529 666.28468,245.40363 646.02893,252.77196 625.0106,268.02592 620.22051,263.33202 615.43042,258.63812 626.86879,233.99758 642.85615,216.19803 658.8435,198.39849 679.37732,187.44149 699.22715,185.35078 Z"
         id="path2660"
         transform="matrix(0.35498789,0,0,0.35498789,539.4563,142.15323)" />
      <path
         style="fill:#d45500;stroke:none;stroke-width:0.26458332px;stroke-linecap:butt;stroke-linejoin:miter;stroke-opacity:1"
         d="M 740.94579,144.37528 C 736.86331,151.14681 737.12439,163.57256 741.98231,176.28345 746.84024,188.99435 756.29506,201.98985 772.93479,204.8038 789.57452,207.61774 813.39985,200.25038 826.23135,191.11279 839.06285,181.97519 840.90106,171.06797 833.6554,168.79638 826.40975,166.52479 810.08067,172.8886 796.60332,168.75652 783.12597,164.62445 772.50291,149.9971 762.97827,143.24164 753.45364,136.48618 745.02827,137.60375 740.94579,144.37528 Z"
         id="path2664"
         transform="matrix(0.63101241,0,0,0.63101241,292.27293,142.67465)" />
      <path
         style="fill:#3771c8;fill-opacity:1;stroke:none;stroke-width:0.26458332px;stroke-linecap:butt;stroke-linejoin:miter;stroke-opacity:1"
         d="M 840.68638,170.26459 C 833.40322,172.86056 829.94883,164.74559 827.03747,168.29722 824.12611,171.84886 821.758,187.06761 825.93319,197.98997 830.10838,208.91233 840.82722,215.53853 849.88942,214.71011 858.95161,213.88169 866.35696,205.59939 869.46441,192.08076 872.57185,178.56213 871.38124,159.80881 865.23065,157.08541 859.08006,154.36202 847.96955,167.66862 840.68638,170.26459 Z"
         id="path2668"
         transform="matrix(0.56565258,0,0,0.56565258,313.94077,131.32287)" />
    </g>
    <path
       transform="matrix(0.03399969,0.00720986,0.00196523,-0.12473491,963.60438,329.10627)"
       id="path2706"
       d="M 1183.3358,396.39086 C 1183.2997,397.12022 1061.4757,391.68791 911.40723,384.26516 761.33874,376.84242 639.5733,370.22622 639.60937,369.49686 639.64545,368.7675 761.46945,374.19981 911.53794,381.62256 1061.6064,389.0453 1183.3719,395.6615 1183.3358,396.39086 Z"
       style="fill:#e6e6e6;fill-opacity:1;stroke:none;stroke-width:0.26458332px;stroke-linecap:butt;stroke-linejoin:miter;stroke-opacity:1" />
  </g>
  <g
     style="display:inline"
     id="layer2" />
</svg>
