<?xml version="1.0" encoding="UTF-8" standalone="no"?>
<svg
   xmlns:dc="http://purl.org/dc/elements/1.1/"
   xmlns:cc="http://creativecommons.org/ns#"
   xmlns:rdf="http://www.w3.org/1999/02/22-rdf-syntax-ns#"
   xmlns:svg="http://www.w3.org/2000/svg"
   xmlns="http://www.w3.org/2000/svg"
   id="svg6766"
   version="1.1"
   viewBox="0 0 661.45833 661.45833"
   height="2500"
   width="2500">
  <defs
     id="defs6760" />
  <metadata
     id="metadata6763">
    <rdf:RDF>
      <cc:Work
         rdf:about="">
        <dc:format>image/svg+xml</dc:format>
        <dc:type
           rdf:resource="http://purl.org/dc/dcmitype/StillImage" />
        <dc:title></dc:title>
      </cc:Work>
    </rdf:RDF>
  </metadata>
  <g
     id="g7455"
     transform="translate(0,364.4583)"
     style="display:inline">
    <g
       id="g899">
      <circle
         r="322.1618"
         cy="-33.729156"
         cx="330.72916"
         id="circle7435"
         style="fill:#0066ff;fill-opacity:1;fill-rule:evenodd;stroke-width:1.15057778" />
      <ellipse
         ry="237.84268"
         rx="238.36328"
         cy="-33.729156"
         cx="330.72916"
         id="ellipse7437"
         style="opacity:1;vector-effect:none;fill:#0066ff;fill-opacity:1;fill-rule:evenodd;stroke:#ffffff;stroke-width:22.88289261;stroke-linecap:butt;stroke-linejoin:miter;stroke-miterlimit:4;stroke-dasharray:none;stroke-dashoffset:0;stroke-opacity:1" />
      <rect
         transform="rotate(-90)"
         y="319.03232"
         x="-196.89877"
         height="23.393667"
         width="461.25586"
         id="rect7439"
         style="fill:#ffffff;fill-opacity:1;stroke:#ffffff;stroke-width:0;stroke-miterlimit:4;stroke-dasharray:none;stroke-opacity:1" />
      <path
         id="path7441"
         d="M 458.64632,-33.729193 A 127.91714,232.93774 0 0 1 330.72919,199.20859 127.91714,232.93774 0 0 1 202.81201,-33.729193 127.91714,232.93774 0 0 1 330.72919,-266.6669 127.91714,232.93774 0 0 1 458.64632,-33.729193 Z"
         style="opacity:1;vector-effect:none;fill:none;fill-opacity:1;fill-rule:evenodd;stroke:#ffffff;stroke-width:22.41729355;stroke-linecap:butt;stroke-linejoin:miter;stroke-miterlimit:4;stroke-dasharray:none;stroke-dashoffset:0;stroke-opacity:1" />
      <path
         id="path7443"
         d="M -191.12003,-175.07568 C -181.25397,-181.9322 -170.49752,-187.77832 -158.91973,-191.80989 -148.56909,-195.4073 -137.59349,-197.40999 -126.50638,-197.40314 L -126.50637,-197.40314 C -115.49776,-197.37276 -104.59538,-195.35401 -94.322288,-191.71866 -83.045902,-187.71889 -72.582063,-181.94622 -63.010466,-175.16735 L -70.221937,-164.95696 C -79.060357,-171.18085 -88.507543,-176.428 -98.483798,-179.93172 -107.52823,-183.11664 -117.05073,-184.8977 -126.52825,-184.90316 L -126.52825,-184.90316 C -136.076,-184.93242 -145.67978,-183.15948 -154.82613,-179.9992 -165.10553,-176.45503 -174.85328,-171.12119 -184.00034,-164.8018 Z"
         style="fill:#ffffff;fill-opacity:1;stroke:#ffffff;stroke-width:0;stroke-miterlimit:4;stroke-dasharray:none;stroke-opacity:1"
         transform="matrix(-3.0803722,0,0,-1.4799863,-60.6791,-422.32492)" />
      <path
         id="path7445"
         d="M -191.12003,-175.07568 C -181.25397,-181.9322 -170.49752,-187.77832 -158.91973,-191.80989 -148.56909,-195.4073 -137.59349,-197.40999 -126.50638,-197.40314 L -126.50637,-197.40314 C -115.49776,-197.37276 -104.59538,-195.35401 -94.322288,-191.71866 -83.045902,-187.71889 -72.582063,-181.94622 -63.010466,-175.16735 L -70.221937,-164.95696 C -79.060357,-171.18085 -88.507543,-176.428 -98.483798,-179.93172 -107.52823,-183.11664 -117.05073,-184.8977 -126.52825,-184.90316 L -126.52825,-184.90316 C -136.076,-184.93242 -145.67978,-183.15948 -154.82613,-179.9992 -165.10553,-176.45503 -174.85328,-171.12119 -184.00034,-164.8018 Z"
         style="fill:#ffffff;fill-opacity:1;stroke:#ffffff;stroke-width:0;stroke-miterlimit:4;stroke-dasharray:none;stroke-opacity:1"
         transform="matrix(3.0803722,0,0,1.4799866,722.13743,354.2497)" />
    </g>
  </g>
  <g
     transform="translate(0,407.45831)"
     style="display:inline"
     id="layer7">
    <path
       id="path7873"
       d="M 358.27603,5.1267281 411.06595,207.23689 608.14859,47.358638 437.20965,-35.596982 Z"
       style="fill:#0165ff;fill-opacity:1;stroke:#0066ff;stroke-width:1.06651855;stroke-linecap:butt;stroke-linejoin:miter;stroke-miterlimit:4;stroke-dasharray:none;stroke-opacity:1" />
  </g>
  <g
     transform="translate(0,407.45831)"
     style="display:inline"
     id="layer6">
    <path
       id="path7816-2"
       d="M 370.73995,-18.706298 416.41612,142.8377 C 420.36121,155.70596 420.88359,159.04306 423.10053,158.86877 426.01644,158.62283 455.47382,100.47937 455.47382,100.47937 456.47213,99.064246 456.67215,98.488268 457.69492,97.466248 457.96937,97.270918 458.05601,97.183598 458.59643,97.109678 459.75552,96.241778 466.68701,104.66968 470.01966,108.73785 470.11236,108.73775 470.10976,108.74085 470.01966,108.73785 L 516.83475,167.85737 C 518.52495,169.8308 519.58486,170.57832 521.52709,170.81963 523.41088,170.84813 525.15572,169.21685 526.56624,168.00173 L 552.18555,146.31068 C 552.95357,145.50797 553.38243,144.44191 553.26787,143.70214 553.0533,142.66102 550.66603,139.74236 549.7338,138.51775 L 494.14319,69.910048 C 493.84451,69.493917 493.29857,68.619036 493.19959,68.259258 493.03528,67.438984 493.24199,67.104615 494.06428,66.687425 496.0274,65.541763 500.77371,64.60811 502.00245,64.171408 L 558.97739,48.691595 C 561.5423,47.913663 561.97824,46.914849 562.14904,46.374796 562.20044,45.982191 562.18864,45.934862 562.12054,45.70425 561.74825,44.824809 553.13932,40.536543 546.3128,36.984903 545.12805,36.384073 543.99358,35.722613 543.8088,35.638433 L 406.44575,-37.999157 C 406.33957,-37.847327 406.10928,-33.039597 404.32045,-34.566917 403.00446,-32.356187 398.27758,-27.005928 394.33077,-23.045418 390.60309,-20.459908 384.25066,-18.866908 380.61037,-17.733568 377.62359,-17.060538 373.93499,-18.809798 371.47922,-18.490188 Z"
       style="display:inline;fill:#ffffff;fill-opacity:1;stroke:none;stroke-width:0.94304299px;stroke-linecap:butt;stroke-linejoin:miter;stroke-opacity:1" />
  </g>
  <g
     transform="translate(0,-1.3e-5)"
     style="display:inline"
     id="layer13">
    <text
       xml:space="preserve"
       style="font-style:italic;font-variant:normal;font-weight:bold;font-stretch:normal;font-size:88.60829163px;line-height:1.25;font-family:Candara;-inkscape-font-specification:'Candara, Bold Italic';font-variant-ligatures:normal;font-variant-caps:normal;font-variant-numeric:normal;font-feature-settings:normal;text-align:start;letter-spacing:0px;word-spacing:0px;writing-mode:lr-tb;text-anchor:start;display:inline;fill:none;fill-opacity:1;stroke:#ffffff;stroke-width:37.72171783;stroke-linejoin:round;stroke-miterlimit:4;stroke-dasharray:none;stroke-opacity:1"
       x="37.733402"
       y="351.90775"
       id="text7453-1"><tspan
         id="tspan7451-49"
         x="37.733402"
         y="351.90775"
         style="font-style:italic;font-variant:normal;font-weight:bold;font-stretch:normal;font-size:88.60829163px;font-family:Candara;-inkscape-font-specification:'Candara, Bold Italic';font-variant-ligatures:normal;font-variant-caps:normal;font-variant-numeric:normal;font-feature-settings:normal;text-align:start;writing-mode:lr-tb;text-anchor:start;fill:none;fill-opacity:1;stroke:#ffffff;stroke-width:37.72171783;stroke-linejoin:round;stroke-miterlimit:4;stroke-dasharray:none;stroke-opacity:1">My Cup of Earth</tspan></text>
    <g
       id="text6840-9-0"
       style="font-style:italic;font-variant:normal;font-weight:bold;font-stretch:normal;font-size:88.60829163px;line-height:1.25;font-family:Candara;-inkscape-font-specification:'Candara, Bold Italic';font-variant-ligatures:normal;font-variant-caps:normal;font-variant-numeric:normal;font-feature-settings:normal;text-align:start;letter-spacing:0px;word-spacing:0px;writing-mode:lr-tb;text-anchor:start;display:inline;fill:#0066ff;fill-opacity:1;stroke:#0066ff;stroke-width:28.29129028;stroke-linejoin:round;stroke-miterlimit:4;stroke-dasharray:none;stroke-opacity:1"
       aria-label="My Cup of Earth">
      <path
         id="path864"
         style="font-style:italic;font-variant:normal;font-weight:bold;font-stretch:normal;font-size:88.60829163px;font-family:Candara;-inkscape-font-specification:'Candara, Bold Italic';font-variant-ligatures:normal;font-variant-caps:normal;font-variant-numeric:normal;font-feature-settings:normal;text-align:start;writing-mode:lr-tb;text-anchor:start;fill:#0066ff;fill-opacity:1;stroke:#0066ff;stroke-width:28.29129028;stroke-linejoin:round;stroke-miterlimit:4;stroke-dasharray:none;stroke-opacity:1"
         d="M 104.05982,295.57572 Q 102.63205,307.90646 102.63205,326.38094 102.63205,338.53862 103.28104,351.90775 H 90.950296 Q 90.950296,333.95245 93.546242,305.09419 H 92.85399 Q 92.205003,307.81993 90.084981,313.9204 87.964958,320.02087 81.60489,334.55817 75.244823,349.0522 74.941962,351.90775 H 65.553291 Q 65.553291,348.48975 62.265092,333.90919 59.02016,319.32862 58.327908,315.00205 57.678921,310.67547 57.159732,305.09419 H 56.510745 Q 55.94829,310.06975 52.962952,329.92874 49.977614,349.78772 49.977614,351.90775 H 38.815046 Q 38.815046,350.73957 44.39633,325.12624 49.977614,299.46964 50.496804,295.57572 H 66.245543 Q 66.245543,301.50313 69.403944,317.03554 72.605611,332.52468 72.605611,338.10597 H 73.254597 Q 73.687255,333.90919 80.739575,316.68941 87.835161,299.46964 88.224553,295.57572 Z" />
      <path
         id="path866"
         style="font-style:italic;font-variant:normal;font-weight:bold;font-stretch:normal;font-size:88.60829163px;font-family:Candara;-inkscape-font-specification:'Candara, Bold Italic';font-variant-ligatures:normal;font-variant-caps:normal;font-variant-numeric:normal;font-feature-settings:normal;text-align:start;writing-mode:lr-tb;text-anchor:start;fill:#0066ff;fill-opacity:1;stroke:#0066ff;stroke-width:28.29129028;stroke-linejoin:round;stroke-miterlimit:4;stroke-dasharray:none;stroke-opacity:1"
         d="M 150.95992,310.32934 Q 150.95992,316.42982 142.35003,332.52468 133.78341,348.57628 132.5287,352.16734 128.72131,362.89725 123.65922,366.96423 118.59712,371.07448 109.81417,371.07448 V 362.72419 Q 115.26566,362.72419 119.20284,359.21966 123.18329,355.7584 123.18329,350.43671 123.18329,344.55256 117.90487,329.92874 112.66971,315.30491 112.66971,310.80527 L 125.13025,310.32934 Q 125.13025,316.25675 127.55314,326.98666 130.01928,337.67331 130.01928,341.56723 H 130.66827 Q 130.84133,340.05293 135.38424,328.63076 139.92715,317.16533 139.92715,310.93506 Z" />
      <path
         id="path868"
         style="font-style:italic;font-variant:normal;font-weight:bold;font-stretch:normal;font-size:88.60829163px;font-family:Candara;-inkscape-font-specification:'Candara, Bold Italic';font-variant-ligatures:normal;font-variant-caps:normal;font-variant-numeric:normal;font-feature-settings:normal;text-align:start;writing-mode:lr-tb;text-anchor:start;fill:#0066ff;fill-opacity:1;stroke:#0066ff;stroke-width:28.29129028;stroke-linejoin:round;stroke-miterlimit:4;stroke-dasharray:none;stroke-opacity:1"
         d="M 214.38753,296.00837 211.92138,306.00277 Q 207.24868,304.35867 202.7923,304.35867 194.09588,304.35867 189.12032,310.762 184.18802,317.16533 184.18802,326.03482 184.18802,333.39 188.34154,338.45209 192.53832,343.51419 200.49922,343.51419 205.60458,343.51419 211.87812,341.65376 L 210.10422,351.60488 Q 203.22496,353.07592 198.42246,353.07592 185.3562,353.07592 178.82307,345.54768 172.3332,337.97617 172.3332,327.37606 172.3332,313.61754 181.67861,304.22887 191.02402,294.79693 204.99886,294.79693 210.01769,294.79693 214.38753,296.00837 Z" />
      <path
         id="path870"
         style="font-style:italic;font-variant:normal;font-weight:bold;font-stretch:normal;font-size:88.60829163px;font-family:Candara;-inkscape-font-specification:'Candara, Bold Italic';font-variant-ligatures:normal;font-variant-caps:normal;font-variant-numeric:normal;font-feature-settings:normal;text-align:start;writing-mode:lr-tb;text-anchor:start;fill:#0066ff;fill-opacity:1;stroke:#0066ff;stroke-width:28.29129028;stroke-linejoin:round;stroke-miterlimit:4;stroke-dasharray:none;stroke-opacity:1"
         d="M 259.25414,309.93995 Q 256.22553,333.90919 256.22553,341.78356 256.22553,346.32646 256.91778,351.56162 L 246.27441,352.77306 Q 246.01481,349.26853 246.01481,344.20644 H 245.40909 Q 240.52006,353.24898 230.6122,353.24898 219.44963,353.24898 219.44963,340.35579 219.44963,336.5484 220.57454,326.12135 221.74272,315.65103 221.74272,310.80527 L 232.99181,309.93995 Q 232.99181,312.01671 231.52078,322.35723 230.04974,332.69774 230.04974,336.93779 230.04974,341.4807 231.26118,343.29786 232.51589,345.11502 235.50123,345.11502 239.26535,345.11502 242.81314,340.00966 246.36094,334.86103 247.09645,327.46259 248.3079,315.4347 248.3079,310.80527 Z" />
      <path
         id="path872"
         style="font-style:italic;font-variant:normal;font-weight:bold;font-stretch:normal;font-size:88.60829163px;font-family:Candara;-inkscape-font-specification:'Candara, Bold Italic';font-variant-ligatures:normal;font-variant-caps:normal;font-variant-numeric:normal;font-feature-settings:normal;text-align:start;writing-mode:lr-tb;text-anchor:start;fill:#0066ff;fill-opacity:1;stroke:#0066ff;stroke-width:28.29129028;stroke-linejoin:round;stroke-miterlimit:4;stroke-dasharray:none;stroke-opacity:1"
         d="M 307.40893,326.16461 Q 307.40893,337.37045 301.39499,345.28808 295.42431,353.16245 285.55972,353.16245 279.32945,353.16245 276.51717,350.22038 H 275.99798 Q 274.87307,360.82049 274.13756,371.46387 L 262.88846,371.6802 Q 268.33994,331.78916 268.33994,320.75639 268.33994,316.64614 267.64769,311.10813 L 278.29107,309.89669 Q 278.68046,313.22815 278.68046,318.46331 H 279.19965 Q 284.30501,309.42076 294.16961,309.42076 300.57294,309.42076 303.99093,314.00693 307.40893,318.54984 307.40893,326.16461 Z M 296.50596,328.41443 Q 296.50596,317.51146 289.45364,317.51146 285.25686,317.51146 281.62253,323.13601 277.98821,328.71729 277.29596,335.20716 L 276.43064,343.25459 Q 279.58904,345.20155 283.39643,345.20155 289.97283,345.20155 293.21776,340.22599 296.50596,335.20716 296.50596,328.41443 Z" />
      <path
         id="path874"
         style="font-style:italic;font-variant:normal;font-weight:bold;font-stretch:normal;font-size:88.60829163px;font-family:Candara;-inkscape-font-specification:'Candara, Bold Italic';font-variant-ligatures:normal;font-variant-caps:normal;font-variant-numeric:normal;font-feature-settings:normal;text-align:start;writing-mode:lr-tb;text-anchor:start;fill:#0066ff;fill-opacity:1;stroke:#0066ff;stroke-width:28.29129028;stroke-linejoin:round;stroke-miterlimit:4;stroke-dasharray:none;stroke-opacity:1"
         d="M 373.64881,328.1981 Q 373.64881,338.75495 366.89935,346.19666 360.19316,353.59511 349.63631,353.59511 342.28113,353.59511 337.00271,348.23016 331.72428,342.82193 331.72428,333.95245 331.72428,323.43887 338.47374,316.17022 345.2232,308.90157 355.82331,308.90157 363.22176,308.90157 368.41365,314.13673 373.64881,319.32862 373.64881,328.1981 Z M 362.70257,329.14995 Q 362.70257,323.785 360.36622,320.367 358.07313,316.90574 354.09268,316.90574 348.98732,316.90574 345.78566,322.05437 342.62726,327.20299 342.62726,333.39 342.62726,338.75495 344.96361,342.21621 347.29996,345.63421 351.32367,345.63421 356.55883,345.63421 359.6307,340.57211 362.70257,335.46675 362.70257,329.14995 Z" />
      <path
         id="path876"
         style="font-style:italic;font-variant:normal;font-weight:bold;font-stretch:normal;font-size:88.60829163px;font-family:Candara;-inkscape-font-specification:'Candara, Bold Italic';font-variant-ligatures:normal;font-variant-caps:normal;font-variant-numeric:normal;font-feature-settings:normal;text-align:start;writing-mode:lr-tb;text-anchor:start;fill:#0066ff;fill-opacity:1;stroke:#0066ff;stroke-width:28.29129028;stroke-linejoin:round;stroke-miterlimit:4;stroke-dasharray:none;stroke-opacity:1"
         d="M 409.86226,290.38382 408.0451,297.82554 Q 405.75201,297.60921 403.28586,297.60921 400.34379,297.60921 398.91602,300.46475 397.48825,303.32029 396.62293,311.54078 400.30052,311.54078 406.74712,311.19466 L 405.53568,319.80455 Q 399.26215,319.54495 395.80088,319.54495 394.84904,333.39 393.2482,351.30202 391.64737,369.17079 378.58111,371.6802 L 376.24476,365.57973 Q 379.61949,362.98378 381.22032,357.83516 382.86442,352.68653 384.0326,341.52396 385.24404,330.36139 386.15262,319.54495 383.72973,319.54495 378.9705,319.80455 L 380.22521,311.23792 Q 384.50852,311.54078 387.01793,311.54078 389.31102,289.7781 403.19933,289.7781 407.35284,289.7781 409.86226,290.38382 Z M 376.41782,310.37261 Z" />
      <path
         id="path878"
         style="font-style:italic;font-variant:normal;font-weight:bold;font-stretch:normal;font-size:88.60829163px;font-family:Candara;-inkscape-font-specification:'Candara, Bold Italic';font-variant-ligatures:normal;font-variant-caps:normal;font-variant-numeric:normal;font-feature-settings:normal;text-align:start;writing-mode:lr-tb;text-anchor:start;fill:#0066ff;fill-opacity:1;stroke:#0066ff;stroke-width:28.29129028;stroke-linejoin:round;stroke-miterlimit:4;stroke-dasharray:none;stroke-opacity:1"
         d="M 467.8384,295.57572 466.49716,305.05092 Q 454.33948,304.35867 444.30182,304.35867 443.99896,308.9881 443.17691,318.54984 451.74354,318.54984 461.56486,318.07392 L 460.56975,327.11646 Q 451.09455,326.6838 442.3116,326.6838 441.40302,335.46675 440.84056,343.12479 452.08966,343.12479 464.98286,342.38928 L 463.59836,351.90775 H 428.63962 Q 429.5482,345.98034 432.27394,322.44376 433.91804,306.69502 434.13437,295.57572 Z" />
      <path
         id="path880"
         style="font-style:italic;font-variant:normal;font-weight:bold;font-stretch:normal;font-size:88.60829163px;font-family:Candara;-inkscape-font-specification:'Candara, Bold Italic';font-variant-ligatures:normal;font-variant-caps:normal;font-variant-numeric:normal;font-feature-settings:normal;text-align:start;writing-mode:lr-tb;text-anchor:start;fill:#0066ff;fill-opacity:1;stroke:#0066ff;stroke-width:28.29129028;stroke-linejoin:round;stroke-miterlimit:4;stroke-dasharray:none;stroke-opacity:1"
         d="M 511.49356,308.85831 Q 508.0323,332.30835 508.0323,341.26437 508.0323,345.80727 508.76781,351.47509 L 498.12444,352.68653 Q 497.86484,349.09547 497.86484,344.33624 H 497.21585 Q 492.41335,353.11919 482.93815,353.11919 477.48666,353.11919 474.71765,349.0522 471.94865,344.94196 471.94865,337.84637 471.94865,327.63565 479.0875,319.45842 486.22635,311.23792 501.28284,310.84853 L 503.18653,309.50729 Z M 500.41752,317.68452 Q 491.37498,317.77105 487.13493,322.96295 482.89488,328.15484 482.89488,336.98106 482.89488,344.98522 487.91371,344.98522 491.80763,344.98522 495.05257,339.31741 498.34076,333.64959 499.20608,328.50097 500.07139,323.30907 500.41752,317.68452 Z" />
      <path
         id="path882"
         style="font-style:italic;font-variant:normal;font-weight:bold;font-stretch:normal;font-size:88.60829163px;font-family:Candara;-inkscape-font-specification:'Candara, Bold Italic';font-variant-ligatures:normal;font-variant-caps:normal;font-variant-numeric:normal;font-feature-settings:normal;text-align:start;writing-mode:lr-tb;text-anchor:start;fill:#0066ff;fill-opacity:1;stroke:#0066ff;stroke-width:28.29129028;stroke-linejoin:round;stroke-miterlimit:4;stroke-dasharray:none;stroke-opacity:1"
         d="M 548.52905,310.32934 545.11106,320.4968 Q 542.21225,319.63148 539.05385,319.63148 531.22274,319.63148 530.31416,328.24137 528.92966,341.30763 528.19414,351.90775 L 517.33443,352.3404 Q 520.36304,329.92874 520.36304,322.05437 520.36304,317.51146 519.67078,310.97833 L 530.40069,309.89669 Q 530.66029,312.75223 530.66029,315.60777 H 531.30928 Q 535.72238,309.3775 542.03919,309.3775 545.02452,309.3775 548.52905,310.32934 Z" />
      <path
         id="path884"
         style="font-style:italic;font-variant:normal;font-weight:bold;font-stretch:normal;font-size:88.60829163px;font-family:Candara;-inkscape-font-specification:'Candara, Bold Italic';font-variant-ligatures:normal;font-variant-caps:normal;font-variant-numeric:normal;font-feature-settings:normal;text-align:start;writing-mode:lr-tb;text-anchor:start;fill:#0066ff;fill-opacity:1;stroke:#0066ff;stroke-width:28.29129028;stroke-linejoin:round;stroke-miterlimit:4;stroke-dasharray:none;stroke-opacity:1"
         d="M 576.9114,311.19466 575.74322,319.80455 Q 569.64275,319.54495 565.74883,319.54495 563.93167,331.31324 563.93167,337.02432 563.93167,341.3509 564.88351,342.95173 565.83536,344.55256 568.30151,344.55256 572.1089,344.55256 576.39221,341.87009 L 574.92117,349.74446 Q 571.02725,352.81633 565.22964,352.81633 559.0859,352.81633 556.48996,349.83099 553.89401,346.80238 553.89401,339.66353 553.89401,334.38511 556.0573,319.54495 553.98054,319.54495 550.12989,319.80455 L 551.34133,311.28119 Q 554.62953,311.54078 557.35527,311.54078 557.78793,308.51218 559.2157,299.46964 L 568.8207,298.21493 Q 568.08518,302.32518 566.78721,311.54078 570.24847,311.54078 576.9114,311.19466 Z M 547.05802,310.37261 Z" />
      <path
         id="path886"
         style="font-style:italic;font-variant:normal;font-weight:bold;font-stretch:normal;font-size:88.60829163px;font-family:Candara;-inkscape-font-specification:'Candara, Bold Italic';font-variant-ligatures:normal;font-variant-caps:normal;font-variant-numeric:normal;font-feature-settings:normal;text-align:start;writing-mode:lr-tb;text-anchor:start;fill:#0066ff;fill-opacity:1;stroke:#0066ff;stroke-width:28.29129028;stroke-linejoin:round;stroke-miterlimit:4;stroke-dasharray:none;stroke-opacity:1"
         d="M 622.64328,322.31396 Q 622.64328,326.12135 621.47511,336.59166 620.30693,347.06198 620.30693,351.90775 L 609.14436,352.3404 Q 609.14436,350.26365 610.57213,340.00966 611.9999,329.71241 611.9999,325.47236 611.9999,320.97272 610.70193,319.24209 609.40396,317.51146 606.37535,317.51146 602.61123,317.51146 599.06344,322.66009 595.51565,327.80871 594.78013,335.20716 593.82828,344.5093 593.35236,351.90775 L 582.40612,352.3404 Q 583.1849,346.67259 586.17024,319.76128 587.90087,303.27702 587.90087,291.07608 L 599.79896,290.38382 Q 599.79896,292.28752 598.15486,303.62315 596.55402,314.91551 595.86177,318.46331 H 596.46749 Q 601.52959,309.42076 611.43745,309.42076 622.64328,309.42076 622.64328,322.31396 Z" />
    </g>
    <g
       id="text7453-5-3"
       style="font-style:italic;font-variant:normal;font-weight:bold;font-stretch:normal;font-size:88.60829163px;line-height:1.25;font-family:Candara;-inkscape-font-specification:'Candara, Bold Italic';font-variant-ligatures:normal;font-variant-caps:normal;font-variant-numeric:normal;font-feature-settings:normal;text-align:start;letter-spacing:0px;word-spacing:0px;writing-mode:lr-tb;text-anchor:start;display:inline;fill:#ffffff;fill-opacity:1;stroke:none;stroke-width:23.18520927;stroke-miterlimit:4;stroke-dasharray:none;stroke-opacity:1"
       aria-label="My Cup of Earth">
      <path
         id="path839"
         style="font-style:italic;font-variant:normal;font-weight:bold;font-stretch:normal;font-size:88.60829163px;font-family:Candara;-inkscape-font-specification:'Candara, Bold Italic';font-variant-ligatures:normal;font-variant-caps:normal;font-variant-numeric:normal;font-feature-settings:normal;text-align:start;writing-mode:lr-tb;text-anchor:start;fill:#ffffff;fill-opacity:1;stroke:none;stroke-width:23.18520927;stroke-miterlimit:4;stroke-dasharray:none;stroke-opacity:1"
         d="M 104.05982,295.57572 Q 102.63205,307.90646 102.63205,326.38094 102.63205,338.53862 103.28104,351.90775 H 90.950296 Q 90.950296,333.95245 93.546242,305.09419 H 92.85399 Q 92.205003,307.81993 90.084981,313.9204 87.964958,320.02087 81.60489,334.55817 75.244823,349.0522 74.941962,351.90775 H 65.553291 Q 65.553291,348.48975 62.265092,333.90919 59.02016,319.32862 58.327908,315.00205 57.678921,310.67547 57.159732,305.09419 H 56.510745 Q 55.94829,310.06975 52.962952,329.92874 49.977614,349.78772 49.977614,351.90775 H 38.815046 Q 38.815046,350.73957 44.39633,325.12624 49.977614,299.46964 50.496804,295.57572 H 66.245543 Q 66.245543,301.50313 69.403944,317.03554 72.605611,332.52468 72.605611,338.10597 H 73.254597 Q 73.687255,333.90919 80.739575,316.68941 87.835161,299.46964 88.224553,295.57572 Z" />
      <path
         id="path841"
         style="font-style:italic;font-variant:normal;font-weight:bold;font-stretch:normal;font-size:88.60829163px;font-family:Candara;-inkscape-font-specification:'Candara, Bold Italic';font-variant-ligatures:normal;font-variant-caps:normal;font-variant-numeric:normal;font-feature-settings:normal;text-align:start;writing-mode:lr-tb;text-anchor:start;fill:#ffffff;fill-opacity:1;stroke:none;stroke-width:23.18520927;stroke-miterlimit:4;stroke-dasharray:none;stroke-opacity:1"
         d="M 150.95992,310.32934 Q 150.95992,316.42982 142.35003,332.52468 133.78341,348.57628 132.5287,352.16734 128.72131,362.89725 123.65922,366.96423 118.59712,371.07448 109.81417,371.07448 V 362.72419 Q 115.26566,362.72419 119.20284,359.21966 123.18329,355.7584 123.18329,350.43671 123.18329,344.55256 117.90487,329.92874 112.66971,315.30491 112.66971,310.80527 L 125.13025,310.32934 Q 125.13025,316.25675 127.55314,326.98666 130.01928,337.67331 130.01928,341.56723 H 130.66827 Q 130.84133,340.05293 135.38424,328.63076 139.92715,317.16533 139.92715,310.93506 Z" />
      <path
         id="path843"
         style="font-style:italic;font-variant:normal;font-weight:bold;font-stretch:normal;font-size:88.60829163px;font-family:Candara;-inkscape-font-specification:'Candara, Bold Italic';font-variant-ligatures:normal;font-variant-caps:normal;font-variant-numeric:normal;font-feature-settings:normal;text-align:start;writing-mode:lr-tb;text-anchor:start;fill:#ffffff;fill-opacity:1;stroke:none;stroke-width:23.18520927;stroke-miterlimit:4;stroke-dasharray:none;stroke-opacity:1"
         d="M 214.38753,296.00837 211.92138,306.00277 Q 207.24868,304.35867 202.7923,304.35867 194.09588,304.35867 189.12032,310.762 184.18802,317.16533 184.18802,326.03482 184.18802,333.39 188.34154,338.45209 192.53832,343.51419 200.49922,343.51419 205.60458,343.51419 211.87812,341.65376 L 210.10422,351.60488 Q 203.22496,353.07592 198.42246,353.07592 185.3562,353.07592 178.82307,345.54768 172.3332,337.97617 172.3332,327.37606 172.3332,313.61754 181.67861,304.22887 191.02402,294.79693 204.99886,294.79693 210.01769,294.79693 214.38753,296.00837 Z" />
      <path
         id="path845"
         style="font-style:italic;font-variant:normal;font-weight:bold;font-stretch:normal;font-size:88.60829163px;font-family:Candara;-inkscape-font-specification:'Candara, Bold Italic';font-variant-ligatures:normal;font-variant-caps:normal;font-variant-numeric:normal;font-feature-settings:normal;text-align:start;writing-mode:lr-tb;text-anchor:start;fill:#ffffff;fill-opacity:1;stroke:none;stroke-width:23.18520927;stroke-miterlimit:4;stroke-dasharray:none;stroke-opacity:1"
         d="M 259.25414,309.93995 Q 256.22553,333.90919 256.22553,341.78356 256.22553,346.32646 256.91778,351.56162 L 246.27441,352.77306 Q 246.01481,349.26853 246.01481,344.20644 H 245.40909 Q 240.52006,353.24898 230.6122,353.24898 219.44963,353.24898 219.44963,340.35579 219.44963,336.5484 220.57454,326.12135 221.74272,315.65103 221.74272,310.80527 L 232.99181,309.93995 Q 232.99181,312.01671 231.52078,322.35723 230.04974,332.69774 230.04974,336.93779 230.04974,341.4807 231.26118,343.29786 232.51589,345.11502 235.50123,345.11502 239.26535,345.11502 242.81314,340.00966 246.36094,334.86103 247.09645,327.46259 248.3079,315.4347 248.3079,310.80527 Z" />
      <path
         id="path847"
         style="font-style:italic;font-variant:normal;font-weight:bold;font-stretch:normal;font-size:88.60829163px;font-family:Candara;-inkscape-font-specification:'Candara, Bold Italic';font-variant-ligatures:normal;font-variant-caps:normal;font-variant-numeric:normal;font-feature-settings:normal;text-align:start;writing-mode:lr-tb;text-anchor:start;fill:#ffffff;fill-opacity:1;stroke:none;stroke-width:23.18520927;stroke-miterlimit:4;stroke-dasharray:none;stroke-opacity:1"
         d="M 307.40893,326.16461 Q 307.40893,337.37045 301.39499,345.28808 295.42431,353.16245 285.55972,353.16245 279.32945,353.16245 276.51717,350.22038 H 275.99798 Q 274.87307,360.82049 274.13756,371.46387 L 262.88846,371.6802 Q 268.33994,331.78916 268.33994,320.75639 268.33994,316.64614 267.64769,311.10813 L 278.29107,309.89669 Q 278.68046,313.22815 278.68046,318.46331 H 279.19965 Q 284.30501,309.42076 294.16961,309.42076 300.57294,309.42076 303.99093,314.00693 307.40893,318.54984 307.40893,326.16461 Z M 296.50596,328.41443 Q 296.50596,317.51146 289.45364,317.51146 285.25686,317.51146 281.62253,323.13601 277.98821,328.71729 277.29596,335.20716 L 276.43064,343.25459 Q 279.58904,345.20155 283.39643,345.20155 289.97283,345.20155 293.21776,340.22599 296.50596,335.20716 296.50596,328.41443 Z" />
      <path
         id="path849"
         style="font-style:italic;font-variant:normal;font-weight:bold;font-stretch:normal;font-size:88.60829163px;font-family:Candara;-inkscape-font-specification:'Candara, Bold Italic';font-variant-ligatures:normal;font-variant-caps:normal;font-variant-numeric:normal;font-feature-settings:normal;text-align:start;writing-mode:lr-tb;text-anchor:start;fill:#ffffff;fill-opacity:1;stroke:none;stroke-width:23.18520927;stroke-miterlimit:4;stroke-dasharray:none;stroke-opacity:1"
         d="M 373.64881,328.1981 Q 373.64881,338.75495 366.89935,346.19666 360.19316,353.59511 349.63631,353.59511 342.28113,353.59511 337.00271,348.23016 331.72428,342.82193 331.72428,333.95245 331.72428,323.43887 338.47374,316.17022 345.2232,308.90157 355.82331,308.90157 363.22176,308.90157 368.41365,314.13673 373.64881,319.32862 373.64881,328.1981 Z M 362.70257,329.14995 Q 362.70257,323.785 360.36622,320.367 358.07313,316.90574 354.09268,316.90574 348.98732,316.90574 345.78566,322.05437 342.62726,327.20299 342.62726,333.39 342.62726,338.75495 344.96361,342.21621 347.29996,345.63421 351.32367,345.63421 356.55883,345.63421 359.6307,340.57211 362.70257,335.46675 362.70257,329.14995 Z" />
      <path
         id="path851"
         style="font-style:italic;font-variant:normal;font-weight:bold;font-stretch:normal;font-size:88.60829163px;font-family:Candara;-inkscape-font-specification:'Candara, Bold Italic';font-variant-ligatures:normal;font-variant-caps:normal;font-variant-numeric:normal;font-feature-settings:normal;text-align:start;writing-mode:lr-tb;text-anchor:start;fill:#ffffff;fill-opacity:1;stroke:none;stroke-width:23.18520927;stroke-miterlimit:4;stroke-dasharray:none;stroke-opacity:1"
         d="M 409.86226,290.38382 408.0451,297.82554 Q 405.75201,297.60921 403.28586,297.60921 400.34379,297.60921 398.91602,300.46475 397.48825,303.32029 396.62293,311.54078 400.30052,311.54078 406.74712,311.19466 L 405.53568,319.80455 Q 399.26215,319.54495 395.80088,319.54495 394.84904,333.39 393.2482,351.30202 391.64737,369.17079 378.58111,371.6802 L 376.24476,365.57973 Q 379.61949,362.98378 381.22032,357.83516 382.86442,352.68653 384.0326,341.52396 385.24404,330.36139 386.15262,319.54495 383.72973,319.54495 378.9705,319.80455 L 380.22521,311.23792 Q 384.50852,311.54078 387.01793,311.54078 389.31102,289.7781 403.19933,289.7781 407.35284,289.7781 409.86226,290.38382 Z M 376.41782,310.37261 Z" />
      <path
         id="path853"
         style="font-style:italic;font-variant:normal;font-weight:bold;font-stretch:normal;font-size:88.60829163px;font-family:Candara;-inkscape-font-specification:'Candara, Bold Italic';font-variant-ligatures:normal;font-variant-caps:normal;font-variant-numeric:normal;font-feature-settings:normal;text-align:start;writing-mode:lr-tb;text-anchor:start;fill:#ffffff;fill-opacity:1;stroke:none;stroke-width:23.18520927;stroke-miterlimit:4;stroke-dasharray:none;stroke-opacity:1"
         d="M 467.8384,295.57572 466.49716,305.05092 Q 454.33948,304.35867 444.30182,304.35867 443.99896,308.9881 443.17691,318.54984 451.74354,318.54984 461.56486,318.07392 L 460.56975,327.11646 Q 451.09455,326.6838 442.3116,326.6838 441.40302,335.46675 440.84056,343.12479 452.08966,343.12479 464.98286,342.38928 L 463.59836,351.90775 H 428.63962 Q 429.5482,345.98034 432.27394,322.44376 433.91804,306.69502 434.13437,295.57572 Z" />
      <path
         id="path855"
         style="font-style:italic;font-variant:normal;font-weight:bold;font-stretch:normal;font-size:88.60829163px;font-family:Candara;-inkscape-font-specification:'Candara, Bold Italic';font-variant-ligatures:normal;font-variant-caps:normal;font-variant-numeric:normal;font-feature-settings:normal;text-align:start;writing-mode:lr-tb;text-anchor:start;fill:#ffffff;fill-opacity:1;stroke:none;stroke-width:23.18520927;stroke-miterlimit:4;stroke-dasharray:none;stroke-opacity:1"
         d="M 511.49356,308.85831 Q 508.0323,332.30835 508.0323,341.26437 508.0323,345.80727 508.76781,351.47509 L 498.12444,352.68653 Q 497.86484,349.09547 497.86484,344.33624 H 497.21585 Q 492.41335,353.11919 482.93815,353.11919 477.48666,353.11919 474.71765,349.0522 471.94865,344.94196 471.94865,337.84637 471.94865,327.63565 479.0875,319.45842 486.22635,311.23792 501.28284,310.84853 L 503.18653,309.50729 Z M 500.41752,317.68452 Q 491.37498,317.77105 487.13493,322.96295 482.89488,328.15484 482.89488,336.98106 482.89488,344.98522 487.91371,344.98522 491.80763,344.98522 495.05257,339.31741 498.34076,333.64959 499.20608,328.50097 500.07139,323.30907 500.41752,317.68452 Z" />
      <path
         id="path857"
         style="font-style:italic;font-variant:normal;font-weight:bold;font-stretch:normal;font-size:88.60829163px;font-family:Candara;-inkscape-font-specification:'Candara, Bold Italic';font-variant-ligatures:normal;font-variant-caps:normal;font-variant-numeric:normal;font-feature-settings:normal;text-align:start;writing-mode:lr-tb;text-anchor:start;fill:#ffffff;fill-opacity:1;stroke:none;stroke-width:23.18520927;stroke-miterlimit:4;stroke-dasharray:none;stroke-opacity:1"
         d="M 548.52905,310.32934 545.11106,320.4968 Q 542.21225,319.63148 539.05385,319.63148 531.22274,319.63148 530.31416,328.24137 528.92966,341.30763 528.19414,351.90775 L 517.33443,352.3404 Q 520.36304,329.92874 520.36304,322.05437 520.36304,317.51146 519.67078,310.97833 L 530.40069,309.89669 Q 530.66029,312.75223 530.66029,315.60777 H 531.30928 Q 535.72238,309.3775 542.03919,309.3775 545.02452,309.3775 548.52905,310.32934 Z" />
      <path
         id="path859"
         style="font-style:italic;font-variant:normal;font-weight:bold;font-stretch:normal;font-size:88.60829163px;font-family:Candara;-inkscape-font-specification:'Candara, Bold Italic';font-variant-ligatures:normal;font-variant-caps:normal;font-variant-numeric:normal;font-feature-settings:normal;text-align:start;writing-mode:lr-tb;text-anchor:start;fill:#ffffff;fill-opacity:1;stroke:none;stroke-width:23.18520927;stroke-miterlimit:4;stroke-dasharray:none;stroke-opacity:1"
         d="M 576.9114,311.19466 575.74322,319.80455 Q 569.64275,319.54495 565.74883,319.54495 563.93167,331.31324 563.93167,337.02432 563.93167,341.3509 564.88351,342.95173 565.83536,344.55256 568.30151,344.55256 572.1089,344.55256 576.39221,341.87009 L 574.92117,349.74446 Q 571.02725,352.81633 565.22964,352.81633 559.0859,352.81633 556.48996,349.83099 553.89401,346.80238 553.89401,339.66353 553.89401,334.38511 556.0573,319.54495 553.98054,319.54495 550.12989,319.80455 L 551.34133,311.28119 Q 554.62953,311.54078 557.35527,311.54078 557.78793,308.51218 559.2157,299.46964 L 568.8207,298.21493 Q 568.08518,302.32518 566.78721,311.54078 570.24847,311.54078 576.9114,311.19466 Z M 547.05802,310.37261 Z" />
      <path
         id="path861"
         style="font-style:italic;font-variant:normal;font-weight:bold;font-stretch:normal;font-size:88.60829163px;font-family:Candara;-inkscape-font-specification:'Candara, Bold Italic';font-variant-ligatures:normal;font-variant-caps:normal;font-variant-numeric:normal;font-feature-settings:normal;text-align:start;writing-mode:lr-tb;text-anchor:start;fill:#ffffff;fill-opacity:1;stroke:none;stroke-width:23.18520927;stroke-miterlimit:4;stroke-dasharray:none;stroke-opacity:1"
         d="M 622.64328,322.31396 Q 622.64328,326.12135 621.47511,336.59166 620.30693,347.06198 620.30693,351.90775 L 609.14436,352.3404 Q 609.14436,350.26365 610.57213,340.00966 611.9999,329.71241 611.9999,325.47236 611.9999,320.97272 610.70193,319.24209 609.40396,317.51146 606.37535,317.51146 602.61123,317.51146 599.06344,322.66009 595.51565,327.80871 594.78013,335.20716 593.82828,344.5093 593.35236,351.90775 L 582.40612,352.3404 Q 583.1849,346.67259 586.17024,319.76128 587.90087,303.27702 587.90087,291.07608 L 599.79896,290.38382 Q 599.79896,292.28752 598.15486,303.62315 596.55402,314.91551 595.86177,318.46331 H 596.46749 Q 601.52959,309.42076 611.43745,309.42076 622.64328,309.42076 622.64328,322.31396 Z" />
    </g>
  </g>
</svg>
