<?xml version="1.0" encoding="UTF-8" standalone="no"?>
<!-- Created with Inkscape (http://www.inkscape.org/) -->

<svg
   xmlns:dc="http://purl.org/dc/elements/1.1/"
   xmlns:cc="http://creativecommons.org/ns#"
   xmlns:rdf="http://www.w3.org/1999/02/22-rdf-syntax-ns#"
   xmlns:svg="http://www.w3.org/2000/svg"
   xmlns="http://www.w3.org/2000/svg"
   xmlns:sodipodi="http://sodipodi.sourceforge.net/DTD/sodipodi-0.dtd"
   xmlns:inkscape="http://www.inkscape.org/namespaces/inkscape"
   width="2500"
   height="2500"
   viewBox="0 0 661.45833 661.45833"
   version="1.1"
   id="svg6766"
   inkscape:version="0.92.4 (5da689c313, 2019-01-14)"
   sodipodi:docname="logo.svg">
  <defs
     id="defs6760">
    <inkscape:path-effect
       effect="bend_path"
       id="path-effect7870"
       is_visible="true"
       bendpath="m 162.43212,173.69345 -0.33073,0.022 -0.2701,0.20395 -0.29214,0.36931 -0.20946,0.46302 0.5457,0.29214 c 0,0 0.46853,0.0165 0.57327,-0.0937 0.10473,-0.11024 0.34726,-0.47956 0.33624,-0.65044 -0.011,-0.17087 -0.18191,-0.36931 -0.19844,-0.39136 -0.0165,-0.022 -0.15434,-0.21497 -0.15434,-0.21497 z"
       prop_scale="1"
       scale_y_rel="false"
       vertical="false" />
    <inkscape:path-effect
       effect="bend_path"
       id="path-effect6818"
       is_visible="true"
       bendpath="m -187.47169,-170.00002 c 40.96125,-28.34526 81.26928,-28.06309 120.943393,0"
       prop_scale="2.5"
       scale_y_rel="false"
       vertical="false"
       bendpath-nodetypes="cc" />
    <inkscape:path-effect
       effect="bend_path"
       id="path-effect6818-9"
       is_visible="true"
       bendpath="m -187.47169,-170.00002 c 40.96125,-28.34526 81.26928,-28.06309 120.943393,0"
       prop_scale="2.5"
       scale_y_rel="false"
       vertical="false"
       bendpath-nodetypes="cc" />
  </defs>
  <sodipodi:namedview
     id="base"
     pagecolor="#ffffff"
     bordercolor="#666666"
     borderopacity="1.0"
     inkscape:pageopacity="0.0"
     inkscape:pageshadow="2"
     inkscape:zoom="0.1767767"
     inkscape:cx="1214.6604"
     inkscape:cy="1659.5276"
     inkscape:document-units="px"
     inkscape:current-layer="g7455"
     showgrid="false"
     units="px"
     inkscape:pagecheckerboard="false"
     showborder="true"
     borderlayer="false"
     objecttolerance="20"
     guidetolerance="10000"
     inkscape:snap-perpendicular="false"
     showguides="true"
     inkscape:guide-bbox="true"
     inkscape:window-width="958"
     inkscape:window-height="1008"
     inkscape:window-x="953"
     inkscape:window-y="0"
     inkscape:window-maximized="0"
     gridtolerance="10000" />
  <metadata
     id="metadata6763">
    <rdf:RDF>
      <cc:Work
         rdf:about="">
        <dc:format>image/svg+xml</dc:format>
        <dc:type
           rdf:resource="http://purl.org/dc/dcmitype/StillImage" />
        <dc:title></dc:title>
      </cc:Work>
    </rdf:RDF>
  </metadata>
  <g
     style="display:inline"
     transform="translate(0,364.45832)"
     id="g7455"
     inkscape:groupmode="layer"
     inkscape:label="Layer 1">
    <circle
       r="322.1618"
       cy="-33.729156"
       cx="330.72916"
       id="circle7435"
       style="fill:#0066ff;fill-opacity:1;fill-rule:evenodd;stroke-width:1.15057778" />
    <ellipse
       ry="237.84268"
       rx="238.36328"
       cy="-33.729156"
       cx="330.72916"
       id="ellipse7437"
       style="opacity:1;vector-effect:none;fill:#0066ff;fill-opacity:1;fill-rule:evenodd;stroke:#ffffff;stroke-width:22.88289261;stroke-linecap:butt;stroke-linejoin:miter;stroke-miterlimit:4;stroke-dasharray:none;stroke-dashoffset:0;stroke-opacity:1" />
    <rect
       transform="rotate(-90)"
       y="319.03232"
       x="-196.89877"
       height="23.393667"
       width="461.25586"
       id="rect7439"
       style="fill:#ffffff;fill-opacity:1;stroke:#ffffff;stroke-width:0;stroke-miterlimit:4;stroke-dasharray:none;stroke-opacity:1" />
    <path
       inkscape:connector-curvature="0"
       id="path7441"
       d="M 458.64632,-33.729193 A 127.91714,232.93774 0 0 1 330.72919,199.20859 127.91714,232.93774 0 0 1 202.81201,-33.729193 127.91714,232.93774 0 0 1 330.72919,-266.6669 127.91714,232.93774 0 0 1 458.64632,-33.729193 Z"
       style="opacity:1;vector-effect:none;fill:none;fill-opacity:1;fill-rule:evenodd;stroke:#ffffff;stroke-width:22.41729355;stroke-linecap:butt;stroke-linejoin:miter;stroke-miterlimit:4;stroke-dasharray:none;stroke-dashoffset:0;stroke-opacity:1" />
    <path
       inkscape:connector-curvature="0"
       inkscape:original-d="m -187.47169,-172.50002 h 120.943393 v 5 H -187.47169 Z"
       inkscape:path-effect="#path-effect6818"
       id="path7443"
       d="m -191.12003,-175.07568 c 9.86606,-6.85652 20.62251,-12.70264 32.2003,-16.73421 10.35064,-3.59741 21.32624,-5.6001 32.41335,-5.59325 l 10e-6,0 c 11.00861,0.0304 21.91099,2.04913 32.184082,5.68448 11.276386,3.99977 21.740225,9.77244 31.311822,16.55131 l -7.211471,10.21039 c -8.83842,-6.22389 -18.285606,-11.47104 -28.261861,-14.97476 -9.044432,-3.18492 -18.566932,-4.96598 -28.044452,-4.97144 l 0,0 c -9.54775,-0.0293 -19.15153,1.74368 -28.29788,4.90396 -10.2794,3.54417 -20.02715,8.87801 -29.17421,15.1974 z"
       style="fill:#ffffff;fill-opacity:1;stroke:#ffffff;stroke-width:0;stroke-miterlimit:4;stroke-dasharray:none;stroke-opacity:1"
       transform="matrix(-3.0803722,0,0,-1.4799863,-60.6791,-422.32492)" />
    <path
       inkscape:connector-curvature="0"
       inkscape:original-d="m -187.47169,-172.50002 h 120.943393 v 5 H -187.47169 Z"
       inkscape:path-effect="#path-effect6818-9"
       id="path7445"
       d="m -191.12003,-175.07568 c 9.86606,-6.85652 20.62251,-12.70264 32.2003,-16.73421 10.35064,-3.59741 21.32624,-5.6001 32.41335,-5.59325 l 10e-6,0 c 11.00861,0.0304 21.91099,2.04913 32.184082,5.68448 11.276386,3.99977 21.740225,9.77244 31.311822,16.55131 l -7.211471,10.21039 c -8.83842,-6.22389 -18.285606,-11.47104 -28.261861,-14.97476 -9.044432,-3.18492 -18.566932,-4.96598 -28.044452,-4.97144 l 0,0 c -9.54775,-0.0293 -19.15153,1.74368 -28.29788,4.90396 -10.2794,3.54417 -20.02715,8.87801 -29.17421,15.1974 z"
       style="fill:#ffffff;fill-opacity:1;stroke:#ffffff;stroke-width:0;stroke-miterlimit:4;stroke-dasharray:none;stroke-opacity:1"
       transform="matrix(3.0803722,0,0,1.4799866,722.13743,354.2497)" />
    <text
       id="text7453"
       y="-12.550562"
       x="37.733402"
       style="font-style:italic;font-variant:normal;font-weight:bold;font-stretch:normal;font-size:88.60829163px;line-height:1.25;font-family:Candara;-inkscape-font-specification:'Candara, Bold Italic';font-variant-ligatures:normal;font-variant-caps:normal;font-variant-numeric:normal;font-feature-settings:normal;text-align:start;letter-spacing:0px;word-spacing:0px;writing-mode:lr-tb;text-anchor:start;fill:none;fill-opacity:1;stroke:#ffffff;stroke-width:37.72171783;stroke-linejoin:round;stroke-miterlimit:4;stroke-dasharray:none;stroke-opacity:1"
       xml:space="preserve"><tspan
         style="font-style:italic;font-variant:normal;font-weight:bold;font-stretch:normal;font-size:88.60829163px;font-family:Candara;-inkscape-font-specification:'Candara, Bold Italic';font-variant-ligatures:normal;font-variant-caps:normal;font-variant-numeric:normal;font-feature-settings:normal;text-align:start;writing-mode:lr-tb;text-anchor:start;fill:none;fill-opacity:1;stroke:#ffffff;stroke-width:37.72171783;stroke-linejoin:round;stroke-miterlimit:4;stroke-dasharray:none;stroke-opacity:1"
         y="-12.550562"
         x="37.733402"
         id="tspan7451"
         sodipodi:role="line">My Cup of Earth</tspan></text>
    <text
       xml:space="preserve"
       style="font-style:italic;font-variant:normal;font-weight:bold;font-stretch:normal;font-size:88.60829163px;line-height:1.25;font-family:Candara;-inkscape-font-specification:'Candara, Bold Italic';font-variant-ligatures:normal;font-variant-caps:normal;font-variant-numeric:normal;font-feature-settings:normal;text-align:start;letter-spacing:0px;word-spacing:0px;writing-mode:lr-tb;text-anchor:start;display:inline;fill:#0066ff;fill-opacity:1;stroke:#0066ff;stroke-width:28.29129028;stroke-linejoin:round;stroke-miterlimit:4;stroke-dasharray:none;stroke-opacity:1"
       x="37.733402"
       y="-12.550562"
       id="text6840-9"><tspan
         sodipodi:role="line"
         id="tspan6838-14"
         x="37.733402"
         y="-12.550562"
         style="font-style:italic;font-variant:normal;font-weight:bold;font-stretch:normal;font-size:88.60829163px;font-family:Candara;-inkscape-font-specification:'Candara, Bold Italic';font-variant-ligatures:normal;font-variant-caps:normal;font-variant-numeric:normal;font-feature-settings:normal;text-align:start;writing-mode:lr-tb;text-anchor:start;fill:#0066ff;fill-opacity:1;stroke:#0066ff;stroke-width:28.29129028;stroke-linejoin:round;stroke-miterlimit:4;stroke-dasharray:none;stroke-opacity:1">My Cup of Earth</tspan></text>
    <text
       id="text7453-5"
       y="-12.550562"
       x="37.733402"
       style="font-style:italic;font-variant:normal;font-weight:bold;font-stretch:normal;font-size:88.60829163px;line-height:1.25;font-family:Candara;-inkscape-font-specification:'Candara, Bold Italic';font-variant-ligatures:normal;font-variant-caps:normal;font-variant-numeric:normal;font-feature-settings:normal;text-align:start;letter-spacing:0px;word-spacing:0px;writing-mode:lr-tb;text-anchor:start;display:inline;fill:#ffffff;fill-opacity:1;stroke:none;stroke-width:23.18520927;stroke-miterlimit:4;stroke-dasharray:none;stroke-opacity:1"
       xml:space="preserve"><tspan
         style="font-style:italic;font-variant:normal;font-weight:bold;font-stretch:normal;font-size:88.60829163px;font-family:Candara;-inkscape-font-specification:'Candara, Bold Italic';font-variant-ligatures:normal;font-variant-caps:normal;font-variant-numeric:normal;font-feature-settings:normal;text-align:start;writing-mode:lr-tb;text-anchor:start;fill:#ffffff;fill-opacity:1;stroke:none;stroke-width:23.18520927;stroke-miterlimit:4;stroke-dasharray:none;stroke-opacity:1"
         y="-12.550562"
         x="37.733402"
         id="tspan7451-4"
         sodipodi:role="line">My Cup of Earth</tspan></text>
  </g>
  <g
     inkscape:groupmode="layer"
     id="layer7"
     inkscape:label="mousee 4"
     style="display:inline"
     transform="translate(0,407.45833)"
     sodipodi:insensitive="true">
    <path
       style="fill:#0165ff;fill-opacity:1;stroke:#0066ff;stroke-width:1.06651855;stroke-linecap:butt;stroke-linejoin:miter;stroke-miterlimit:4;stroke-dasharray:none;stroke-opacity:1"
       d="M 358.27603,5.1267281 411.06595,207.23689 608.14859,47.358638 437.20965,-35.596982 Z"
       id="path7873"
       inkscape:connector-curvature="0" />
  </g>
  <g
     inkscape:groupmode="layer"
     id="layer6"
     inkscape:label="mousee 3"
     style="display:inline"
     transform="translate(0,407.45833)">
    <path
       style="display:inline;fill:#ffffff;fill-opacity:1;stroke:none;stroke-width:0.94304299px;stroke-linecap:butt;stroke-linejoin:miter;stroke-opacity:1"
       d="M 370.73995,-18.706298 416.41612,142.8377 c 3.94509,12.86826 4.46747,16.20536 6.68441,16.03107 2.91591,-0.24594 32.37329,-58.3894 32.37329,-58.3894 0.99831,-1.415124 1.19833,-1.991102 2.2211,-3.013122 0.27445,-0.19533 0.36109,-0.28265 0.90151,-0.35657 1.15909,-0.8679 8.09058,7.560002 11.42323,11.628172 0.0927,-10e-5 0.0901,0.003 0,0 l 46.81509,59.11952 c 1.6902,1.97343 2.75011,2.72095 4.69234,2.96226 1.88379,0.0285 3.62863,-1.60278 5.03915,-2.8179 l 25.61931,-21.69105 c 0.76802,-0.80271 1.19688,-1.86877 1.08232,-2.60854 -0.21457,-1.04112 -2.60184,-3.95978 -3.53407,-5.18439 L 494.14319,69.910048 c -0.29868,-0.416131 -0.84462,-1.291012 -0.9436,-1.65079 -0.16431,-0.820274 0.0424,-1.154643 0.86469,-1.571833 1.96312,-1.145662 6.70943,-2.079315 7.93817,-2.516017 l 56.97494,-15.479813 c 2.56491,-0.777932 3.00085,-1.776746 3.17165,-2.316799 0.0514,-0.392605 0.0396,-0.439934 -0.0285,-0.670546 -0.37229,-0.879441 -8.98122,-5.167707 -15.80774,-8.719347 -1.18475,-0.60083 -2.31922,-1.26229 -2.504,-1.34647 l -137.36305,-73.63759 c -0.10618,0.15183 -0.33647,4.95956 -2.1253,3.43224 -1.31599,2.21073 -6.04287,7.560989 -9.98968,11.521499 -3.72768,2.58551 -10.08011,4.17851 -13.7204,5.31185 -2.98678,0.67303 -6.67538,-1.07623 -9.13115,-0.75662 z"
       id="path7816-2"
       inkscape:connector-curvature="0"
       sodipodi:nodetypes="ccccccccccccccccccccccccccccc" />
  </g>
</svg>
