<?xml version="1.0" encoding="UTF-8" standalone="no"?>
<!-- Created with Inkscape (http://www.inkscape.org/) -->

<svg
   xmlns:dc="http://purl.org/dc/elements/1.1/"
   xmlns:cc="http://creativecommons.org/ns#"
   xmlns:rdf="http://www.w3.org/1999/02/22-rdf-syntax-ns#"
   xmlns:svg="http://www.w3.org/2000/svg"
   xmlns="http://www.w3.org/2000/svg"
   xmlns:sodipodi="http://sodipodi.sourceforge.net/DTD/sodipodi-0.dtd"
   xmlns:inkscape="http://www.inkscape.org/namespaces/inkscape"
   width="7559.0552"
   height="7559.0552"
   viewBox="0 0 2000 2000"
   version="1.1"
   id="svg4549"
   inkscape:version="0.92.4 (5da689c313, 2019-01-14)"
   sodipodi:docname="logo2.svg">
  <defs
     id="defs4543">
    <inkscape:path-effect
       effect="bend_path"
       id="path-effect6818-9"
       is_visible="true"
       bendpath="m -187.47169,-170.00002 c 40.96125,-28.34526 81.26928,-28.06309 120.943393,0"
       prop_scale="2.5"
       scale_y_rel="false"
       vertical="false"
       bendpath-nodetypes="cc" />
    <inkscape:path-effect
       effect="bend_path"
       id="path-effect6818"
       is_visible="true"
       bendpath="m -187.47169,-170.00002 c 40.96125,-28.34526 81.26928,-28.06309 120.943393,0"
       prop_scale="2.5"
       scale_y_rel="false"
       vertical="false"
       bendpath-nodetypes="cc" />
  </defs>
  <sodipodi:namedview
     id="base"
     pagecolor="#ffffff"
     bordercolor="#666666"
     borderopacity="1.0"
     inkscape:pageopacity="0.0"
     inkscape:pageshadow="2"
     inkscape:zoom="0.08"
     inkscape:cx="2847.3684"
     inkscape:cy="3869.6122"
     inkscape:document-units="mm"
     inkscape:current-layer="layer1"
     showgrid="false"
     units="px"
     inkscape:window-width="1920"
     inkscape:window-height="1017"
     inkscape:window-x="-8"
     inkscape:window-y="-8"
     inkscape:window-maximized="1" />
  <metadata
     id="metadata4546">
    <rdf:RDF>
      <cc:Work
         rdf:about="">
        <dc:format>image/svg+xml</dc:format>
        <dc:type
           rdf:resource="http://purl.org/dc/dcmitype/StillImage" />
        <dc:title></dc:title>
      </cc:Work>
    </rdf:RDF>
  </metadata>
  <g
     inkscape:label="Layer 1"
     inkscape:groupmode="layer"
     id="layer1"
     transform="translate(0,1703)"
     sodipodi:insensitive="true">
    <g
       id="g5168"
       transform="matrix(3.0685856,0,0,3.0685856,-2501.3041,1968.1238)">
      <circle
         style="display:inline;fill:#0066ff;fill-opacity:1;fill-rule:evenodd;stroke-width:1.15057778"
         id="circle7435"
         cx="1141.0156"
         cy="-870.47394"
         r="322.1618" />
      <ellipse
         style="display:inline;opacity:1;vector-effect:none;fill:#0066ff;fill-opacity:1;fill-rule:evenodd;stroke:#ffffff;stroke-width:22.88289261;stroke-linecap:butt;stroke-linejoin:miter;stroke-miterlimit:4;stroke-dasharray:none;stroke-dashoffset:0;stroke-opacity:1"
         id="ellipse7437"
         cx="1141.0156"
         cy="-870.47394"
         rx="238.36328"
         ry="237.84268" />
      <rect
         style="display:inline;fill:#ffffff;fill-opacity:1;stroke:#ffffff;stroke-width:0;stroke-miterlimit:4;stroke-dasharray:none;stroke-opacity:1"
         id="rect7439"
         width="461.25586"
         height="23.393667"
         x="639.84601"
         y="1129.3188"
         transform="rotate(-90)" />
      <path
         style="display:inline;opacity:1;vector-effect:none;fill:none;fill-opacity:1;fill-rule:evenodd;stroke:#ffffff;stroke-width:22.41729355;stroke-linecap:butt;stroke-linejoin:miter;stroke-miterlimit:4;stroke-dasharray:none;stroke-dashoffset:0;stroke-opacity:1"
         d="m 1268.9328,-870.47389 a 127.91714,232.93774 0 0 1 -127.9171,232.9378 127.91714,232.93774 0 0 1 -127.9172,-232.9378 127.91714,232.93774 0 0 1 127.9172,-232.93771 127.91714,232.93774 0 0 1 127.9171,232.93771 z"
         id="path7441"
         inkscape:connector-curvature="0" />
      <path
         transform="matrix(-3.0803723,0,0,-1.4799863,749.60737,-1259.0697)"
         style="display:inline;fill:#ffffff;fill-opacity:1;stroke:#ffffff;stroke-width:0;stroke-miterlimit:4;stroke-dasharray:none;stroke-opacity:1"
         d="m -191.12003,-175.07568 c 9.86606,-6.85652 20.62251,-12.70264 32.2003,-16.73421 10.35064,-3.59741 21.32624,-5.6001 32.41335,-5.59325 l 10e-6,0 c 11.00861,0.0304 21.91099,2.04913 32.184082,5.68448 11.276386,3.99977 21.740225,9.77244 31.311822,16.55131 l -7.211471,10.21039 c -8.83842,-6.22389 -18.285606,-11.47104 -28.261861,-14.97476 -9.044432,-3.18492 -18.566932,-4.96598 -28.044452,-4.97144 l 0,0 c -9.54775,-0.0293 -19.15153,1.74368 -28.29788,4.90396 -10.2794,3.54417 -20.02715,8.87801 -29.17421,15.1974 z"
         id="path7443"
         inkscape:path-effect="#path-effect6818"
         inkscape:original-d="m -187.47169,-172.50002 h 120.943393 v 5 H -187.47169 Z"
         inkscape:connector-curvature="0" />
      <path
         transform="matrix(3.0803723,0,0,1.4799866,1532.4239,-482.49503)"
         style="display:inline;fill:#ffffff;fill-opacity:1;stroke:#ffffff;stroke-width:0;stroke-miterlimit:4;stroke-dasharray:none;stroke-opacity:1"
         d="m -191.12003,-175.07568 c 9.86606,-6.85652 20.62251,-12.70264 32.2003,-16.73421 10.35064,-3.59741 21.32624,-5.6001 32.41335,-5.59325 l 10e-6,0 c 11.00861,0.0304 21.91099,2.04913 32.184082,5.68448 11.276386,3.99977 21.740225,9.77244 31.311822,16.55131 l -7.211471,10.21039 c -8.83842,-6.22389 -18.285606,-11.47104 -28.261861,-14.97476 -9.044432,-3.18492 -18.566932,-4.96598 -28.044452,-4.97144 l 0,0 c -9.54775,-0.0293 -19.15153,1.74368 -28.29788,4.90396 -10.2794,3.54417 -20.02715,8.87801 -29.17421,15.1974 z"
         id="path7445"
         inkscape:path-effect="#path-effect6818-9"
         inkscape:original-d="m -187.47169,-172.50002 h 120.943393 v 5 H -187.47169 Z"
         inkscape:connector-curvature="0" />
      <path
         inkscape:connector-curvature="0"
         id="path7873"
         d="m 1168.5625,-788.61799 52.7899,202.1102 197.0827,-159.8783 -170.939,-82.9556 z"
         style="display:inline;fill:#0165ff;fill-opacity:1;stroke:#0066ff;stroke-width:1.06651855;stroke-linecap:butt;stroke-linejoin:miter;stroke-miterlimit:4;stroke-dasharray:none;stroke-opacity:1" />
      <path
         sodipodi:nodetypes="ccccccccccccccccccccccccccccc"
         inkscape:connector-curvature="0"
         id="path7816-2"
         d="m 1181.0264,-812.45099 45.6762,161.544 c 3.9451,12.8682 4.4675,16.2053 6.6844,16.031 2.9159,-0.2459 32.3733,-58.3894 32.3733,-58.3894 0.9983,-1.4151 1.1983,-1.9911 2.2211,-3.0131 0.2744,-0.1953 0.3611,-0.2826 0.9015,-0.3566 1.1591,-0.8678 8.0906,7.5601 11.4232,11.6282 0.093,-10e-5 0.09,0 0,0 l 46.8151,59.1195 c 1.6902,1.9735 2.7501,2.721 4.6924,2.9623 1.8838,0.028 3.6286,-1.6028 5.0391,-2.8179 l 25.6193,-21.691 c 0.768,-0.8028 1.1969,-1.8688 1.0823,-2.6086 -0.2145,-1.0411 -2.6018,-3.9598 -3.534,-5.1844 l -55.5906,-68.6077 c -0.2987,-0.4161 -0.8447,-1.291 -0.9436,-1.6508 -0.1643,-0.8202 0.042,-1.1546 0.8646,-1.5718 1.9632,-1.1457 6.7095,-2.0793 7.9382,-2.516 l 56.975,-15.4798 c 2.5649,-0.778 3.0008,-1.7768 3.1716,-2.3168 0.051,-0.3926 0.04,-0.44 -0.029,-0.6706 -0.3723,-0.8794 -8.9812,-5.1677 -15.8077,-8.7193 -1.1848,-0.6009 -2.3193,-1.2623 -2.504,-1.3465 l -137.3631,-73.6376 c -0.1062,0.1518 -0.3364,4.9596 -2.1253,3.4323 -1.316,2.2107 -6.0428,7.561 -9.9897,11.5214 -3.7276,2.5856 -10.0801,4.1786 -13.7204,5.3119 -2.9868,0.673 -6.6753,-1.0762 -9.1311,-0.7566 z"
         style="display:inline;fill:#ffffff;fill-opacity:1;stroke:none;stroke-width:0.94304299px;stroke-linecap:butt;stroke-linejoin:miter;stroke-opacity:1" />
      <text
         xml:space="preserve"
         style="font-style:italic;font-variant:normal;font-weight:bold;font-stretch:normal;font-size:88.60829163px;line-height:1.25;font-family:Candara;-inkscape-font-specification:'Candara, Bold Italic';font-variant-ligatures:normal;font-variant-caps:normal;font-variant-numeric:normal;font-feature-settings:normal;text-align:start;letter-spacing:0px;word-spacing:0px;writing-mode:lr-tb;text-anchor:start;display:inline;fill:none;fill-opacity:1;stroke:#ffffff;stroke-width:37.72171783;stroke-linejoin:round;stroke-miterlimit:4;stroke-dasharray:none;stroke-opacity:1"
         x="848.0199"
         y="-849.29535"
         id="text7453-1"><tspan
           sodipodi:role="line"
           id="tspan7451-49"
           x="848.0199"
           y="-849.29535"
           style="font-style:italic;font-variant:normal;font-weight:bold;font-stretch:normal;font-size:88.60829163px;font-family:Candara;-inkscape-font-specification:'Candara, Bold Italic';font-variant-ligatures:normal;font-variant-caps:normal;font-variant-numeric:normal;font-feature-settings:normal;text-align:start;writing-mode:lr-tb;text-anchor:start;fill:none;fill-opacity:1;stroke:#ffffff;stroke-width:37.72171783;stroke-linejoin:round;stroke-miterlimit:4;stroke-dasharray:none;stroke-opacity:1">My Cup of Earth</tspan></text>
      <text
         id="text6840-9-0"
         y="-849.29535"
         x="848.0199"
         style="font-style:italic;font-variant:normal;font-weight:bold;font-stretch:normal;font-size:88.60829163px;line-height:1.25;font-family:Candara;-inkscape-font-specification:'Candara, Bold Italic';font-variant-ligatures:normal;font-variant-caps:normal;font-variant-numeric:normal;font-feature-settings:normal;text-align:start;letter-spacing:0px;word-spacing:0px;writing-mode:lr-tb;text-anchor:start;display:inline;fill:#0066ff;fill-opacity:1;stroke:#0066ff;stroke-width:28.29129028;stroke-linejoin:round;stroke-miterlimit:4;stroke-dasharray:none;stroke-opacity:1"
         xml:space="preserve"><tspan
           style="font-style:italic;font-variant:normal;font-weight:bold;font-stretch:normal;font-size:88.60829163px;font-family:Candara;-inkscape-font-specification:'Candara, Bold Italic';font-variant-ligatures:normal;font-variant-caps:normal;font-variant-numeric:normal;font-feature-settings:normal;text-align:start;writing-mode:lr-tb;text-anchor:start;fill:#0066ff;fill-opacity:1;stroke:#0066ff;stroke-width:28.29129028;stroke-linejoin:round;stroke-miterlimit:4;stroke-dasharray:none;stroke-opacity:1"
           y="-849.29535"
           x="848.0199"
           id="tspan6838-14-4"
           sodipodi:role="line">My Cup of Earth</tspan></text>
      <text
         xml:space="preserve"
         style="font-style:italic;font-variant:normal;font-weight:bold;font-stretch:normal;font-size:88.60829163px;line-height:1.25;font-family:Candara;-inkscape-font-specification:'Candara, Bold Italic';font-variant-ligatures:normal;font-variant-caps:normal;font-variant-numeric:normal;font-feature-settings:normal;text-align:start;letter-spacing:0px;word-spacing:0px;writing-mode:lr-tb;text-anchor:start;display:inline;fill:#ffffff;fill-opacity:1;stroke:none;stroke-width:23.18520927;stroke-miterlimit:4;stroke-dasharray:none;stroke-opacity:1"
         x="848.0199"
         y="-849.29535"
         id="text7453-5-3"><tspan
           sodipodi:role="line"
           id="tspan7451-4-7"
           x="848.0199"
           y="-849.29535"
           style="font-style:italic;font-variant:normal;font-weight:bold;font-stretch:normal;font-size:88.60829163px;font-family:Candara;-inkscape-font-specification:'Candara, Bold Italic';font-variant-ligatures:normal;font-variant-caps:normal;font-variant-numeric:normal;font-feature-settings:normal;text-align:start;writing-mode:lr-tb;text-anchor:start;fill:#ffffff;fill-opacity:1;stroke:none;stroke-width:23.18520927;stroke-miterlimit:4;stroke-dasharray:none;stroke-opacity:1">My Cup of Earth</tspan></text>
    </g>
  </g>
</svg>
