<?xml version="1.0" encoding="UTF-8" standalone="no"?>
<svg
   xmlns:dc="http://purl.org/dc/elements/1.1/"
   xmlns:cc="http://creativecommons.org/ns#"
   xmlns:rdf="http://www.w3.org/1999/02/22-rdf-syntax-ns#"
   xmlns:svg="http://www.w3.org/2000/svg"
   xmlns="http://www.w3.org/2000/svg"
   id="svg907"
   version="1.1"
   viewBox="0 0 2000 2000"
   height="2000mm"
   width="2000mm">
  <defs
     id="defs901" />
  <metadata
     id="metadata904">
    <rdf:RDF>
      <cc:Work
         rdf:about="">
        <dc:format>image/svg+xml</dc:format>
        <dc:type
           rdf:resource="http://purl.org/dc/dcmitype/StillImage" />
        <dc:title></dc:title>
      </cc:Work>
    </rdf:RDF>
  </metadata>
  <g
     transform="translate(0,1703)"
     id="layer1">
    <g
       id="g2251">
      <g
         transform="matrix(3.0671492,0,0,3.0671492,-14.395668,-599.54764)"
         style="display:inline"
         id="g899">
        <path
           style="fill:#0066ff;fill-opacity:1;fill-rule:evenodd;stroke-width:1.15057778"
           d="M 652.89096,-33.729156 A 322.1618,322.1618 0 0 1 330.72916,288.43265 322.1618,322.1618 0 0 1 8.5673523,-33.729156 322.1618,322.1618 0 0 1 330.72916,-355.89096 322.1618,322.1618 0 0 1 652.89096,-33.729156 Z"
           id="circle7435" />
        <path
           style="opacity:1;vector-effect:none;fill:#0066ff;fill-opacity:1;fill-rule:evenodd;stroke:#ffffff;stroke-width:22.88289261;stroke-linecap:butt;stroke-linejoin:miter;stroke-miterlimit:4;stroke-dasharray:none;stroke-dashoffset:0;stroke-opacity:1"
           d="M 569.09244,-33.729156 A 238.36328,237.84268 0 0 1 330.72916,204.11353 238.36328,237.84268 0 0 1 92.365875,-33.729156 238.36328,237.84268 0 0 1 330.72916,-271.57184 238.36328,237.84268 0 0 1 569.09244,-33.729156 Z"
           id="ellipse7437" />
        <path
           transform="rotate(-90)"
           style="fill:#ffffff;fill-opacity:1;stroke:#ffffff;stroke-width:0;stroke-miterlimit:4;stroke-dasharray:none;stroke-opacity:1"
           d="M -196.89877,319.03232 H 264.35709 V 342.42599 H -196.89877 Z"
           id="rect7439" />
        <path
           style="opacity:1;vector-effect:none;fill:none;fill-opacity:1;fill-rule:evenodd;stroke:#ffffff;stroke-width:22.41729355;stroke-linecap:butt;stroke-linejoin:miter;stroke-miterlimit:4;stroke-dasharray:none;stroke-dashoffset:0;stroke-opacity:1"
           d="M 458.64632,-33.729193 A 127.91714,232.93774 0 0 1 330.72919,199.20859 127.91714,232.93774 0 0 1 202.81201,-33.729193 127.91714,232.93774 0 0 1 330.72919,-266.6669 127.91714,232.93774 0 0 1 458.64632,-33.729193 Z"
           id="path7441" />
        <path
           transform="matrix(-3.0803722,0,0,-1.4799863,-60.6791,-422.32492)"
           style="fill:#ffffff;fill-opacity:1;stroke:#ffffff;stroke-width:0;stroke-miterlimit:4;stroke-dasharray:none;stroke-opacity:1"
           d="M -191.12003,-175.07568 C -181.25397,-181.9322 -170.49752,-187.77832 -158.91973,-191.80989 -148.56909,-195.4073 -137.59349,-197.40999 -126.50638,-197.40314 H -126.50637 C -115.49776,-197.37276 -104.59538,-195.35401 -94.322288,-191.71866 -83.045902,-187.71889 -72.582063,-181.94622 -63.010466,-175.16735 L -70.221937,-164.95696 C -79.060357,-171.18085 -88.507543,-176.428 -98.483798,-179.93172 -107.52823,-183.11664 -117.05073,-184.8977 -126.52825,-184.90316 V -184.90316 C -136.076,-184.93242 -145.67978,-183.15948 -154.82613,-179.9992 -165.10553,-176.45503 -174.85328,-171.12119 -184.00034,-164.8018 Z"
           id="path7443" />
        <path
           transform="matrix(3.0803722,0,0,1.4799866,722.13743,354.2497)"
           style="fill:#ffffff;fill-opacity:1;stroke:#ffffff;stroke-width:0;stroke-miterlimit:4;stroke-dasharray:none;stroke-opacity:1"
           d="M -191.12003,-175.07568 C -181.25397,-181.9322 -170.49752,-187.77832 -158.91973,-191.80989 -148.56909,-195.4073 -137.59349,-197.40999 -126.50638,-197.40314 H -126.50637 C -115.49776,-197.37276 -104.59538,-195.35401 -94.322288,-191.71866 -83.045902,-187.71889 -72.582063,-181.94622 -63.010466,-175.16735 L -70.221937,-164.95696 C -79.060357,-171.18085 -88.507543,-176.428 -98.483798,-179.93172 -107.52823,-183.11664 -117.05073,-184.8977 -126.52825,-184.90316 V -184.90316 C -136.076,-184.93242 -145.67978,-183.15948 -154.82613,-179.9992 -165.10553,-176.45503 -174.85328,-171.12119 -184.00034,-164.8018 Z"
           id="path7445" />
      </g>
      <path
         style="display:inline;fill:#0165ff;fill-opacity:1;stroke:#0066ff;stroke-width:3.27117157;stroke-linecap:butt;stroke-linejoin:miter;stroke-miterlimit:4;stroke-dasharray:none;stroke-opacity:1"
         d="M 1077.4343,-464.87027 1239.3488,155.03187 1843.8358,-335.33868 1319.5355,-589.77595 Z"
         id="path7873" />
      <path
         style="display:inline;fill:#ffffff;fill-opacity:1;stroke:none;stroke-width:2.89245367px;stroke-linecap:butt;stroke-linejoin:miter;stroke-opacity:1"
         d="M 1116.988,-528.17571 1257.0836,-32.69615 C 1269.1838,6.7725521 1270.786,17.00792 1277.5858,16.47333 1286.5293,15.71912 1376.8794,-162.61575 1376.8794,-162.61575 1379.9414,-166.95607 1380.5549,-168.72275 1383.6919,-171.85742 1384.5336,-172.45638 1384.7994,-172.72422 1386.4569,-172.95121 1390.012,-175.61318 1411.2718,-149.76348 1421.4937,-137.28571 1421.778,-137.286 1421.7701,-137.2765 1421.4937,-137.28571 L 1565.0827,44.0427 C 1570.2668,50.09572 1573.5176,52.38841 1579.4745,53.12851 1585.2525,53.21593 1590.6042,48.21249 1594.9306,44.4856 L 1673.5089,-22.044239 C 1675.8645,-24.50624 1677.1796,-27.77582 1676.8284,-30.0449 1676.1702,-33.23811 1668.848,-42.1902 1665.9888,-45.94623 L 1495.4841,-256.37641 C 1494.568,-257.65262 1492.8936,-260.3361 1492.59,-261.43963 1492.0859,-263.95553 1492.7201,-264.98093 1495.2422,-266.26055 1501.2631,-269.77461 1515.8209,-272.63805 1519.5898,-273.97754 L 1694.3402,-321.45639 C 1702.2072,-323.84263 1703.5442,-326.90612 1704.0679,-328.56234 1704.2257,-329.76676 1704.1894,-329.9119 1703.9807,-330.61917 1702.8392,-333.31642 1676.434,-346.46923 1655.4961,-357.36251 1651.8625,-359.20566 1648.3827,-361.23417 1647.816,-361.49241 L 1226.503,-587.35 C 1226.1775,-586.8844 1225.4711,-572.1382 1219.9844,-576.823 1215.9481,-570.0421 1201.4501,-553.63217 1189.3446,-541.48479 1177.9112,-533.55458 1158.4275,-528.66868 1147.2622,-525.19236 1138.1012,-523.12812 1126.7877,-528.49322 1119.2555,-527.513 Z"
         id="path7816-2" />
      <g
         aria-label="My Cup of Earth"
         style="font-style:italic;font-variant:normal;font-weight:bold;font-stretch:normal;font-size:271.77484131px;line-height:1.25;font-family:Candara;-inkscape-font-specification:'Candara, Bold Italic';font-variant-ligatures:normal;font-variant-caps:normal;font-variant-numeric:normal;font-feature-settings:normal;text-align:start;letter-spacing:0px;word-spacing:0px;writing-mode:lr-tb;text-anchor:start;display:inline;fill:none;fill-opacity:1;stroke:#ffffff;stroke-width:115.69814301;stroke-linejoin:round;stroke-miterlimit:4;stroke-dasharray:none;stroke-opacity:1"
         id="text7453-1">
        <path
           d="M 304.7713,-810.82085 Q 300.39211,-773.00062 300.39211,-716.33662 300.39211,-679.04721 302.38265,-638.04211 H 264.56242 Q 264.56242,-693.11368 272.52457,-781.62628 H 270.40133 Q 268.41079,-773.26602 261.90837,-754.55496 255.40594,-735.8439 235.89867,-691.25584 216.39139,-646.80048 215.46247,-638.04211 H 186.66602 Q 186.66602,-648.52562 176.58062,-693.24638 166.62793,-737.96714 164.50469,-751.2374 162.51415,-764.50765 160.92172,-781.62628 H 158.93118 Q 157.20605,-766.36549 148.04957,-705.45501 138.8931,-644.54454 138.8931,-638.04211 H 104.65584 Q 104.65584,-641.62508 121.77447,-720.185 138.8931,-798.87762 140.48553,-810.82085 H 188.78926 Q 188.78926,-792.6406 198.47655,-745.00038 208.29653,-697.49286 208.29653,-680.37423 H 210.28707 Q 211.6141,-693.24638 233.24462,-746.062 255.00784,-798.87762 256.20216,-810.82085 Z"
           style="font-style:italic;font-variant:normal;font-weight:bold;font-stretch:normal;font-size:271.77484131px;font-family:Candara;-inkscape-font-specification:'Candara, Bold Italic';font-variant-ligatures:normal;font-variant-caps:normal;font-variant-numeric:normal;font-feature-settings:normal;text-align:start;writing-mode:lr-tb;text-anchor:start;fill:none;fill-opacity:1;stroke:#ffffff;stroke-width:115.69814301;stroke-linejoin:round;stroke-miterlimit:4;stroke-dasharray:none;stroke-opacity:1"
           id="path2173" />
        <path
           d="M 448.62088,-765.56927 Q 448.62088,-746.85821 422.21307,-697.49286 395.93796,-648.26021 392.08959,-637.2459 380.41176,-604.33566 364.88556,-591.86162 349.35936,-579.25488 322.42074,-579.25488 V -604.86647 Q 339.14126,-604.86647 351.2172,-615.61538 363.42583,-626.23159 363.42583,-642.554 363.42583,-660.60155 347.23612,-705.45501 331.17911,-750.30848 331.17911,-764.10955 L 369.39745,-765.56927 Q 369.39745,-747.38902 376.82879,-714.47879 384.39284,-681.70126 384.39284,-669.75803 H 386.38338 Q 386.91419,-674.40262 400.84795,-709.43609 414.78172,-744.60227 414.78172,-763.71144 Z"
           style="font-style:italic;font-variant:normal;font-weight:bold;font-stretch:normal;font-size:271.77484131px;font-family:Candara;-inkscape-font-specification:'Candara, Bold Italic';font-variant-ligatures:normal;font-variant-caps:normal;font-variant-numeric:normal;font-feature-settings:normal;text-align:start;writing-mode:lr-tb;text-anchor:start;fill:none;fill-opacity:1;stroke:#ffffff;stroke-width:115.69814301;stroke-linejoin:round;stroke-miterlimit:4;stroke-dasharray:none;stroke-opacity:1"
           id="path2175" />
        <path
           d="M 643.16283,-809.49382 635.59879,-778.83953 Q 621.26691,-783.88223 607.59855,-783.88223 580.92533,-783.88223 565.66454,-764.24225 550.53645,-744.60227 550.53645,-717.39824 550.53645,-694.83881 563.27589,-679.31261 576.14804,-663.78641 600.56531,-663.78641 616.22421,-663.78641 635.46608,-669.49262 L 630.02528,-638.97103 Q 608.92557,-634.45915 594.19559,-634.45915 554.11942,-634.45915 534.08133,-657.54939 514.17594,-680.77234 514.17594,-713.28447 514.17594,-755.48388 542.8397,-784.28033 571.50345,-813.20949 614.36638,-813.20949 629.75987,-813.20949 643.16283,-809.49382 Z"
           style="font-style:italic;font-variant:normal;font-weight:bold;font-stretch:normal;font-size:271.77484131px;font-family:Candara;-inkscape-font-specification:'Candara, Bold Italic';font-variant-ligatures:normal;font-variant-caps:normal;font-variant-numeric:normal;font-feature-settings:normal;text-align:start;writing-mode:lr-tb;text-anchor:start;fill:none;fill-opacity:1;stroke:#ffffff;stroke-width:115.69814301;stroke-linejoin:round;stroke-miterlimit:4;stroke-dasharray:none;stroke-opacity:1"
           id="path2177" />
        <path
           d="M 780.7754,-766.7636 Q 771.48622,-693.24638 771.48622,-669.09451 771.48622,-655.16074 773.60946,-639.10373 L 740.96463,-635.38806 Q 740.16842,-646.13697 740.16842,-661.66317 H 738.31058 Q 723.31519,-633.92833 692.92631,-633.92833 658.68905,-633.92833 658.68905,-673.4737 658.68905,-685.15152 662.13931,-717.13284 665.72228,-749.24686 665.72228,-764.10955 L 700.22495,-766.7636 Q 700.22495,-760.39387 695.71306,-728.67796 691.20117,-696.96205 691.20117,-683.9572 691.20117,-670.02343 694.91684,-664.44992 698.76522,-658.87642 707.9217,-658.87642 719.46682,-658.87642 730.34843,-674.53532 741.23004,-690.32692 743.48598,-713.01906 747.20165,-749.91037 747.20165,-764.10955 Z"
           style="font-style:italic;font-variant:normal;font-weight:bold;font-stretch:normal;font-size:271.77484131px;font-family:Candara;-inkscape-font-specification:'Candara, Bold Italic';font-variant-ligatures:normal;font-variant-caps:normal;font-variant-numeric:normal;font-feature-settings:normal;text-align:start;writing-mode:lr-tb;text-anchor:start;fill:none;fill-opacity:1;stroke:#ffffff;stroke-width:115.69814301;stroke-linejoin:round;stroke-miterlimit:4;stroke-dasharray:none;stroke-opacity:1"
           id="path2179" />
        <path
           d="M 928.47334,-717.00014 Q 928.47334,-682.63017 910.02768,-658.34561 891.71473,-634.19374 861.45854,-634.19374 842.34937,-634.19374 833.72371,-643.21751 H 832.13128 Q 828.68101,-610.70539 826.42507,-578.06056 L 791.9224,-577.39704 Q 808.64292,-699.7488 808.64292,-733.58796 808.64292,-746.1947 806.51968,-763.18063 L 839.16451,-766.8963 Q 840.35884,-756.6782 840.35884,-740.62119 H 841.95127 Q 857.61017,-768.35603 887.86635,-768.35603 907.50633,-768.35603 917.98983,-754.28956 928.47334,-740.35579 928.47334,-717.00014 Z M 895.03229,-710.0996 Q 895.03229,-743.54065 873.40177,-743.54065 860.52963,-743.54065 849.38261,-726.28932 838.2356,-709.17069 836.11235,-689.2653 L 833.4583,-664.58263 Q 843.14559,-658.61101 854.82342,-658.61101 874.9942,-658.61101 884.9469,-673.87181 895.03229,-689.2653 895.03229,-710.0996 Z"
           style="font-style:italic;font-variant:normal;font-weight:bold;font-stretch:normal;font-size:271.77484131px;font-family:Candara;-inkscape-font-specification:'Candara, Bold Italic';font-variant-ligatures:normal;font-variant-caps:normal;font-variant-numeric:normal;font-feature-settings:normal;text-align:start;writing-mode:lr-tb;text-anchor:start;fill:none;fill-opacity:1;stroke:#ffffff;stroke-width:115.69814301;stroke-linejoin:round;stroke-miterlimit:4;stroke-dasharray:none;stroke-opacity:1"
           id="path2181" />
        <path
           d="M 1131.641,-710.76312 Q 1131.641,-678.38369 1110.9394,-655.55885 1090.3705,-632.86671 1057.991,-632.86671 1035.4316,-632.86671 1019.2419,-649.32183 1003.0522,-665.90965 1003.0522,-693.11368 1003.0522,-725.3604 1023.7538,-747.65443 1044.4554,-769.94846 1076.9675,-769.94846 1099.6596,-769.94846 1115.5839,-753.89145 1131.641,-737.96714 1131.641,-710.76312 Z M 1098.0672,-707.84366 Q 1098.0672,-724.29878 1090.9013,-734.78228 1083.868,-745.39848 1071.6594,-745.39848 1056.0005,-745.39848 1046.1805,-729.60688 1036.4932,-713.81528 1036.4932,-694.83881 1036.4932,-678.38369 1043.6592,-667.76749 1050.8251,-657.28399 1063.1664,-657.28399 1079.2234,-657.28399 1088.6453,-672.81018 1098.0672,-688.46909 1098.0672,-707.84366 Z"
           style="font-style:italic;font-variant:normal;font-weight:bold;font-stretch:normal;font-size:271.77484131px;font-family:Candara;-inkscape-font-specification:'Candara, Bold Italic';font-variant-ligatures:normal;font-variant-caps:normal;font-variant-numeric:normal;font-feature-settings:normal;text-align:start;writing-mode:lr-tb;text-anchor:start;fill:none;fill-opacity:1;stroke:#ffffff;stroke-width:115.69814301;stroke-linejoin:round;stroke-miterlimit:4;stroke-dasharray:none;stroke-opacity:1"
           id="path2183" />
        <path
           d="M 1242.713,-826.74515 1237.1395,-803.92031 Q 1230.1063,-804.58383 1222.5422,-804.58383 1213.5184,-804.58383 1209.1393,-795.82546 1204.7601,-787.06709 1202.106,-761.8536 1213.3857,-761.8536 1233.1584,-762.91522 L 1229.4427,-736.50741 Q 1210.2009,-737.30363 1199.5847,-737.30363 1196.6652,-694.83881 1191.7552,-639.89995 1186.8452,-585.09379 1146.7691,-577.39704 L 1139.6031,-596.10811 Q 1149.9539,-604.07026 1154.8639,-619.86186 1159.9066,-635.65347 1163.4896,-669.89073 1167.2052,-704.12799 1169.992,-737.30363 1162.5607,-737.30363 1147.9634,-736.50741 L 1151.8118,-762.78252 Q 1164.9493,-761.8536 1172.6461,-761.8536 1179.6793,-828.60299 1222.2768,-828.60299 1235.0163,-828.60299 1242.713,-826.74515 Z M 1140.1339,-765.43657 Z"
           style="font-style:italic;font-variant:normal;font-weight:bold;font-stretch:normal;font-size:271.77484131px;font-family:Candara;-inkscape-font-specification:'Candara, Bold Italic';font-variant-ligatures:normal;font-variant-caps:normal;font-variant-numeric:normal;font-feature-settings:normal;text-align:start;writing-mode:lr-tb;text-anchor:start;fill:none;fill-opacity:1;stroke:#ffffff;stroke-width:115.69814301;stroke-linejoin:round;stroke-miterlimit:4;stroke-dasharray:none;stroke-opacity:1"
           id="path2185" />
        <path
           d="M 1420.5345,-810.82085 1416.4207,-781.75899 Q 1379.1313,-783.88223 1348.3443,-783.88223 1347.4154,-769.68305 1344.894,-740.35579 1371.1691,-740.35579 1401.2926,-741.81552 L 1398.2404,-714.08068 Q 1369.1786,-715.40771 1342.24,-715.40771 1339.4532,-688.46909 1337.7281,-664.98073 1372.2307,-664.98073 1411.7761,-667.23668 L 1407.5296,-638.04211 H 1300.306 Q 1303.0927,-656.22236 1311.453,-728.41256 1316.4957,-776.71629 1317.1592,-810.82085 Z"
           style="font-style:italic;font-variant:normal;font-weight:bold;font-stretch:normal;font-size:271.77484131px;font-family:Candara;-inkscape-font-specification:'Candara, Bold Italic';font-variant-ligatures:normal;font-variant-caps:normal;font-variant-numeric:normal;font-feature-settings:normal;text-align:start;writing-mode:lr-tb;text-anchor:start;fill:none;fill-opacity:1;stroke:#ffffff;stroke-width:115.69814301;stroke-linejoin:round;stroke-miterlimit:4;stroke-dasharray:none;stroke-opacity:1"
           id="path2187" />
        <path
           d="M 1554.4313,-770.08116 Q 1543.8151,-698.15637 1543.8151,-670.68694 1543.8151,-656.75318 1546.071,-639.36914 L 1513.4262,-635.65347 Q 1512.63,-646.66778 1512.63,-661.26506 H 1510.6394 Q 1495.9095,-634.32644 1466.8476,-634.32644 1450.1271,-634.32644 1441.6341,-646.80048 1433.1411,-659.40723 1433.1411,-681.17045 1433.1411,-712.48825 1455.0371,-737.56903 1476.933,-762.78252 1523.1135,-763.97684 L 1528.9524,-768.09062 Z M 1520.4594,-743.00984 Q 1492.7246,-742.74443 1479.7197,-726.82013 1466.7149,-710.89582 1466.7149,-683.8245 1466.7149,-659.27452 1482.1084,-659.27452 1494.0516,-659.27452 1504.0043,-676.65856 1514.0897,-694.04259 1516.7438,-709.8342 1519.3978,-725.75851 1520.4594,-743.00984 Z"
           style="font-style:italic;font-variant:normal;font-weight:bold;font-stretch:normal;font-size:271.77484131px;font-family:Candara;-inkscape-font-specification:'Candara, Bold Italic';font-variant-ligatures:normal;font-variant-caps:normal;font-variant-numeric:normal;font-feature-settings:normal;text-align:start;writing-mode:lr-tb;text-anchor:start;fill:none;fill-opacity:1;stroke:#ffffff;stroke-width:115.69814301;stroke-linejoin:round;stroke-miterlimit:4;stroke-dasharray:none;stroke-opacity:1"
           id="path2189" />
        <path
           d="M 1668.0247,-765.56927 1657.5412,-734.38417 Q 1648.6502,-737.03822 1638.9629,-737.03822 1614.9437,-737.03822 1612.157,-710.63041 1607.9105,-670.55424 1605.6545,-638.04211 L 1572.3462,-636.71509 Q 1581.6354,-705.45501 1581.6354,-729.60688 1581.6354,-743.54065 1579.5121,-763.57874 L 1612.4224,-766.8963 Q 1613.2186,-758.13793 1613.2186,-749.37956 H 1615.2091 Q 1628.7448,-768.48873 1648.1194,-768.48873 1657.2758,-768.48873 1668.0247,-765.56927 Z"
           style="font-style:italic;font-variant:normal;font-weight:bold;font-stretch:normal;font-size:271.77484131px;font-family:Candara;-inkscape-font-specification:'Candara, Bold Italic';font-variant-ligatures:normal;font-variant-caps:normal;font-variant-numeric:normal;font-feature-settings:normal;text-align:start;writing-mode:lr-tb;text-anchor:start;fill:none;fill-opacity:1;stroke:#ffffff;stroke-width:115.69814301;stroke-linejoin:round;stroke-miterlimit:4;stroke-dasharray:none;stroke-opacity:1"
           id="path2191" />
        <path
           d="M 1755.0776,-762.91522 1751.4946,-736.50741 Q 1732.7836,-737.30363 1720.8403,-737.30363 1715.2668,-701.20853 1715.2668,-683.69179 1715.2668,-670.42154 1718.1863,-665.51154 1721.1057,-660.60155 1728.6698,-660.60155 1740.3476,-660.60155 1753.4852,-668.82911 L 1748.9733,-644.67724 Q 1737.0301,-635.25536 1719.2479,-635.25536 1700.4041,-635.25536 1692.442,-644.41184 1684.4798,-653.70102 1684.4798,-675.59694 1684.4798,-691.78665 1691.115,-737.30363 1684.7452,-737.30363 1672.9347,-736.50741 L 1676.6504,-762.64982 Q 1686.7358,-761.8536 1695.096,-761.8536 1696.4231,-771.14278 1700.8023,-798.87762 L 1730.2622,-802.72599 Q 1728.0063,-790.11925 1724.0252,-761.8536 1734.6414,-761.8536 1755.0776,-762.91522 Z M 1663.5128,-765.43657 Z"
           style="font-style:italic;font-variant:normal;font-weight:bold;font-stretch:normal;font-size:271.77484131px;font-family:Candara;-inkscape-font-specification:'Candara, Bold Italic';font-variant-ligatures:normal;font-variant-caps:normal;font-variant-numeric:normal;font-feature-settings:normal;text-align:start;writing-mode:lr-tb;text-anchor:start;fill:none;fill-opacity:1;stroke:#ffffff;stroke-width:115.69814301;stroke-linejoin:round;stroke-miterlimit:4;stroke-dasharray:none;stroke-opacity:1"
           id="path2193" />
        <path
           d="M 1895.3442,-728.81066 Q 1895.3442,-717.13284 1891.7612,-685.01882 1888.1782,-652.9048 1888.1782,-638.04211 L 1853.941,-636.71509 Q 1853.941,-643.08481 1858.3201,-674.53532 1862.6993,-706.11853 1862.6993,-719.12338 1862.6993,-732.92444 1858.7183,-738.23255 1854.7372,-743.54065 1845.448,-743.54065 1833.9029,-743.54065 1823.0213,-727.74904 1812.1397,-711.95744 1809.8837,-689.2653 1806.9643,-660.73425 1805.5045,-638.04211 L 1771.9308,-636.71509 Q 1774.3194,-654.09912 1783.4759,-736.64012 1788.784,-787.19979 1788.784,-824.62191 L 1825.2772,-826.74515 Q 1825.2772,-820.90624 1820.2345,-786.13817 1815.3245,-751.5028 1813.2013,-740.62119 H 1815.0591 Q 1830.5853,-768.35603 1860.9742,-768.35603 1895.3442,-768.35603 1895.3442,-728.81066 Z"
           style="font-style:italic;font-variant:normal;font-weight:bold;font-stretch:normal;font-size:271.77484131px;font-family:Candara;-inkscape-font-specification:'Candara, Bold Italic';font-variant-ligatures:normal;font-variant-caps:normal;font-variant-numeric:normal;font-feature-settings:normal;text-align:start;writing-mode:lr-tb;text-anchor:start;fill:none;fill-opacity:1;stroke:#ffffff;stroke-width:115.69814301;stroke-linejoin:round;stroke-miterlimit:4;stroke-dasharray:none;stroke-opacity:1"
           id="path2195" />
      </g>
      <g
         transform="matrix(3.0671492,0,0,3.0671492,-14.395688,-1717.3956)"
         aria-label="My Cup of Earth"
         style="font-style:italic;font-variant:normal;font-weight:bold;font-stretch:normal;font-size:88.60829163px;line-height:1.25;font-family:Candara;-inkscape-font-specification:'Candara, Bold Italic';font-variant-ligatures:normal;font-variant-caps:normal;font-variant-numeric:normal;font-feature-settings:normal;text-align:start;letter-spacing:0px;word-spacing:0px;writing-mode:lr-tb;text-anchor:start;display:inline;fill:#0066ff;fill-opacity:1;stroke:#0066ff;stroke-width:28.29129028;stroke-linejoin:round;stroke-miterlimit:4;stroke-dasharray:none;stroke-opacity:1"
         id="text6840-9-0">
        <path
           d="M 104.05982,295.57572 Q 102.63205,307.90646 102.63205,326.38094 102.63205,338.53862 103.28104,351.90775 H 90.950296 Q 90.950296,333.95245 93.546242,305.09419 H 92.85399 Q 92.205003,307.81993 90.084981,313.9204 87.964958,320.02087 81.60489,334.55817 75.244823,349.0522 74.941962,351.90775 H 65.553291 Q 65.553291,348.48975 62.265092,333.90919 59.02016,319.32862 58.327908,315.00205 57.678921,310.67547 57.159732,305.09419 H 56.510745 Q 55.94829,310.06975 52.962952,329.92874 49.977614,349.78772 49.977614,351.90775 H 38.815046 Q 38.815046,350.73957 44.39633,325.12624 49.977614,299.46964 50.496804,295.57572 H 66.245543 Q 66.245543,301.50313 69.403944,317.03554 72.605611,332.52468 72.605611,338.10597 H 73.254597 Q 73.687255,333.90919 80.739575,316.68941 87.835161,299.46964 88.224553,295.57572 Z"
           style="font-style:italic;font-variant:normal;font-weight:bold;font-stretch:normal;font-size:88.60829163px;font-family:Candara;-inkscape-font-specification:'Candara, Bold Italic';font-variant-ligatures:normal;font-variant-caps:normal;font-variant-numeric:normal;font-feature-settings:normal;text-align:start;writing-mode:lr-tb;text-anchor:start;fill:#0066ff;fill-opacity:1;stroke:#0066ff;stroke-width:28.29129028;stroke-linejoin:round;stroke-miterlimit:4;stroke-dasharray:none;stroke-opacity:1"
           id="path864" />
        <path
           d="M 150.95992,310.32934 Q 150.95992,316.42982 142.35003,332.52468 133.78341,348.57628 132.5287,352.16734 128.72131,362.89725 123.65922,366.96423 118.59712,371.07448 109.81417,371.07448 V 362.72419 Q 115.26566,362.72419 119.20284,359.21966 123.18329,355.7584 123.18329,350.43671 123.18329,344.55256 117.90487,329.92874 112.66971,315.30491 112.66971,310.80527 L 125.13025,310.32934 Q 125.13025,316.25675 127.55314,326.98666 130.01928,337.67331 130.01928,341.56723 H 130.66827 Q 130.84133,340.05293 135.38424,328.63076 139.92715,317.16533 139.92715,310.93506 Z"
           style="font-style:italic;font-variant:normal;font-weight:bold;font-stretch:normal;font-size:88.60829163px;font-family:Candara;-inkscape-font-specification:'Candara, Bold Italic';font-variant-ligatures:normal;font-variant-caps:normal;font-variant-numeric:normal;font-feature-settings:normal;text-align:start;writing-mode:lr-tb;text-anchor:start;fill:#0066ff;fill-opacity:1;stroke:#0066ff;stroke-width:28.29129028;stroke-linejoin:round;stroke-miterlimit:4;stroke-dasharray:none;stroke-opacity:1"
           id="path866" />
        <path
           d="M 214.38753,296.00837 211.92138,306.00277 Q 207.24868,304.35867 202.7923,304.35867 194.09588,304.35867 189.12032,310.762 184.18802,317.16533 184.18802,326.03482 184.18802,333.39 188.34154,338.45209 192.53832,343.51419 200.49922,343.51419 205.60458,343.51419 211.87812,341.65376 L 210.10422,351.60488 Q 203.22496,353.07592 198.42246,353.07592 185.3562,353.07592 178.82307,345.54768 172.3332,337.97617 172.3332,327.37606 172.3332,313.61754 181.67861,304.22887 191.02402,294.79693 204.99886,294.79693 210.01769,294.79693 214.38753,296.00837 Z"
           style="font-style:italic;font-variant:normal;font-weight:bold;font-stretch:normal;font-size:88.60829163px;font-family:Candara;-inkscape-font-specification:'Candara, Bold Italic';font-variant-ligatures:normal;font-variant-caps:normal;font-variant-numeric:normal;font-feature-settings:normal;text-align:start;writing-mode:lr-tb;text-anchor:start;fill:#0066ff;fill-opacity:1;stroke:#0066ff;stroke-width:28.29129028;stroke-linejoin:round;stroke-miterlimit:4;stroke-dasharray:none;stroke-opacity:1"
           id="path868" />
        <path
           d="M 259.25414,309.93995 Q 256.22553,333.90919 256.22553,341.78356 256.22553,346.32646 256.91778,351.56162 L 246.27441,352.77306 Q 246.01481,349.26853 246.01481,344.20644 H 245.40909 Q 240.52006,353.24898 230.6122,353.24898 219.44963,353.24898 219.44963,340.35579 219.44963,336.5484 220.57454,326.12135 221.74272,315.65103 221.74272,310.80527 L 232.99181,309.93995 Q 232.99181,312.01671 231.52078,322.35723 230.04974,332.69774 230.04974,336.93779 230.04974,341.4807 231.26118,343.29786 232.51589,345.11502 235.50123,345.11502 239.26535,345.11502 242.81314,340.00966 246.36094,334.86103 247.09645,327.46259 248.3079,315.4347 248.3079,310.80527 Z"
           style="font-style:italic;font-variant:normal;font-weight:bold;font-stretch:normal;font-size:88.60829163px;font-family:Candara;-inkscape-font-specification:'Candara, Bold Italic';font-variant-ligatures:normal;font-variant-caps:normal;font-variant-numeric:normal;font-feature-settings:normal;text-align:start;writing-mode:lr-tb;text-anchor:start;fill:#0066ff;fill-opacity:1;stroke:#0066ff;stroke-width:28.29129028;stroke-linejoin:round;stroke-miterlimit:4;stroke-dasharray:none;stroke-opacity:1"
           id="path870" />
        <path
           d="M 307.40893,326.16461 Q 307.40893,337.37045 301.39499,345.28808 295.42431,353.16245 285.55972,353.16245 279.32945,353.16245 276.51717,350.22038 H 275.99798 Q 274.87307,360.82049 274.13756,371.46387 L 262.88846,371.6802 Q 268.33994,331.78916 268.33994,320.75639 268.33994,316.64614 267.64769,311.10813 L 278.29107,309.89669 Q 278.68046,313.22815 278.68046,318.46331 H 279.19965 Q 284.30501,309.42076 294.16961,309.42076 300.57294,309.42076 303.99093,314.00693 307.40893,318.54984 307.40893,326.16461 Z M 296.50596,328.41443 Q 296.50596,317.51146 289.45364,317.51146 285.25686,317.51146 281.62253,323.13601 277.98821,328.71729 277.29596,335.20716 L 276.43064,343.25459 Q 279.58904,345.20155 283.39643,345.20155 289.97283,345.20155 293.21776,340.22599 296.50596,335.20716 296.50596,328.41443 Z"
           style="font-style:italic;font-variant:normal;font-weight:bold;font-stretch:normal;font-size:88.60829163px;font-family:Candara;-inkscape-font-specification:'Candara, Bold Italic';font-variant-ligatures:normal;font-variant-caps:normal;font-variant-numeric:normal;font-feature-settings:normal;text-align:start;writing-mode:lr-tb;text-anchor:start;fill:#0066ff;fill-opacity:1;stroke:#0066ff;stroke-width:28.29129028;stroke-linejoin:round;stroke-miterlimit:4;stroke-dasharray:none;stroke-opacity:1"
           id="path872" />
        <path
           d="M 373.64881,328.1981 Q 373.64881,338.75495 366.89935,346.19666 360.19316,353.59511 349.63631,353.59511 342.28113,353.59511 337.00271,348.23016 331.72428,342.82193 331.72428,333.95245 331.72428,323.43887 338.47374,316.17022 345.2232,308.90157 355.82331,308.90157 363.22176,308.90157 368.41365,314.13673 373.64881,319.32862 373.64881,328.1981 Z M 362.70257,329.14995 Q 362.70257,323.785 360.36622,320.367 358.07313,316.90574 354.09268,316.90574 348.98732,316.90574 345.78566,322.05437 342.62726,327.20299 342.62726,333.39 342.62726,338.75495 344.96361,342.21621 347.29996,345.63421 351.32367,345.63421 356.55883,345.63421 359.6307,340.57211 362.70257,335.46675 362.70257,329.14995 Z"
           style="font-style:italic;font-variant:normal;font-weight:bold;font-stretch:normal;font-size:88.60829163px;font-family:Candara;-inkscape-font-specification:'Candara, Bold Italic';font-variant-ligatures:normal;font-variant-caps:normal;font-variant-numeric:normal;font-feature-settings:normal;text-align:start;writing-mode:lr-tb;text-anchor:start;fill:#0066ff;fill-opacity:1;stroke:#0066ff;stroke-width:28.29129028;stroke-linejoin:round;stroke-miterlimit:4;stroke-dasharray:none;stroke-opacity:1"
           id="path874" />
        <path
           d="M 409.86226,290.38382 408.0451,297.82554 Q 405.75201,297.60921 403.28586,297.60921 400.34379,297.60921 398.91602,300.46475 397.48825,303.32029 396.62293,311.54078 400.30052,311.54078 406.74712,311.19466 L 405.53568,319.80455 Q 399.26215,319.54495 395.80088,319.54495 394.84904,333.39 393.2482,351.30202 391.64737,369.17079 378.58111,371.6802 L 376.24476,365.57973 Q 379.61949,362.98378 381.22032,357.83516 382.86442,352.68653 384.0326,341.52396 385.24404,330.36139 386.15262,319.54495 383.72973,319.54495 378.9705,319.80455 L 380.22521,311.23792 Q 384.50852,311.54078 387.01793,311.54078 389.31102,289.7781 403.19933,289.7781 407.35284,289.7781 409.86226,290.38382 Z M 376.41782,310.37261 Z"
           style="font-style:italic;font-variant:normal;font-weight:bold;font-stretch:normal;font-size:88.60829163px;font-family:Candara;-inkscape-font-specification:'Candara, Bold Italic';font-variant-ligatures:normal;font-variant-caps:normal;font-variant-numeric:normal;font-feature-settings:normal;text-align:start;writing-mode:lr-tb;text-anchor:start;fill:#0066ff;fill-opacity:1;stroke:#0066ff;stroke-width:28.29129028;stroke-linejoin:round;stroke-miterlimit:4;stroke-dasharray:none;stroke-opacity:1"
           id="path876" />
        <path
           d="M 467.8384,295.57572 466.49716,305.05092 Q 454.33948,304.35867 444.30182,304.35867 443.99896,308.9881 443.17691,318.54984 451.74354,318.54984 461.56486,318.07392 L 460.56975,327.11646 Q 451.09455,326.6838 442.3116,326.6838 441.40302,335.46675 440.84056,343.12479 452.08966,343.12479 464.98286,342.38928 L 463.59836,351.90775 H 428.63962 Q 429.5482,345.98034 432.27394,322.44376 433.91804,306.69502 434.13437,295.57572 Z"
           style="font-style:italic;font-variant:normal;font-weight:bold;font-stretch:normal;font-size:88.60829163px;font-family:Candara;-inkscape-font-specification:'Candara, Bold Italic';font-variant-ligatures:normal;font-variant-caps:normal;font-variant-numeric:normal;font-feature-settings:normal;text-align:start;writing-mode:lr-tb;text-anchor:start;fill:#0066ff;fill-opacity:1;stroke:#0066ff;stroke-width:28.29129028;stroke-linejoin:round;stroke-miterlimit:4;stroke-dasharray:none;stroke-opacity:1"
           id="path878" />
        <path
           d="M 511.49356,308.85831 Q 508.0323,332.30835 508.0323,341.26437 508.0323,345.80727 508.76781,351.47509 L 498.12444,352.68653 Q 497.86484,349.09547 497.86484,344.33624 H 497.21585 Q 492.41335,353.11919 482.93815,353.11919 477.48666,353.11919 474.71765,349.0522 471.94865,344.94196 471.94865,337.84637 471.94865,327.63565 479.0875,319.45842 486.22635,311.23792 501.28284,310.84853 L 503.18653,309.50729 Z M 500.41752,317.68452 Q 491.37498,317.77105 487.13493,322.96295 482.89488,328.15484 482.89488,336.98106 482.89488,344.98522 487.91371,344.98522 491.80763,344.98522 495.05257,339.31741 498.34076,333.64959 499.20608,328.50097 500.07139,323.30907 500.41752,317.68452 Z"
           style="font-style:italic;font-variant:normal;font-weight:bold;font-stretch:normal;font-size:88.60829163px;font-family:Candara;-inkscape-font-specification:'Candara, Bold Italic';font-variant-ligatures:normal;font-variant-caps:normal;font-variant-numeric:normal;font-feature-settings:normal;text-align:start;writing-mode:lr-tb;text-anchor:start;fill:#0066ff;fill-opacity:1;stroke:#0066ff;stroke-width:28.29129028;stroke-linejoin:round;stroke-miterlimit:4;stroke-dasharray:none;stroke-opacity:1"
           id="path880" />
        <path
           d="M 548.52905,310.32934 545.11106,320.4968 Q 542.21225,319.63148 539.05385,319.63148 531.22274,319.63148 530.31416,328.24137 528.92966,341.30763 528.19414,351.90775 L 517.33443,352.3404 Q 520.36304,329.92874 520.36304,322.05437 520.36304,317.51146 519.67078,310.97833 L 530.40069,309.89669 Q 530.66029,312.75223 530.66029,315.60777 H 531.30928 Q 535.72238,309.3775 542.03919,309.3775 545.02452,309.3775 548.52905,310.32934 Z"
           style="font-style:italic;font-variant:normal;font-weight:bold;font-stretch:normal;font-size:88.60829163px;font-family:Candara;-inkscape-font-specification:'Candara, Bold Italic';font-variant-ligatures:normal;font-variant-caps:normal;font-variant-numeric:normal;font-feature-settings:normal;text-align:start;writing-mode:lr-tb;text-anchor:start;fill:#0066ff;fill-opacity:1;stroke:#0066ff;stroke-width:28.29129028;stroke-linejoin:round;stroke-miterlimit:4;stroke-dasharray:none;stroke-opacity:1"
           id="path882" />
        <path
           d="M 576.9114,311.19466 575.74322,319.80455 Q 569.64275,319.54495 565.74883,319.54495 563.93167,331.31324 563.93167,337.02432 563.93167,341.3509 564.88351,342.95173 565.83536,344.55256 568.30151,344.55256 572.1089,344.55256 576.39221,341.87009 L 574.92117,349.74446 Q 571.02725,352.81633 565.22964,352.81633 559.0859,352.81633 556.48996,349.83099 553.89401,346.80238 553.89401,339.66353 553.89401,334.38511 556.0573,319.54495 553.98054,319.54495 550.12989,319.80455 L 551.34133,311.28119 Q 554.62953,311.54078 557.35527,311.54078 557.78793,308.51218 559.2157,299.46964 L 568.8207,298.21493 Q 568.08518,302.32518 566.78721,311.54078 570.24847,311.54078 576.9114,311.19466 Z M 547.05802,310.37261 Z"
           style="font-style:italic;font-variant:normal;font-weight:bold;font-stretch:normal;font-size:88.60829163px;font-family:Candara;-inkscape-font-specification:'Candara, Bold Italic';font-variant-ligatures:normal;font-variant-caps:normal;font-variant-numeric:normal;font-feature-settings:normal;text-align:start;writing-mode:lr-tb;text-anchor:start;fill:#0066ff;fill-opacity:1;stroke:#0066ff;stroke-width:28.29129028;stroke-linejoin:round;stroke-miterlimit:4;stroke-dasharray:none;stroke-opacity:1"
           id="path884" />
        <path
           d="M 622.64328,322.31396 Q 622.64328,326.12135 621.47511,336.59166 620.30693,347.06198 620.30693,351.90775 L 609.14436,352.3404 Q 609.14436,350.26365 610.57213,340.00966 611.9999,329.71241 611.9999,325.47236 611.9999,320.97272 610.70193,319.24209 609.40396,317.51146 606.37535,317.51146 602.61123,317.51146 599.06344,322.66009 595.51565,327.80871 594.78013,335.20716 593.82828,344.5093 593.35236,351.90775 L 582.40612,352.3404 Q 583.1849,346.67259 586.17024,319.76128 587.90087,303.27702 587.90087,291.07608 L 599.79896,290.38382 Q 599.79896,292.28752 598.15486,303.62315 596.55402,314.91551 595.86177,318.46331 H 596.46749 Q 601.52959,309.42076 611.43745,309.42076 622.64328,309.42076 622.64328,322.31396 Z"
           style="font-style:italic;font-variant:normal;font-weight:bold;font-stretch:normal;font-size:88.60829163px;font-family:Candara;-inkscape-font-specification:'Candara, Bold Italic';font-variant-ligatures:normal;font-variant-caps:normal;font-variant-numeric:normal;font-feature-settings:normal;text-align:start;writing-mode:lr-tb;text-anchor:start;fill:#0066ff;fill-opacity:1;stroke:#0066ff;stroke-width:28.29129028;stroke-linejoin:round;stroke-miterlimit:4;stroke-dasharray:none;stroke-opacity:1"
           id="path886" />
      </g>
      <g
         transform="matrix(3.0671492,0,0,3.0671492,-14.395688,-1717.3956)"
         aria-label="My Cup of Earth"
         style="font-style:italic;font-variant:normal;font-weight:bold;font-stretch:normal;font-size:88.60829163px;line-height:1.25;font-family:Candara;-inkscape-font-specification:'Candara, Bold Italic';font-variant-ligatures:normal;font-variant-caps:normal;font-variant-numeric:normal;font-feature-settings:normal;text-align:start;letter-spacing:0px;word-spacing:0px;writing-mode:lr-tb;text-anchor:start;display:inline;fill:#ffffff;fill-opacity:1;stroke:none;stroke-width:23.18520927;stroke-miterlimit:4;stroke-dasharray:none;stroke-opacity:1"
         id="text7453-5-3">
        <path
           d="M 104.05982,295.57572 Q 102.63205,307.90646 102.63205,326.38094 102.63205,338.53862 103.28104,351.90775 H 90.950296 Q 90.950296,333.95245 93.546242,305.09419 H 92.85399 Q 92.205003,307.81993 90.084981,313.9204 87.964958,320.02087 81.60489,334.55817 75.244823,349.0522 74.941962,351.90775 H 65.553291 Q 65.553291,348.48975 62.265092,333.90919 59.02016,319.32862 58.327908,315.00205 57.678921,310.67547 57.159732,305.09419 H 56.510745 Q 55.94829,310.06975 52.962952,329.92874 49.977614,349.78772 49.977614,351.90775 H 38.815046 Q 38.815046,350.73957 44.39633,325.12624 49.977614,299.46964 50.496804,295.57572 H 66.245543 Q 66.245543,301.50313 69.403944,317.03554 72.605611,332.52468 72.605611,338.10597 H 73.254597 Q 73.687255,333.90919 80.739575,316.68941 87.835161,299.46964 88.224553,295.57572 Z"
           style="font-style:italic;font-variant:normal;font-weight:bold;font-stretch:normal;font-size:88.60829163px;font-family:Candara;-inkscape-font-specification:'Candara, Bold Italic';font-variant-ligatures:normal;font-variant-caps:normal;font-variant-numeric:normal;font-feature-settings:normal;text-align:start;writing-mode:lr-tb;text-anchor:start;fill:#ffffff;fill-opacity:1;stroke:none;stroke-width:23.18520927;stroke-miterlimit:4;stroke-dasharray:none;stroke-opacity:1"
           id="path839" />
        <path
           d="M 150.95992,310.32934 Q 150.95992,316.42982 142.35003,332.52468 133.78341,348.57628 132.5287,352.16734 128.72131,362.89725 123.65922,366.96423 118.59712,371.07448 109.81417,371.07448 V 362.72419 Q 115.26566,362.72419 119.20284,359.21966 123.18329,355.7584 123.18329,350.43671 123.18329,344.55256 117.90487,329.92874 112.66971,315.30491 112.66971,310.80527 L 125.13025,310.32934 Q 125.13025,316.25675 127.55314,326.98666 130.01928,337.67331 130.01928,341.56723 H 130.66827 Q 130.84133,340.05293 135.38424,328.63076 139.92715,317.16533 139.92715,310.93506 Z"
           style="font-style:italic;font-variant:normal;font-weight:bold;font-stretch:normal;font-size:88.60829163px;font-family:Candara;-inkscape-font-specification:'Candara, Bold Italic';font-variant-ligatures:normal;font-variant-caps:normal;font-variant-numeric:normal;font-feature-settings:normal;text-align:start;writing-mode:lr-tb;text-anchor:start;fill:#ffffff;fill-opacity:1;stroke:none;stroke-width:23.18520927;stroke-miterlimit:4;stroke-dasharray:none;stroke-opacity:1"
           id="path841" />
        <path
           d="M 214.38753,296.00837 211.92138,306.00277 Q 207.24868,304.35867 202.7923,304.35867 194.09588,304.35867 189.12032,310.762 184.18802,317.16533 184.18802,326.03482 184.18802,333.39 188.34154,338.45209 192.53832,343.51419 200.49922,343.51419 205.60458,343.51419 211.87812,341.65376 L 210.10422,351.60488 Q 203.22496,353.07592 198.42246,353.07592 185.3562,353.07592 178.82307,345.54768 172.3332,337.97617 172.3332,327.37606 172.3332,313.61754 181.67861,304.22887 191.02402,294.79693 204.99886,294.79693 210.01769,294.79693 214.38753,296.00837 Z"
           style="font-style:italic;font-variant:normal;font-weight:bold;font-stretch:normal;font-size:88.60829163px;font-family:Candara;-inkscape-font-specification:'Candara, Bold Italic';font-variant-ligatures:normal;font-variant-caps:normal;font-variant-numeric:normal;font-feature-settings:normal;text-align:start;writing-mode:lr-tb;text-anchor:start;fill:#ffffff;fill-opacity:1;stroke:none;stroke-width:23.18520927;stroke-miterlimit:4;stroke-dasharray:none;stroke-opacity:1"
           id="path843" />
        <path
           d="M 259.25414,309.93995 Q 256.22553,333.90919 256.22553,341.78356 256.22553,346.32646 256.91778,351.56162 L 246.27441,352.77306 Q 246.01481,349.26853 246.01481,344.20644 H 245.40909 Q 240.52006,353.24898 230.6122,353.24898 219.44963,353.24898 219.44963,340.35579 219.44963,336.5484 220.57454,326.12135 221.74272,315.65103 221.74272,310.80527 L 232.99181,309.93995 Q 232.99181,312.01671 231.52078,322.35723 230.04974,332.69774 230.04974,336.93779 230.04974,341.4807 231.26118,343.29786 232.51589,345.11502 235.50123,345.11502 239.26535,345.11502 242.81314,340.00966 246.36094,334.86103 247.09645,327.46259 248.3079,315.4347 248.3079,310.80527 Z"
           style="font-style:italic;font-variant:normal;font-weight:bold;font-stretch:normal;font-size:88.60829163px;font-family:Candara;-inkscape-font-specification:'Candara, Bold Italic';font-variant-ligatures:normal;font-variant-caps:normal;font-variant-numeric:normal;font-feature-settings:normal;text-align:start;writing-mode:lr-tb;text-anchor:start;fill:#ffffff;fill-opacity:1;stroke:none;stroke-width:23.18520927;stroke-miterlimit:4;stroke-dasharray:none;stroke-opacity:1"
           id="path845" />
        <path
           d="M 307.40893,326.16461 Q 307.40893,337.37045 301.39499,345.28808 295.42431,353.16245 285.55972,353.16245 279.32945,353.16245 276.51717,350.22038 H 275.99798 Q 274.87307,360.82049 274.13756,371.46387 L 262.88846,371.6802 Q 268.33994,331.78916 268.33994,320.75639 268.33994,316.64614 267.64769,311.10813 L 278.29107,309.89669 Q 278.68046,313.22815 278.68046,318.46331 H 279.19965 Q 284.30501,309.42076 294.16961,309.42076 300.57294,309.42076 303.99093,314.00693 307.40893,318.54984 307.40893,326.16461 Z M 296.50596,328.41443 Q 296.50596,317.51146 289.45364,317.51146 285.25686,317.51146 281.62253,323.13601 277.98821,328.71729 277.29596,335.20716 L 276.43064,343.25459 Q 279.58904,345.20155 283.39643,345.20155 289.97283,345.20155 293.21776,340.22599 296.50596,335.20716 296.50596,328.41443 Z"
           style="font-style:italic;font-variant:normal;font-weight:bold;font-stretch:normal;font-size:88.60829163px;font-family:Candara;-inkscape-font-specification:'Candara, Bold Italic';font-variant-ligatures:normal;font-variant-caps:normal;font-variant-numeric:normal;font-feature-settings:normal;text-align:start;writing-mode:lr-tb;text-anchor:start;fill:#ffffff;fill-opacity:1;stroke:none;stroke-width:23.18520927;stroke-miterlimit:4;stroke-dasharray:none;stroke-opacity:1"
           id="path847" />
        <path
           d="M 373.64881,328.1981 Q 373.64881,338.75495 366.89935,346.19666 360.19316,353.59511 349.63631,353.59511 342.28113,353.59511 337.00271,348.23016 331.72428,342.82193 331.72428,333.95245 331.72428,323.43887 338.47374,316.17022 345.2232,308.90157 355.82331,308.90157 363.22176,308.90157 368.41365,314.13673 373.64881,319.32862 373.64881,328.1981 Z M 362.70257,329.14995 Q 362.70257,323.785 360.36622,320.367 358.07313,316.90574 354.09268,316.90574 348.98732,316.90574 345.78566,322.05437 342.62726,327.20299 342.62726,333.39 342.62726,338.75495 344.96361,342.21621 347.29996,345.63421 351.32367,345.63421 356.55883,345.63421 359.6307,340.57211 362.70257,335.46675 362.70257,329.14995 Z"
           style="font-style:italic;font-variant:normal;font-weight:bold;font-stretch:normal;font-size:88.60829163px;font-family:Candara;-inkscape-font-specification:'Candara, Bold Italic';font-variant-ligatures:normal;font-variant-caps:normal;font-variant-numeric:normal;font-feature-settings:normal;text-align:start;writing-mode:lr-tb;text-anchor:start;fill:#ffffff;fill-opacity:1;stroke:none;stroke-width:23.18520927;stroke-miterlimit:4;stroke-dasharray:none;stroke-opacity:1"
           id="path849" />
        <path
           d="M 409.86226,290.38382 408.0451,297.82554 Q 405.75201,297.60921 403.28586,297.60921 400.34379,297.60921 398.91602,300.46475 397.48825,303.32029 396.62293,311.54078 400.30052,311.54078 406.74712,311.19466 L 405.53568,319.80455 Q 399.26215,319.54495 395.80088,319.54495 394.84904,333.39 393.2482,351.30202 391.64737,369.17079 378.58111,371.6802 L 376.24476,365.57973 Q 379.61949,362.98378 381.22032,357.83516 382.86442,352.68653 384.0326,341.52396 385.24404,330.36139 386.15262,319.54495 383.72973,319.54495 378.9705,319.80455 L 380.22521,311.23792 Q 384.50852,311.54078 387.01793,311.54078 389.31102,289.7781 403.19933,289.7781 407.35284,289.7781 409.86226,290.38382 Z M 376.41782,310.37261 Z"
           style="font-style:italic;font-variant:normal;font-weight:bold;font-stretch:normal;font-size:88.60829163px;font-family:Candara;-inkscape-font-specification:'Candara, Bold Italic';font-variant-ligatures:normal;font-variant-caps:normal;font-variant-numeric:normal;font-feature-settings:normal;text-align:start;writing-mode:lr-tb;text-anchor:start;fill:#ffffff;fill-opacity:1;stroke:none;stroke-width:23.18520927;stroke-miterlimit:4;stroke-dasharray:none;stroke-opacity:1"
           id="path851" />
        <path
           d="M 467.8384,295.57572 466.49716,305.05092 Q 454.33948,304.35867 444.30182,304.35867 443.99896,308.9881 443.17691,318.54984 451.74354,318.54984 461.56486,318.07392 L 460.56975,327.11646 Q 451.09455,326.6838 442.3116,326.6838 441.40302,335.46675 440.84056,343.12479 452.08966,343.12479 464.98286,342.38928 L 463.59836,351.90775 H 428.63962 Q 429.5482,345.98034 432.27394,322.44376 433.91804,306.69502 434.13437,295.57572 Z"
           style="font-style:italic;font-variant:normal;font-weight:bold;font-stretch:normal;font-size:88.60829163px;font-family:Candara;-inkscape-font-specification:'Candara, Bold Italic';font-variant-ligatures:normal;font-variant-caps:normal;font-variant-numeric:normal;font-feature-settings:normal;text-align:start;writing-mode:lr-tb;text-anchor:start;fill:#ffffff;fill-opacity:1;stroke:none;stroke-width:23.18520927;stroke-miterlimit:4;stroke-dasharray:none;stroke-opacity:1"
           id="path853" />
        <path
           d="M 511.49356,308.85831 Q 508.0323,332.30835 508.0323,341.26437 508.0323,345.80727 508.76781,351.47509 L 498.12444,352.68653 Q 497.86484,349.09547 497.86484,344.33624 H 497.21585 Q 492.41335,353.11919 482.93815,353.11919 477.48666,353.11919 474.71765,349.0522 471.94865,344.94196 471.94865,337.84637 471.94865,327.63565 479.0875,319.45842 486.22635,311.23792 501.28284,310.84853 L 503.18653,309.50729 Z M 500.41752,317.68452 Q 491.37498,317.77105 487.13493,322.96295 482.89488,328.15484 482.89488,336.98106 482.89488,344.98522 487.91371,344.98522 491.80763,344.98522 495.05257,339.31741 498.34076,333.64959 499.20608,328.50097 500.07139,323.30907 500.41752,317.68452 Z"
           style="font-style:italic;font-variant:normal;font-weight:bold;font-stretch:normal;font-size:88.60829163px;font-family:Candara;-inkscape-font-specification:'Candara, Bold Italic';font-variant-ligatures:normal;font-variant-caps:normal;font-variant-numeric:normal;font-feature-settings:normal;text-align:start;writing-mode:lr-tb;text-anchor:start;fill:#ffffff;fill-opacity:1;stroke:none;stroke-width:23.18520927;stroke-miterlimit:4;stroke-dasharray:none;stroke-opacity:1"
           id="path855" />
        <path
           d="M 548.52905,310.32934 545.11106,320.4968 Q 542.21225,319.63148 539.05385,319.63148 531.22274,319.63148 530.31416,328.24137 528.92966,341.30763 528.19414,351.90775 L 517.33443,352.3404 Q 520.36304,329.92874 520.36304,322.05437 520.36304,317.51146 519.67078,310.97833 L 530.40069,309.89669 Q 530.66029,312.75223 530.66029,315.60777 H 531.30928 Q 535.72238,309.3775 542.03919,309.3775 545.02452,309.3775 548.52905,310.32934 Z"
           style="font-style:italic;font-variant:normal;font-weight:bold;font-stretch:normal;font-size:88.60829163px;font-family:Candara;-inkscape-font-specification:'Candara, Bold Italic';font-variant-ligatures:normal;font-variant-caps:normal;font-variant-numeric:normal;font-feature-settings:normal;text-align:start;writing-mode:lr-tb;text-anchor:start;fill:#ffffff;fill-opacity:1;stroke:none;stroke-width:23.18520927;stroke-miterlimit:4;stroke-dasharray:none;stroke-opacity:1"
           id="path857" />
        <path
           d="M 576.9114,311.19466 575.74322,319.80455 Q 569.64275,319.54495 565.74883,319.54495 563.93167,331.31324 563.93167,337.02432 563.93167,341.3509 564.88351,342.95173 565.83536,344.55256 568.30151,344.55256 572.1089,344.55256 576.39221,341.87009 L 574.92117,349.74446 Q 571.02725,352.81633 565.22964,352.81633 559.0859,352.81633 556.48996,349.83099 553.89401,346.80238 553.89401,339.66353 553.89401,334.38511 556.0573,319.54495 553.98054,319.54495 550.12989,319.80455 L 551.34133,311.28119 Q 554.62953,311.54078 557.35527,311.54078 557.78793,308.51218 559.2157,299.46964 L 568.8207,298.21493 Q 568.08518,302.32518 566.78721,311.54078 570.24847,311.54078 576.9114,311.19466 Z M 547.05802,310.37261 Z"
           style="font-style:italic;font-variant:normal;font-weight:bold;font-stretch:normal;font-size:88.60829163px;font-family:Candara;-inkscape-font-specification:'Candara, Bold Italic';font-variant-ligatures:normal;font-variant-caps:normal;font-variant-numeric:normal;font-feature-settings:normal;text-align:start;writing-mode:lr-tb;text-anchor:start;fill:#ffffff;fill-opacity:1;stroke:none;stroke-width:23.18520927;stroke-miterlimit:4;stroke-dasharray:none;stroke-opacity:1"
           id="path859" />
        <path
           d="M 622.64328,322.31396 Q 622.64328,326.12135 621.47511,336.59166 620.30693,347.06198 620.30693,351.90775 L 609.14436,352.3404 Q 609.14436,350.26365 610.57213,340.00966 611.9999,329.71241 611.9999,325.47236 611.9999,320.97272 610.70193,319.24209 609.40396,317.51146 606.37535,317.51146 602.61123,317.51146 599.06344,322.66009 595.51565,327.80871 594.78013,335.20716 593.82828,344.5093 593.35236,351.90775 L 582.40612,352.3404 Q 583.1849,346.67259 586.17024,319.76128 587.90087,303.27702 587.90087,291.07608 L 599.79896,290.38382 Q 599.79896,292.28752 598.15486,303.62315 596.55402,314.91551 595.86177,318.46331 H 596.46749 Q 601.52959,309.42076 611.43745,309.42076 622.64328,309.42076 622.64328,322.31396 Z"
           style="font-style:italic;font-variant:normal;font-weight:bold;font-stretch:normal;font-size:88.60829163px;font-family:Candara;-inkscape-font-specification:'Candara, Bold Italic';font-variant-ligatures:normal;font-variant-caps:normal;font-variant-numeric:normal;font-feature-settings:normal;text-align:start;writing-mode:lr-tb;text-anchor:start;fill:#ffffff;fill-opacity:1;stroke:none;stroke-width:23.18520927;stroke-miterlimit:4;stroke-dasharray:none;stroke-opacity:1"
           id="path861" />
      </g>
    </g>
  </g>
</svg>
