<?xml version="1.0" encoding="UTF-8" standalone="no"?>
<!-- Created with Inkscape (http://www.inkscape.org/) -->

<svg
   xmlns:dc="http://purl.org/dc/elements/1.1/"
   xmlns:cc="http://creativecommons.org/ns#"
   xmlns:rdf="http://www.w3.org/1999/02/22-rdf-syntax-ns#"
   xmlns:svg="http://www.w3.org/2000/svg"
   xmlns="http://www.w3.org/2000/svg"
   xmlns:sodipodi="http://sodipodi.sourceforge.net/DTD/sodipodi-0.dtd"
   xmlns:inkscape="http://www.inkscape.org/namespaces/inkscape"
   width="960"
   height="960"
   viewBox="0 0 254 254"
   version="1.1"
   id="svg6766"
   inkscape:version="0.92.4 (5da689c313, 2019-01-14)"
   sodipodi:docname="logo.svg">
  <defs
     id="defs6760">
    <inkscape:path-effect
       effect="bend_path"
       id="path-effect7870"
       is_visible="true"
       bendpath="m 162.43212,173.69345 -0.33073,0.022 -0.2701,0.20395 -0.29214,0.36931 -0.20946,0.46302 0.5457,0.29214 c 0,0 0.46853,0.0165 0.57327,-0.0937 0.10473,-0.11024 0.34726,-0.47956 0.33624,-0.65044 -0.011,-0.17087 -0.18191,-0.36931 -0.19844,-0.39136 -0.0165,-0.022 -0.15434,-0.21497 -0.15434,-0.21497 z"
       prop_scale="1"
       scale_y_rel="false"
       vertical="false" />
    <inkscape:path-effect
       effect="bend_path"
       id="path-effect6818"
       is_visible="true"
       bendpath="m -187.47169,-170.00002 c 40.96125,-28.34526 81.26928,-28.06309 120.943393,0"
       prop_scale="2.5"
       scale_y_rel="false"
       vertical="false"
       bendpath-nodetypes="cc" />
    <inkscape:path-effect
       effect="bend_path"
       id="path-effect6818-9"
       is_visible="true"
       bendpath="m -187.47169,-170.00002 c 40.96125,-28.34526 81.26928,-28.06309 120.943393,0"
       prop_scale="2.5"
       scale_y_rel="false"
       vertical="false"
       bendpath-nodetypes="cc" />
  </defs>
  <sodipodi:namedview
     id="base"
     pagecolor="#ffffff"
     bordercolor="#666666"
     borderopacity="1.0"
     inkscape:pageopacity="0.0"
     inkscape:pageshadow="2"
     inkscape:zoom="0.5"
     inkscape:cx="111.69751"
     inkscape:cy="218.10406"
     inkscape:document-units="px"
     inkscape:current-layer="layer7"
     showgrid="false"
     units="px"
     inkscape:pagecheckerboard="false"
     showborder="true"
     borderlayer="false"
     objecttolerance="20"
     guidetolerance="10000"
     inkscape:snap-perpendicular="false"
     showguides="true"
     inkscape:guide-bbox="true"
     inkscape:window-width="1920"
     inkscape:window-height="1017"
     inkscape:window-x="-8"
     inkscape:window-y="-8"
     inkscape:window-maximized="1"
     gridtolerance="10000" />
  <metadata
     id="metadata6763">
    <rdf:RDF>
      <cc:Work
         rdf:about="">
        <dc:format>image/svg+xml</dc:format>
        <dc:type
           rdf:resource="http://purl.org/dc/dcmitype/StillImage" />
        <dc:title></dc:title>
      </cc:Work>
    </rdf:RDF>
  </metadata>
  <g
     style="display:inline"
     transform="translate(0,-43.000016)"
     id="g7455"
     inkscape:groupmode="layer"
     inkscape:label="Layer 1">
    <circle
       r="88.799301"
       cy="170.00002"
       cx="127"
       id="circle7435"
       style="fill:#0066ff;fill-opacity:1;fill-rule:evenodd;stroke-width:0.31714034" />
    <ellipse
       ry="66.729942"
       rx="66.876007"
       cy="170.00002"
       cx="127"
       id="ellipse7437"
       style="opacity:1;vector-effect:none;fill:#0066ff;fill-opacity:1;fill-rule:evenodd;stroke:#ffffff;stroke-width:6.42010212;stroke-linecap:butt;stroke-linejoin:miter;stroke-miterlimit:4;stroke-dasharray:none;stroke-dashoffset:0;stroke-opacity:1" />
    <rect
       transform="rotate(-90)"
       y="123.7183"
       x="-234.70576"
       height="6.5634065"
       width="129.4115"
       id="rect7439"
       style="fill:#ffffff;fill-opacity:1;stroke:#ffffff;stroke-width:0;stroke-miterlimit:4;stroke-dasharray:none;stroke-opacity:1" />
    <path
       inkscape:connector-curvature="0"
       id="path7441"
       d="m 162.88887,170.00001 a 35.888864,65.353798 0 0 1 -35.88886,65.35381 35.888864,65.353798 0 0 1 -35.88888,-65.35381 35.888864,65.353798 0 0 1 35.88888,-65.35379 35.888864,65.353798 0 0 1 35.88886,65.35379 z"
       style="opacity:1;vector-effect:none;fill:none;fill-opacity:1;fill-rule:evenodd;stroke:#ffffff;stroke-width:6.28947163;stroke-linecap:butt;stroke-linejoin:miter;stroke-miterlimit:4;stroke-dasharray:none;stroke-dashoffset:0;stroke-opacity:1" />
    <path
       inkscape:connector-curvature="0"
       inkscape:original-d="m -187.47169,-172.50002 h 120.943393 v 5 H -187.47169 Z"
       inkscape:path-effect="#path-effect6818"
       id="path7443"
       d="m -191.12003,-175.07568 c 9.86606,-6.85652 20.62251,-12.70264 32.2003,-16.73421 10.35064,-3.59741 21.32624,-5.6001 32.41335,-5.59325 l 10e-6,0 c 11.00861,0.0304 21.91099,2.04913 32.184082,5.68448 11.276386,3.99977 21.740225,9.77244 31.311822,16.55131 l -7.211471,10.21039 c -8.83842,-6.22389 -18.285606,-11.47104 -28.261861,-14.97476 -9.044432,-3.18492 -18.566932,-4.96598 -28.044452,-4.97144 l 0,0 c -9.54775,-0.0293 -19.15153,1.74368 -28.29788,4.90396 -10.2794,3.54417 -20.02715,8.87801 -29.17421,15.1974 z"
       style="fill:#ffffff;fill-opacity:1;stroke:#ffffff;stroke-width:0;stroke-miterlimit:4;stroke-dasharray:none;stroke-opacity:1"
       transform="matrix(-0.86423963,0,0,-0.41522997,17.185175,60.772271)" />
    <path
       inkscape:connector-curvature="0"
       inkscape:original-d="m -187.47169,-172.50002 h 120.943393 v 5 H -187.47169 Z"
       inkscape:path-effect="#path-effect6818-9"
       id="path7445"
       d="m -191.12003,-175.07568 c 9.86606,-6.85652 20.62251,-12.70264 32.2003,-16.73421 10.35064,-3.59741 21.32624,-5.6001 32.41335,-5.59325 l 10e-6,0 c 11.00861,0.0304 21.91099,2.04913 32.184082,5.68448 11.276386,3.99977 21.740225,9.77244 31.311822,16.55131 l -7.211471,10.21039 c -8.83842,-6.22389 -18.285606,-11.47104 -28.261861,-14.97476 -9.044432,-3.18492 -18.566932,-4.96598 -28.044452,-4.97144 l 0,0 c -9.54775,-0.0293 -19.15153,1.74368 -28.29788,4.90396 -10.2794,3.54417 -20.02715,8.87801 -29.17421,15.1974 z"
       style="fill:#ffffff;fill-opacity:1;stroke:#ffffff;stroke-width:0;stroke-miterlimit:4;stroke-dasharray:none;stroke-opacity:1"
       transform="matrix(0.86423964,0,0,0.41523005,236.81483,279.3299)" />
    <text
       id="text7453"
       y="175.94196"
       x="44.796108"
       style="font-style:italic;font-variant:normal;font-weight:bold;font-stretch:normal;font-size:24.86024284px;line-height:1.25;font-family:Candara;-inkscape-font-specification:'Candara, Bold Italic';font-variant-ligatures:normal;font-variant-caps:normal;font-variant-numeric:normal;font-feature-settings:normal;text-align:start;letter-spacing:0px;word-spacing:0px;writing-mode:lr-tb;text-anchor:start;fill:none;fill-opacity:1;stroke:#ffffff;stroke-width:10.03971386;stroke-linejoin:round;stroke-miterlimit:4;stroke-dasharray:none;stroke-opacity:1"
       xml:space="preserve"><tspan
         style="font-style:italic;font-variant:normal;font-weight:bold;font-stretch:normal;font-size:24.86024284px;font-family:Candara;-inkscape-font-specification:'Candara, Bold Italic';font-variant-ligatures:normal;font-variant-caps:normal;font-variant-numeric:normal;font-feature-settings:normal;text-align:start;writing-mode:lr-tb;text-anchor:start;fill:none;fill-opacity:1;stroke:#ffffff;stroke-width:10.03971386;stroke-linejoin:round;stroke-miterlimit:4;stroke-dasharray:none;stroke-opacity:1"
         y="175.94196"
         x="44.796108"
         id="tspan7451"
         sodipodi:role="line">My Cup of Earth</tspan></text>
    <text
       xml:space="preserve"
       style="font-style:italic;font-variant:normal;font-weight:bold;font-stretch:normal;font-size:24.86024284px;line-height:1.25;font-family:Candara;-inkscape-font-specification:'Candara, Bold Italic';font-variant-ligatures:normal;font-variant-caps:normal;font-variant-numeric:normal;font-feature-settings:normal;text-align:start;letter-spacing:0px;word-spacing:0px;writing-mode:lr-tb;text-anchor:start;display:inline;fill:#0066ff;fill-opacity:1;stroke:#0066ff;stroke-width:5.73697901;stroke-linejoin:round;stroke-miterlimit:4;stroke-dasharray:none;stroke-opacity:1"
       x="44.796108"
       y="175.94196"
       id="text6840-9"><tspan
         sodipodi:role="line"
         id="tspan6838-14"
         x="44.796108"
         y="175.94196"
         style="font-style:italic;font-variant:normal;font-weight:bold;font-stretch:normal;font-size:24.86024284px;font-family:Candara;-inkscape-font-specification:'Candara, Bold Italic';font-variant-ligatures:normal;font-variant-caps:normal;font-variant-numeric:normal;font-feature-settings:normal;text-align:start;writing-mode:lr-tb;text-anchor:start;fill:#0066ff;fill-opacity:1;stroke:#0066ff;stroke-width:5.73697901;stroke-linejoin:round;stroke-miterlimit:4;stroke-dasharray:none;stroke-opacity:1">My Cup of Earth</tspan></text>
    <text
       id="text7453-5"
       y="175.94196"
       x="44.796108"
       style="font-style:italic;font-variant:normal;font-weight:bold;font-stretch:normal;font-size:24.86024284px;line-height:1.25;font-family:Candara;-inkscape-font-specification:'Candara, Bold Italic';font-variant-ligatures:normal;font-variant-caps:normal;font-variant-numeric:normal;font-feature-settings:normal;text-align:start;letter-spacing:0px;word-spacing:0px;writing-mode:lr-tb;text-anchor:start;display:inline;fill:#ffffff;fill-opacity:1;stroke:none;stroke-width:6.50492096;stroke-miterlimit:4;stroke-dasharray:none;stroke-opacity:1"
       xml:space="preserve"><tspan
         style="font-style:italic;font-variant:normal;font-weight:bold;font-stretch:normal;font-size:24.86024284px;font-family:Candara;-inkscape-font-specification:'Candara, Bold Italic';font-variant-ligatures:normal;font-variant-caps:normal;font-variant-numeric:normal;font-feature-settings:normal;text-align:start;writing-mode:lr-tb;text-anchor:start;fill:#ffffff;fill-opacity:1;stroke:none;stroke-width:6.50492096;stroke-miterlimit:4;stroke-dasharray:none;stroke-opacity:1"
         y="175.94196"
         x="44.796108"
         id="tspan7451-4"
         sodipodi:role="line">My Cup of Earth</tspan></text>
  </g>
  <g
     inkscape:groupmode="layer"
     id="layer7"
     inkscape:label="mousee 4"
     style="display:inline">
    <path
       style="fill:#0165ff;fill-opacity:1;stroke:#0066ff;stroke-width:0.29922605;stroke-linecap:butt;stroke-linejoin:miter;stroke-miterlimit:4;stroke-dasharray:none;stroke-opacity:1"
       d="m 134.84936,149.92748 14.81092,56.70471 55.29417,-44.85598 -47.95921,-23.27431 z"
       id="path7873"
       inkscape:connector-curvature="0" />
  </g>
  <g
     inkscape:groupmode="layer"
     id="layer6"
     inkscape:label="mousee 3"
     style="display:inline">
    <path
       style="display:inline;fill:#ffffff;fill-opacity:1;stroke:none;stroke-width:0.26458332px;stroke-linecap:butt;stroke-linejoin:miter;stroke-opacity:1"
       d="m 138.16646,142.77972 12.81506,45.32333 c 0.17963,0.46393 0.70384,4.37123 1.8754,4.49773 0.11287,0.006 0.19464,-0.01 0.26468,-0.0441 2.29047,-2.06856 6.17884,-11.20276 8.81808,-16.33783 0.28009,-0.39703 0.33621,-0.55863 0.62316,-0.84537 0.077,-0.0548 0.17572,-0.0545 0.25913,-0.0587 h 0.15434 c 0.0798,0.005 0.14822,0.0138 0.2206,0.0662 1.02468,1.01016 1.75703,1.59699 2.8238,3.1549 0.005,0.005 0.022,-0.007 0.022,0 0,0.007 -0.0147,0 -0.022,0 l 13.1346,16.58677 c 0.47421,0.55367 0.77158,0.7634 1.3165,0.8311 0.52852,0.008 1.01806,-0.44968 1.4138,-0.7906 l 7.18784,-6.08571 c 0.21548,-0.22521 0.3358,-0.52431 0.30366,-0.73186 -0.0602,-0.2921 -0.72998,-1.11097 -0.99153,-1.45455 l -15.59669,-19.24881 c -0.0838,-0.11675 -0.23697,-0.36221 -0.26474,-0.46315 -0.0461,-0.23014 0.0119,-0.32395 0.2426,-0.441 0.55078,-0.32143 1.88242,-0.58338 2.22716,-0.7059 l 15.98508,-4.34307 c 0.54422,-0.0721 0.75821,-0.29902 0.88985,-0.65001 0.002,-0.14942 8e-4,-0.11206 -0.008,-0.18813 -0.40847,-0.68523 -2.78289,-1.61942 -4.476,-2.4931 -0.22716,-0.11011 -0.60976,-0.30738 -0.6616,-0.331 l -39.49787,-21.19789 c -0.0298,0.0426 -0.0242,0.10524 -0.0584,0.14445 -0.36922,0.62025 -2.06959,2.58906 -3.17692,3.70023 -1.04585,0.7254 -2.40716,1.31266 -3.42849,1.63063 -0.83798,0.18883 -1.49869,0.4464 -2.18769,0.53607 z"
       id="path7816-2"
       inkscape:connector-curvature="0"
       sodipodi:nodetypes="ccccccccccscccccccccccccccccccccc" />
  </g>
</svg>
