<?xml version="1.0" encoding="UTF-8" standalone="no"?>
<!-- Created with Inkscape (http://www.inkscape.org/) -->

<svg
   xmlns:dc="http://purl.org/dc/elements/1.1/"
   xmlns:cc="http://creativecommons.org/ns#"
   xmlns:rdf="http://www.w3.org/1999/02/22-rdf-syntax-ns#"
   xmlns:svg="http://www.w3.org/2000/svg"
   xmlns="http://www.w3.org/2000/svg"
   xmlns:sodipodi="http://sodipodi.sourceforge.net/DTD/sodipodi-0.dtd"
   xmlns:inkscape="http://www.inkscape.org/namespaces/inkscape"
   width="960"
   height="960"
   viewBox="0 0 254 254"
   version="1.1"
   id="svg6766"
   inkscape:version="0.92.4 (5da689c313, 2019-01-14)"
   sodipodi:docname="mco logo.svg">
  <defs
     id="defs6760">
    <inkscape:path-effect
       effect="bend_path"
       id="path-effect7870"
       is_visible="true"
       bendpath="m 162.43212,173.69345 -0.33073,0.022 -0.2701,0.20395 -0.29214,0.36931 -0.20946,0.46302 0.5457,0.29214 c 0,0 0.46853,0.0165 0.57327,-0.0937 0.10473,-0.11024 0.34726,-0.47956 0.33624,-0.65044 -0.011,-0.17087 -0.18191,-0.36931 -0.19844,-0.39136 -0.0165,-0.022 -0.15434,-0.21497 -0.15434,-0.21497 z"
       prop_scale="1"
       scale_y_rel="false"
       vertical="false" />
    <inkscape:path-effect
       effect="bend_path"
       id="path-effect6818"
       is_visible="true"
       bendpath="m -187.47169,-170.00002 c 40.96125,-28.34526 81.26928,-28.06309 120.943393,0"
       prop_scale="2.5"
       scale_y_rel="false"
       vertical="false"
       bendpath-nodetypes="cc" />
    <inkscape:path-effect
       effect="bend_path"
       id="path-effect6818-9"
       is_visible="true"
       bendpath="m -187.47169,-170.00002 c 40.96125,-28.34526 81.26928,-28.06309 120.943393,0"
       prop_scale="2.5"
       scale_y_rel="false"
       vertical="false"
       bendpath-nodetypes="cc" />
  </defs>
  <sodipodi:namedview
     id="base"
     pagecolor="#ffffff"
     bordercolor="#666666"
     borderopacity="1.0"
     inkscape:pageopacity="0.0"
     inkscape:pageshadow="2"
     inkscape:zoom="1.0606602"
     inkscape:cx="368.607"
     inkscape:cy="366.67934"
     inkscape:document-units="px"
     inkscape:current-layer="layer7"
     showgrid="false"
     units="px"
     inkscape:pagecheckerboard="false"
     showborder="true"
     borderlayer="false"
     objecttolerance="20"
     guidetolerance="10000"
     inkscape:snap-perpendicular="false"
     showguides="true"
     inkscape:guide-bbox="true"
     inkscape:window-width="958"
     inkscape:window-height="1008"
     inkscape:window-x="953"
     inkscape:window-y="0"
     inkscape:window-maximized="0"
     gridtolerance="10000" />
  <metadata
     id="metadata6763">
    <rdf:RDF>
      <cc:Work
         rdf:about="">
        <dc:format>image/svg+xml</dc:format>
        <dc:type
           rdf:resource="http://purl.org/dc/dcmitype/StillImage" />
        <dc:title></dc:title>
      </cc:Work>
    </rdf:RDF>
  </metadata>
  <g
     style="display:inline"
     transform="translate(0,-43.000016)"
     id="g7455"
     inkscape:groupmode="layer"
     inkscape:label="Layer 1"
     sodipodi:insensitive="true">
    <circle
       r="100"
       cy="170.00002"
       cx="127"
       id="circle7435"
       style="fill:#0066ff;fill-opacity:1;fill-rule:evenodd;stroke-width:0.35714281" />
    <ellipse
       ry="62.363441"
       rx="62.49995"
       cy="170.00002"
       cx="127"
       id="ellipse7437"
       style="opacity:1;vector-effect:none;fill:#0066ff;fill-opacity:1;fill-rule:evenodd;stroke:#ffffff;stroke-width:6;stroke-linecap:butt;stroke-linejoin:miter;stroke-miterlimit:4;stroke-dasharray:none;stroke-dashoffset:0;stroke-opacity:1" />
    <rect
       transform="rotate(-90)"
       y="123.93304"
       x="-230.47171"
       height="6.1339273"
       width="120.9434"
       id="rect7439"
       style="fill:#ffffff;fill-opacity:1;stroke:#ffffff;stroke-width:0;stroke-miterlimit:4;stroke-dasharray:none;stroke-opacity:1" />
    <path
       inkscape:connector-curvature="0"
       id="path7441"
       d="m 161.23709,170.00001 a 34.237087,62.345905 0 0 1 -34.23708,62.34591 34.237087,62.345905 0 0 1 -34.237096,-62.34591 34.237087,62.345905 0 0 1 34.237096,-62.3459 34.237087,62.345905 0 0 1 34.23708,62.3459 z"
       style="opacity:1;vector-effect:none;fill:none;fill-opacity:1;fill-rule:evenodd;stroke:#ffffff;stroke-width:6;stroke-linecap:butt;stroke-linejoin:miter;stroke-miterlimit:4;stroke-dasharray:none;stroke-dashoffset:0;stroke-opacity:1" />
    <path
       inkscape:connector-curvature="0"
       inkscape:original-d="m -187.47169,-172.50002 h 120.943393 v 5 H -187.47169 Z"
       inkscape:path-effect="#path-effect6818"
       id="path7443"
       d="m -191.12003,-175.07568 c 9.86606,-6.85652 20.62251,-12.70264 32.2003,-16.73421 10.35064,-3.59741 21.32624,-5.6001 32.41335,-5.59325 l 10e-6,0 c 11.00861,0.0304 21.91099,2.04913 32.184082,5.68448 11.276386,3.99977 21.740225,9.77244 31.311822,16.55131 l -7.211471,10.21039 c -8.83842,-6.22389 -18.285606,-11.47104 -28.261861,-14.97476 -9.044432,-3.18492 -18.566932,-4.96598 -28.044452,-4.97144 l 0,0 c -9.54775,-0.0293 -19.15153,1.74368 -28.29788,4.90396 -10.2794,3.54417 -20.02715,8.87801 -29.17421,15.1974 z"
       style="fill:#ffffff;fill-opacity:1;stroke:#ffffff;stroke-width:0;stroke-miterlimit:4;stroke-dasharray:none;stroke-opacity:1"
       transform="matrix(-0.80768774,0,0,-0.38805922,24.361319,67.598876)" />
    <path
       inkscape:connector-curvature="0"
       inkscape:original-d="m -187.47169,-172.50002 h 120.943393 v 5 H -187.47169 Z"
       inkscape:path-effect="#path-effect6818-9"
       id="path7445"
       d="m -191.12003,-175.07568 c 9.86606,-6.85652 20.62251,-12.70264 32.2003,-16.73421 10.35064,-3.59741 21.32624,-5.6001 32.41335,-5.59325 l 10e-6,0 c 11.00861,0.0304 21.91099,2.04913 32.184082,5.68448 11.276386,3.99977 21.740225,9.77244 31.311822,16.55131 l -7.211471,10.21039 c -8.83842,-6.22389 -18.285606,-11.47104 -28.261861,-14.97476 -9.044432,-3.18492 -18.566932,-4.96598 -28.044452,-4.97144 l 0,0 c -9.54775,-0.0293 -19.15153,1.74368 -28.29788,4.90396 -10.2794,3.54417 -20.02715,8.87801 -29.17421,15.1974 z"
       style="fill:#ffffff;fill-opacity:1;stroke:#ffffff;stroke-width:0;stroke-miterlimit:4;stroke-dasharray:none;stroke-opacity:1"
       transform="matrix(0.80768775,0,0,0.3880593,229.63868,272.34966)" />
    <text
       id="text7453"
       y="175.48073"
       x="51.176891"
       style="font-style:italic;font-variant:normal;font-weight:bold;font-stretch:normal;font-size:22.93055534px;line-height:1.25;font-family:Candara;-inkscape-font-specification:'Candara, Bold Italic';font-variant-ligatures:normal;font-variant-caps:normal;font-variant-numeric:normal;font-feature-settings:normal;text-align:start;letter-spacing:0px;word-spacing:0px;writing-mode:lr-tb;text-anchor:start;fill:none;fill-opacity:1;stroke:#ffffff;stroke-width:8;stroke-linejoin:round;stroke-miterlimit:4;stroke-dasharray:none;stroke-opacity:1"
       xml:space="preserve"><tspan
         style="font-style:italic;font-variant:normal;font-weight:bold;font-stretch:normal;font-size:22.93055534px;font-family:Candara;-inkscape-font-specification:'Candara, Bold Italic';font-variant-ligatures:normal;font-variant-caps:normal;font-variant-numeric:normal;font-feature-settings:normal;text-align:start;writing-mode:lr-tb;text-anchor:start;fill:none;fill-opacity:1;stroke:#ffffff;stroke-width:8;stroke-linejoin:round;stroke-miterlimit:4;stroke-dasharray:none;stroke-opacity:1"
         y="175.48073"
         x="51.176891"
         id="tspan7451"
         sodipodi:role="line">My Cup of Earth</tspan></text>
    <text
       xml:space="preserve"
       style="font-style:italic;font-variant:normal;font-weight:bold;font-stretch:normal;font-size:22.93055534px;line-height:1.25;font-family:Candara;-inkscape-font-specification:'Candara, Bold Italic';font-variant-ligatures:normal;font-variant-caps:normal;font-variant-numeric:normal;font-feature-settings:normal;text-align:start;letter-spacing:0px;word-spacing:0px;writing-mode:lr-tb;text-anchor:start;display:inline;fill:#0066ff;fill-opacity:1;stroke:#0066ff;stroke-width:5.5;stroke-linejoin:round;stroke-miterlimit:4;stroke-dasharray:none;stroke-opacity:1"
       x="51.310524"
       y="175.48073"
       id="text6840-9"><tspan
         sodipodi:role="line"
         id="tspan6838-14"
         x="51.310524"
         y="175.48073"
         style="font-style:italic;font-variant:normal;font-weight:bold;font-stretch:normal;font-size:22.93055534px;font-family:Candara;-inkscape-font-specification:'Candara, Bold Italic';font-variant-ligatures:normal;font-variant-caps:normal;font-variant-numeric:normal;font-feature-settings:normal;text-align:start;writing-mode:lr-tb;text-anchor:start;fill:#0066ff;fill-opacity:1;stroke:#0066ff;stroke-width:5.5;stroke-linejoin:round;stroke-miterlimit:4;stroke-dasharray:none;stroke-opacity:1">My Cup of Earth</tspan></text>
    <text
       id="text7453-5"
       y="175.61436"
       x="50.909622"
       style="font-style:italic;font-variant:normal;font-weight:bold;font-stretch:normal;font-size:22.93055534px;line-height:1.25;font-family:Candara;-inkscape-font-specification:'Candara, Bold Italic';font-variant-ligatures:normal;font-variant-caps:normal;font-variant-numeric:normal;font-feature-settings:normal;text-align:start;letter-spacing:0px;word-spacing:0px;writing-mode:lr-tb;text-anchor:start;display:inline;fill:#ffffff;fill-opacity:1;stroke:none;stroke-width:6;stroke-miterlimit:4;stroke-dasharray:none;stroke-opacity:1"
       xml:space="preserve"><tspan
         style="font-style:italic;font-variant:normal;font-weight:bold;font-stretch:normal;font-size:22.93055534px;font-family:Candara;-inkscape-font-specification:'Candara, Bold Italic';font-variant-ligatures:normal;font-variant-caps:normal;font-variant-numeric:normal;font-feature-settings:normal;text-align:start;writing-mode:lr-tb;text-anchor:start;fill:#ffffff;fill-opacity:1;stroke:none;stroke-width:6;stroke-miterlimit:4;stroke-dasharray:none;stroke-opacity:1"
         y="175.61436"
         x="50.909622"
         id="tspan7451-4"
         sodipodi:role="line">My Cup of Earth</tspan></text>
  </g>
  <g
     inkscape:groupmode="layer"
     id="layer5"
     inkscape:label="mousee 2"
     style="display:none" />
  <g
     inkscape:groupmode="layer"
     id="layer7"
     inkscape:label="mousee 4"
     style="display:inline">
    <path
       style="fill:#0165ff;fill-opacity:1;stroke:#0066ff;stroke-width:0.29922605;stroke-linecap:butt;stroke-linejoin:miter;stroke-miterlimit:4;stroke-dasharray:none;stroke-opacity:1"
       d="m 134.32019,148.33997 14.81092,56.70471 55.29417,-44.85598 -47.95921,-23.27431 z"
       id="path7873"
       inkscape:connector-curvature="0" />
  </g>
  <g
     inkscape:groupmode="layer"
     id="layer6"
     inkscape:label="mousee 3"
     style="display:inline">
    <path
       style="display:inline;fill:#ffffff;fill-opacity:1;stroke:none;stroke-width:0.26458332px;stroke-linecap:butt;stroke-linejoin:miter;stroke-opacity:1"
       d="m 137.66416,141.27179 12.78819,45.24375 c 0.0147,0.0367 0.0237,0.0763 0.0441,0.11025 0.004,0.006 0.0169,-0.005 0.0221,0 0.0104,0.0104 -0.0104,0.0337 0,0.0441 0.005,0.005 0.0168,-0.005 0.022,0 0.007,0.007 -0.007,0.10341 0,0.11024 0.005,0.005 0.0169,-0.005 0.0221,0 0.007,0.007 -0.007,0.10342 0,0.11024 0.005,0.005 0.0169,-0.005 0.0221,0 0.0104,0.0104 -0.0104,0.0337 0,0.0441 0.005,0.005 0.0169,-0.005 0.022,0 0.011,0.011 -0.011,0.0551 0,0.0661 0.005,0.005 0.0169,-0.005 0.022,0 0.007,0.007 -0.007,0.10341 0,0.11024 0.005,0.005 0.0169,-0.005 0.0221,0 0.005,0.005 -0.005,0.0829 0,0.0882 0.005,0.005 0.0169,-0.005 0.0221,0 0.011,0.011 -0.011,0.0551 0,0.0661 0.005,0.005 0.0169,-0.005 0.0221,0 0.005,0.005 -0.005,0.0829 0,0.0882 0.005,0.005 0.0169,-0.005 0.022,0 0.006,0.006 -0.006,0.0762 0,0.0882 0.005,0.009 0.0174,0.0127 0.0221,0.022 0.004,0.009 -0.005,0.0616 0,0.0661 0.005,0.005 0.0169,-0.005 0.022,0 0.0104,0.0104 -0.0104,0.0337 0,0.0441 0.005,0.005 0.0169,-0.005 0.0221,0 0.007,0.007 -0.007,0.10342 0,0.11024 0.005,0.005 0.0169,-0.005 0.0221,0 0.008,0.008 -0.008,0.095 0,0.11025 0.005,0.009 0.0174,0.0127 0.022,0.022 0.006,0.012 -0.006,0.0822 0,0.0882 0.005,0.005 0.0169,-0.005 0.0221,0 0.0104,0.0104 -0.0104,0.0337 0,0.0441 0.005,0.005 0.0169,-0.005 0.0221,0 0.005,0.005 -0.005,0.0829 0,0.0882 0.005,0.005 0.0169,-0.005 0.0221,0 0.008,0.008 -0.008,0.095 0,0.11024 0.005,0.009 0.0174,0.0128 0.022,0.0221 0.004,0.009 -0.004,0.0616 0,0.0661 0.005,0.005 0.0169,-0.005 0.0221,0 0.005,0.005 -0.005,0.0829 0,0.0882 0.005,0.005 0.0169,-0.005 0.0221,0 0.007,0.007 -0.007,0.10342 0,0.11025 0.005,0.005 0.0169,-0.005 0.0221,0 10e-4,10e-4 0,0.0998 0,0.11024 0,0.007 -0.005,0.0168 0,0.022 0.005,0.005 0.0168,-0.005 0.022,0 0.005,0.005 -0.005,0.0829 0,0.0882 0.005,0.005 0.0169,-0.005 0.0221,0 0.005,0.005 -0.003,0.0155 0,0.0221 0.005,0.009 0.0174,0.0128 0.0221,0.0221 0.004,0.009 -0.005,0.0616 0,0.0661 0.005,0.005 0.0169,-0.005 0.022,0 0.005,0.005 -0.005,0.0829 0,0.0882 0.005,0.005 0.0169,-0.005 0.022,0 0.005,0.005 0,0.0147 0,0.0221 0,0.007 0,0.0147 0,0.0221 0,0.007 0,0.0147 0,0.022 0,0.007 -0.005,0.0169 0,0.022 0.005,0.005 0.0169,-0.005 0.0221,0 0.005,0.005 -0.005,0.0169 0,0.0221 0.005,0.005 0.0169,-0.005 0.0221,0 0.005,0.005 -0.005,0.0829 0,0.0882 0.005,0.005 0.0169,-0.005 0.0221,0 0.011,0.011 -0.011,0.0551 0,0.0661 0.005,0.005 0.0168,-0.005 0.022,0 0.011,0.011 -0.011,0.0551 0,0.0662 0.005,0.005 0.0169,-0.005 0.0221,0 0.005,0.005 -0.005,0.0169 0,0.022 0.005,0.005 0.0169,-0.005 0.022,0 0.005,0.005 -0.005,0.0829 0,0.0882 0.005,0.005 0.0169,-0.005 0.0221,0 0.011,0.011 -0.011,0.0551 0,0.0661 0.005,0.005 0.0169,-0.005 0.0221,0 0.007,0.007 -0.007,0.10341 0,0.11024 0.005,0.005 0.0168,-0.005 0.022,0 0.006,0.006 -0.006,0.0762 0,0.0882 0.005,0.009 0.0174,0.0128 0.0221,0.022 0.003,0.007 -0.005,0.0169 0,0.0221 0.005,0.005 0.0169,-0.005 0.0221,0 0.005,0.005 -0.004,0.0574 0,0.0661 0.005,0.009 0.0174,0.0128 0.022,0.0221 0.009,0.0176 -0.009,0.0485 0,0.0661 0.005,0.009 0.0174,0.0127 0.0221,0.022 0.004,0.009 -0.005,0.0616 0,0.0661 0.005,0.005 0.0169,-0.005 0.022,0 0.0104,0.0104 -0.0104,0.0337 0,0.0441 0.0294,0.0294 0.0221,-0.0367 0.0221,0.0221 0,0.007 0.007,0.0221 0,0.0221 -0.007,0 -0.007,-0.0221 0,-0.0221 0.0104,0 0.0174,0.0127 0.0221,0.0221 0.004,0.009 -0.005,0.0616 0,0.0661 0.005,0.005 0.0168,-0.005 0.022,0 0.011,0.011 -0.011,0.0551 0,0.0661 0.005,0.005 0.0169,-0.005 0.0221,0 0.0104,0.0104 -0.0104,0.0337 0,0.0441 0.005,0.005 0.0169,-0.005 0.0221,0 0.0104,0.0104 -0.0104,0.0337 0,0.0441 0.005,0.005 0.0169,-0.005 0.0221,0 0.0104,0.0104 -0.0104,0.0337 0,0.0441 0.005,0.005 0.0168,-0.005 0.022,0 0.0104,0.0104 -0.007,0.0309 0,0.0441 0.005,0.009 0.0174,0.0128 0.0221,0.0221 0.003,0.007 -0.005,0.0169 0,0.0221 0.005,0.005 0.0169,-0.005 0.0221,0 0.0104,0.0104 -0.0104,0.0337 0,0.0441 0.005,0.005 0.0169,-0.005 0.0221,0 0.011,0.011 -0.011,0.0551 0,0.0661 0.005,0.005 0.0168,-0.005 0.022,0 0.011,0.011 -0.011,0.0551 0,0.0661 0.005,0.005 0.0169,-0.005 0.0221,0 0.005,0.005 -0.003,0.0155 0,0.0221 0.005,0.009 0.0174,0.0127 0.0221,0.022 0.007,0.0132 -0.0104,0.0337 0,0.0441 0.005,0.005 0.0169,-0.005 0.022,0 0.005,0.005 -0.005,0.0169 0,0.0221 0.005,0.005 0.0169,-0.005 0.0221,0 0.011,0.011 -0.011,0.0551 0,0.0661 0.0104,0.0104 0.0337,-0.0104 0.0441,0 0.005,0.005 -0.005,0.0169 0,0.022 0.005,0.005 0.0169,-0.005 0.0221,0 0.005,0.005 -0.005,0.0169 0,0.0221 0.005,0.005 0.0169,-0.005 0.022,0 0.0104,0.0104 -0.0104,0.0337 0,0.0441 0.0104,0.0104 0.0337,-0.0104 0.0441,0 0.005,0.005 -0.005,0.0169 0,0.0221 0.005,0.005 0.0169,-0.005 0.0221,0 0.0104,0.0104 -0.0104,0.0337 0,0.0441 0.005,0.005 0.0169,-0.005 0.0221,0 0.005,0.005 -0.005,0.0169 0,0.0221 0.005,0.005 0.0168,-0.005 0.022,0 0.005,0.005 -0.005,0.0169 0,0.022 0.005,0.005 0.0169,-0.005 0.0221,0 0.005,0.005 -0.005,0.0169 0,0.0221 0.005,0.005 0.0147,0 0.0221,0 0,0.007 -0.005,0.0168 0,0.022 0.005,0.005 0.0169,-0.005 0.0221,0 0.0104,0.0104 -0.0104,0.0337 0,0.0441 0.0104,0.0104 0.0309,-0.007 0.0441,0 0.009,0.005 0.0128,0.0174 0.0221,0.0221 0.007,0.003 0.0169,-0.005 0.0221,0 0.005,0.005 -0.005,0.0168 0,0.022 0.005,0.005 0.0168,-0.005 0.022,0 0.005,0.005 -0.005,0.0169 0,0.022 0.005,0.005 0.0829,-0.005 0.0882,0 0.005,0.005 -0.005,0.0169 0,0.0221 0.005,0.005 0.022,0.007 0.022,0 0,-0.0104 -0.0324,-0.0221 -0.022,-0.0221 0.0164,0 0.0285,0.0169 0.0441,0.0221 0.0138,0.005 0.0704,0 0.0882,0 0.0588,0 0.11759,0 0.17638,0 0.007,0 0.0147,0 0.0221,0 0.007,0 0.0169,0.005 0.0221,0 0.005,-0.005 -0.005,-0.0169 0,-0.0221 0.0104,-0.0104 0.0337,0.0104 0.0441,0 0.005,-0.005 -0.005,-0.0169 0,-0.022 0.007,-0.007 0.10341,0.007 0.11024,0 0.005,-0.005 -0.005,-0.0169 0,-0.022 0.0104,-0.0104 0.0337,0.0104 0.0441,0 0.005,-0.005 -0.005,-0.0169 0,-0.0221 0.011,-0.011 0.0551,0.011 0.0661,0 0.005,-0.005 -0.005,-0.0169 0,-0.0221 0.005,-0.005 0.0169,0.005 0.0221,0 0.005,-0.005 -0.005,-0.0169 0,-0.0221 0.0104,-0.0104 0.0337,0.0104 0.0441,0 0.005,-0.005 -0.005,-0.0168 0,-0.022 0.0104,-0.0104 0.0337,0.0104 0.0441,0 0.005,-0.005 -0.005,-0.0169 0,-0.0221 0.0104,-0.0104 0.0337,0.0104 0.0441,0 0.0104,-0.0104 -0.0104,-0.0337 0,-0.0441 0.0104,-0.0104 0.0337,0.0104 0.0441,0 0.005,-0.005 -0.005,-0.0169 0,-0.0221 0.005,-0.005 0.0168,0.005 0.022,0 0.005,-0.005 -0.005,-0.0168 0,-0.022 0.0104,-0.0104 0.0337,0.0104 0.0441,0 0.0104,-0.0104 -0.0104,-0.0337 0,-0.0441 0.005,-0.005 0.0169,0.005 0.0221,0 0.005,-0.005 -0.005,-0.0169 0,-0.022 0.0104,-0.0104 0.0337,0.0104 0.0441,0 0.0104,-0.0104 -0.0104,-0.0337 0,-0.0441 0.005,-0.005 0.0169,0.005 0.0221,0 0.005,-0.005 -0.005,-0.0169 0,-0.0221 0.005,-0.005 0.0169,0.005 0.0221,0 0.0104,-0.0104 -0.0104,-0.0337 0,-0.0441 0.005,-0.005 0.0169,0.005 0.022,0 0.005,-0.005 -0.005,-0.0169 0,-0.0221 0.005,-0.005 0.0169,0.005 0.0221,0 0.0104,-0.0104 -0.0104,-0.0337 0,-0.0441 0.005,-0.005 0.0169,0.005 0.0221,0 0.011,-0.011 -0.011,-0.0551 0,-0.0661 0.005,-0.005 0.0169,0.005 0.0221,0 0.0104,-0.0104 -0.0104,-0.0337 0,-0.0441 0.005,-0.005 0.0169,0.005 0.022,0 0.0104,-0.0104 -0.0104,-0.0337 0,-0.0441 0.005,-0.005 0.0169,0.005 0.022,0 0.005,-0.005 -0.005,-0.0169 0,-0.022 0.005,-0.005 0.0169,0.005 0.0221,0 0.0104,-0.0104 -0.0104,-0.0337 0,-0.0441 0.005,-0.005 0.0169,0.005 0.0221,0 0.0104,-0.0104 -0.0104,-0.0337 0,-0.0441 0.005,-0.005 0.0169,0.005 0.0221,0 0.0104,-0.0104 -0.0104,-0.0337 0,-0.0441 0.0588,0 -0.007,0.007 0.022,-0.022 0.005,-0.005 0.0169,0.005 0.0221,0 0.0104,-0.0104 -0.0104,-0.0337 0,-0.0441 0.005,-0.005 0.0169,0.005 0.022,0 0.0104,-0.0104 -0.0104,-0.0337 0,-0.0441 0.005,-0.005 0.0169,0.005 0.0221,0 0.0104,-0.0104 -0.0104,-0.0337 0,-0.0441 0.005,-0.005 0.0169,0.005 0.022,0 0.005,-0.005 -0.005,-0.0168 0,-0.022 0.005,-0.005 0.0169,0.005 0.0221,0 0.011,-0.011 -0.011,-0.0551 0,-0.0662 0.005,-0.005 0.0169,0.005 0.0221,0 0.0104,-0.0104 -0.0104,-0.0337 0,-0.0441 0.005,-0.005 0.0169,0.005 0.0221,0 0.0104,-0.0104 -0.0104,-0.0337 0,-0.0441 0.005,-0.005 0.0168,0.005 0.022,0 0.0104,-0.0104 -0.0104,-0.0337 0,-0.0441 0.005,-0.005 0.0169,0.005 0.022,0 0.0104,-0.0104 -0.0104,-0.0337 0,-0.0441 0.005,-0.005 0.0169,0.005 0.0221,0 0.0104,-0.0104 -0.0104,-0.0337 0,-0.0441 0.005,-0.005 0.0169,0.005 0.0221,0 0.011,-0.011 -0.011,-0.0551 0,-0.0661 0.005,-0.005 0.0169,0.005 0.022,0 0.005,-0.005 -0.005,-0.0168 0,-0.022 0.005,-0.005 0.0169,0.005 0.0221,0 0.0104,-0.0104 -0.0104,-0.0337 0,-0.0441 0.005,-0.005 0.0169,0.005 0.0221,0 0.0104,-0.0104 -0.0104,-0.0337 0,-0.0441 0.005,-0.005 0.0169,0.005 0.0221,0 0.0104,-0.0104 -0.0104,-0.0337 0,-0.0441 0.005,-0.005 0.0169,0.005 0.022,0 0.005,-0.005 0,-0.0147 0,-0.0221 0.007,0 0.0169,0.005 0.022,0 0.0104,-0.0104 -0.0104,-0.0337 0,-0.0441 0.005,-0.005 0.0169,0.005 0.0221,0 0.0104,-0.0104 -0.0104,-0.0337 0,-0.0441 0.005,-0.005 0.0169,0.005 0.0221,0 0.0104,-0.0104 -0.0104,-0.0337 0,-0.0441 0.005,-0.005 0.0169,0.005 0.0221,0 0.005,-0.005 -0.005,-0.0169 0,-0.0221 0.005,-0.005 0.0168,0.005 0.022,0 0.0104,-0.0104 -0.0104,-0.0337 0,-0.0441 0.005,-0.005 0.0169,0.005 0.0221,0 0.011,-0.011 -0.011,-0.0551 0,-0.0661 0.005,-0.005 0.0169,0.005 0.0221,0 0.005,-0.005 -0.003,-0.0155 0,-0.0221 0.005,-0.009 0.0174,-0.0128 0.022,-0.022 0.003,-0.007 -0.005,-0.0169 0,-0.0221 0.0294,-0.0294 0.022,0.0368 0.022,-0.0221 0,-0.0588 -0.007,0.007 0.0221,-0.0221 0.011,-0.011 -0.011,-0.0551 0,-0.0661 0.005,-0.005 0.0169,0.005 0.0221,0 0.011,-0.011 -0.011,-0.0551 0,-0.0661 0.005,-0.005 0.0169,0.005 0.0221,0 0.0104,-0.0104 -0.0104,-0.0337 0,-0.0441 0.005,-0.005 0.0168,0.005 0.022,0 0.005,-0.005 -0.005,-0.0168 0,-0.022 0.005,-0.005 0.0169,0.005 0.0221,0 0.011,-0.011 -0.011,-0.0551 0,-0.0661 0.005,-0.005 0.0169,0.005 0.022,0 0.0104,-0.0104 -0.0104,-0.0337 0,-0.0441 0.005,-0.005 0.0169,0.005 0.0221,0 0.0104,-0.0104 -0.0104,-0.0337 0,-0.0441 0.005,-0.005 0.0169,0.005 0.022,0 0.005,-0.005 -0.005,-0.0169 0,-0.022 0.005,-0.005 0.0169,0.005 0.0221,0 0.0217,-0.0217 -0.0452,-0.0441 0.0221,-0.0441 l 7.22984,-14.06683 c 0.3944,0.10063 0.0463,-0.11244 0.0882,-0.15434 0.005,-0.005 0.0168,0.005 0.022,0 0.005,-0.005 -0.005,-0.0169 0,-0.022 0.005,-0.005 0.0169,0.005 0.022,0 0.005,-0.005 -0.005,-0.0169 0,-0.0221 0.005,-0.005 0.0169,0.005 0.0221,0 0.005,-0.005 -0.005,-0.0168 0,-0.022 0.005,-0.005 0.0169,0.005 0.0221,0 0.0104,-0.0104 -0.0104,-0.0337 0,-0.0441 0.0104,-0.0104 0.0337,0.0104 0.0441,0 0.0104,-0.0104 -0.0104,-0.0337 0,-0.0441 0.005,-0.005 0.0169,0.005 0.0221,0 0.005,-0.005 -0.007,-0.022 0,-0.022 0.007,0 -0.0145,0.0731 0.0221,0 0.004,-0.009 -0.005,-0.0616 0,-0.0661 0.005,-0.005 0.0169,0.005 0.022,0 0.011,-0.011 -0.011,-0.0551 0,-0.0662 0.005,-0.005 0.0147,0 0.022,0 0,-0.007 -0.005,-0.0168 0,-0.022 0.005,-0.005 0.0169,0.005 0.0221,0 0.0104,-0.0104 -0.0104,-0.0337 0,-0.0441 0.005,-0.005 0.0169,0.005 0.0221,0 0.0104,-0.0104 -0.0104,-0.0337 0,-0.0441 0.005,-0.005 0.0169,0.005 0.0221,0 0.011,-0.011 -0.011,-0.0551 0,-0.0662 0.0104,-0.0104 0.0337,0.0104 0.0441,0 0.0104,-0.0104 -0.0104,-0.0337 0,-0.0441 0.0104,-0.0104 0.0337,0.0104 0.0441,0 0.0104,-0.0104 -0.0104,-0.0337 0,-0.0441 0.0104,-0.0104 0.0337,0.0104 0.0441,0 0.005,-0.005 -0.005,-0.0169 0,-0.022 0.005,-0.005 0.0169,0.005 0.0221,0 0.005,-0.005 -0.005,-0.0169 0,-0.0221 0.005,-0.005 0.0169,0.005 0.0221,0 0.005,-0.005 -0.005,-0.0169 0,-0.0221 0.0104,-0.0104 0.0337,0.0104 0.0441,0 0.005,-0.005 -0.005,-0.0169 0,-0.022 0.005,-0.005 0.0169,0.005 0.022,0 0.005,-0.005 -0.005,-0.0169 0,-0.0221 0.005,-0.005 0.0169,0.005 0.0221,0 0.005,-0.005 -0.005,-0.0168 0,-0.022 0.0104,-0.0104 0.0337,0.0104 0.0441,0 0.005,-0.005 -0.005,-0.0169 0,-0.0221 0.005,-0.005 0.0169,0.005 0.0221,0 0.005,-0.005 -0.005,-0.0169 0,-0.0221 0.005,-0.005 0.0221,-0.007 0.0221,0 0,0.007 -0.0294,0 -0.0221,0 0.0147,0 0.0294,0 0.0441,0 0.0441,0 0.0882,0 0.13229,0 0.0514,0 0.10289,0 0.15434,0 0.007,0 0.0169,-0.005 0.0221,0 0.005,0.005 -0.005,0.0169 0,0.0221 0.011,0.011 0.0551,-0.011 0.0661,0 0.005,0.005 -0.005,0.0169 0,0.0221 0.005,0.005 0.0147,0 0.0221,0 0.007,0 0.0147,0 0.0221,0 0.0588,0 -0.007,-0.007 0.0221,0.022 0.011,0.011 0.0551,-0.011 0.0661,0 0.0104,0.0104 -0.0104,0.0337 0,0.0441 0.011,0.011 0.0551,-0.011 0.0661,0 0.005,0.005 -0.005,0.0169 0,0.0221 0.005,0.005 0.0169,-0.005 0.0221,0 0.005,0.005 -0.005,0.0169 0,0.0221 0.0104,0.0104 0.0337,-0.0104 0.0441,0 0.005,0.005 -0.005,0.0168 0,0.022 0.005,0.005 0.0168,-0.005 0.022,0 0.005,0.005 -0.005,0.0169 0,0.0221 0.005,0.005 0.0169,-0.005 0.0221,0 0.005,0.005 -0.005,0.0169 0,0.0221 0.0104,0.0104 0.0337,-0.0104 0.0441,0 0.005,0.005 -0.005,0.0169 0,0.022 0.005,0.005 0.0155,-0.003 0.022,0 0.009,0.005 0.0147,0.0147 0.0221,0.022 0.007,0.007 0.0174,0.0128 0.0221,0.0221 0.003,0.007 -0.005,0.0169 0,0.0221 0.0104,0.0104 0.0337,-0.0104 0.0441,0 0.005,0.005 -0.005,0.0169 0,0.0221 0.005,0.005 0.0169,-0.005 0.0221,0 0.005,0.005 -0.005,0.0168 0,0.022 0.005,0.005 0.0169,-0.005 0.0221,0 0.005,0.005 -0.005,0.0169 0,0.0221 0.005,0.005 0.0169,-0.005 0.0221,0 0.005,0.005 -0.005,0.0169 0,0.0221 0.005,0.005 0.0168,-0.005 0.022,0 0.005,0.005 -0.005,0.0169 0,0.0221 0.005,0.005 0.0169,-0.005 0.0221,0 0.0104,0.0104 -0.0104,0.0337 0,0.0441 0.0104,0.0104 0.0337,-0.0104 0.0441,0 0.005,0.005 -0.005,0.0169 0,0.0221 0.005,0.005 0.0169,-0.005 0.0221,0 0.005,0.005 -0.005,0.0169 0,0.0221 0.005,0.005 0.0168,-0.005 0.022,0 0.005,0.005 -0.005,0.0168 0,0.022 0.005,0.005 0.0169,-0.005 0.0221,0 0.005,0.005 -0.005,0.0169 0,0.0221 0.005,0.005 0.0169,-0.005 0.0221,0 0.005,0.005 -0.005,0.0169 0,0.0221 0.005,0.005 0.0169,-0.005 0.022,0 0.005,0.005 -0.005,0.0169 0,0.022 0.005,0.005 0.0169,-0.005 0.0221,0 0.005,0.005 -0.005,0.0169 0,0.0221 0.005,0.005 0.0169,-0.005 0.022,0 0.0104,0.0104 -0.0104,0.0337 0,0.0441 0.005,0.005 0.0169,-0.005 0.0221,0 0.005,0.005 -0.005,0.0169 0,0.0221 0.005,0.005 0.0169,-0.005 0.0221,0 0.005,0.005 -0.005,0.0169 0,0.022 0.005,0.005 0.0168,-0.005 0.022,0 0.005,0.005 -0.005,0.0169 0,0.0221 0.005,0.005 0.0169,-0.005 0.0221,0 0.005,0.005 -0.005,0.0169 0,0.022 0.005,0.005 0.0169,-0.005 0.0221,0 0.005,0.005 -0.005,0.0169 0,0.0221 0.005,0.005 0.0169,-0.005 0.0221,0 0.005,0.005 -0.005,0.0169 0,0.0221 0.005,0.005 0.0168,-0.005 0.022,0 0.0104,0.0104 -0.0104,0.0337 0,0.0441 0.005,0.005 0.0169,-0.005 0.0221,0 0.005,0.005 -0.005,0.0169 0,0.0221 0.005,0.005 0.0169,-0.005 0.0221,0 0.005,0.005 -0.005,0.0169 0,0.0221 0.005,0.005 0.0169,-0.005 0.0221,0 0.005,0.005 -0.005,0.0168 0,0.022 0.005,0.005 0.0168,-0.005 0.022,0 0.005,0.005 -0.005,0.0169 0,0.0221 0.005,0.005 0.0169,-0.005 0.0221,0 0.005,0.005 -0.005,0.0169 0,0.0221 0.005,0.005 0.0169,-0.005 0.0221,0 0.005,0.005 -0.005,0.0169 0,0.0221 0.005,0.005 0.0169,-0.005 0.022,0 0.005,0.005 -0.005,0.0168 0,0.022 0.005,0.005 0.0169,-0.005 0.0221,0 0.005,0.005 -0.005,0.0169 0,0.0221 0.005,0.005 0.0168,-0.005 0.022,0 0.0104,0.0104 -0.0104,0.0337 0,0.0441 0.005,0.005 0.0169,-0.005 0.0221,0 0.005,0.005 -0.005,0.0169 0,0.0221 0.005,0.005 0.0169,-0.005 0.0221,0 0.005,0.005 -0.005,0.0169 0,0.022 0.005,0.005 0.0169,-0.005 0.022,0 0.005,0.005 -0.005,0.0169 0,0.0221 0.005,0.005 0.0169,-0.005 0.0221,0 0.005,0.005 -0.005,0.0169 0,0.0221 0.005,0.005 0.0169,-0.005 0.022,0 0.005,0.005 -0.003,0.0155 0,0.022 0.005,0.009 0.0174,0.0128 0.0221,0.0221 0.003,0.007 -0.005,0.0169 0,0.0221 0.005,0.005 0.0169,-0.005 0.0221,0 0.005,0.005 -0.005,0.0169 0,0.022 0.005,0.005 0.0168,-0.005 0.022,0 0.005,0.005 -0.003,0.0155 0,0.0221 0.009,0.0186 0.0348,0.0255 0.0441,0.0441 0.003,0.007 -0.005,0.0169 0,0.0221 0.0104,0.0104 0.0337,-0.0104 0.0441,0 0.005,0.005 -0.005,0.0169 0,0.0221 0.005,0.005 0.0169,-0.005 0.0221,0 0.0104,0.0104 -0.0104,0.0337 0,0.0441 0.005,0.005 0.0169,-0.005 0.0221,0 0.005,0.005 -0.005,0.0169 0,0.0221 0.005,0.005 0.0169,-0.005 0.0221,0 0.005,0.005 -0.005,0.0169 0,0.0221 0.005,0.005 0.0168,-0.005 0.022,0 0.005,0.005 -0.003,0.0155 0,0.022 0.0109,0.0217 0.0774,0.0665 0.0882,0.0882 0.003,0.007 -0.005,0.0169 0,0.0221 0.005,0.005 0.0169,-0.005 0.022,0 0.005,0.005 -0.005,0.0169 0,0.0221 0.005,0.005 0.0169,-0.005 0.0221,0 0.005,0.005 -0.005,0.0169 0,0.0221 0.005,0.005 0.0169,-0.005 0.0221,0 0.0104,0.0104 -0.0104,0.0337 0,0.0441 0.005,0.005 0.0155,-0.003 0.022,0 0.0918,0.0459 -0.0236,-0.002 0.0221,0.0441 0.005,0.005 0.0169,-0.005 0.0221,0 0.0104,0.0104 -0.0104,0.0337 0,0.0441 0.005,0.005 0.0155,-0.003 0.022,0 0.009,0.005 0.0128,0.0174 0.0221,0.0221 0.007,0.003 0.0168,-0.005 0.022,0 0.005,0.005 -0.005,0.0169 0,0.0221 0.005,0.005 0.0169,-0.005 0.0221,0 0.005,0.005 -0.005,0.0169 0,0.0221 0.005,0.005 0.0169,-0.005 0.0221,0 0.0104,0.0104 -0.0104,0.0337 0,0.0441 0.0104,0.0104 0.0337,-0.0104 0.0441,0 0.005,0.005 -0.005,0.0169 0,0.0221 0.005,0.005 0.0169,-0.005 0.022,0 0.0104,0.0104 -0.0104,0.0337 0,0.0441 0.005,0.005 0.0169,-0.005 0.0221,0 0.005,0.005 -0.005,0.0169 0,0.0221 0.0104,0.0104 0.0337,-0.0104 0.0441,0 0.005,0.005 -0.005,0.0169 0,0.0221 0.005,0.005 0.0169,-0.005 0.0221,0 0.005,0.005 -0.003,0.0155 0,0.0221 0.005,0.009 0.0174,0.0127 0.0221,0.022 0.003,0.007 -0.003,0.0155 0,0.022 0.0459,0.0918 -0.002,-0.0236 0.0441,0.0221 0.005,0.005 -0.005,0.0169 0,0.0221 0.005,0.005 0.0169,-0.005 0.0221,0 0.0104,0.0104 -0.0104,0.0337 0,0.0441 0.005,0.005 0.0169,-0.005 0.0221,0 0.005,0.005 -0.005,0.0169 0,0.0221 0.005,0.005 0.0155,-0.003 0.0221,0 0.0918,0.0459 -0.0236,-0.002 0.022,0.0441 0.005,0.005 0.0169,-0.005 0.0221,0 0.005,0.005 -0.005,0.0169 0,0.022 0.005,0.005 0.0169,-0.005 0.0221,0 0.005,0.005 -0.005,0.0169 0,0.0221 0.005,0.005 0.0169,-0.005 0.022,0 0.005,0.005 -0.005,0.0169 0,0.0221 0.005,0.005 0.0169,-0.005 0.0221,0 0.0104,0.0104 -0.0104,0.0337 0,0.0441 0.005,0.005 0.0169,-0.005 0.022,0 0.005,0.005 -0.005,0.0169 0,0.0221 0.005,0.005 0.0169,-0.005 0.0221,0 0.005,0.005 -0.005,0.0169 0,0.022 0.0104,0.0104 0.0337,-0.0104 0.0441,0 0.0104,0.0104 -0.0104,0.0337 0,0.0441 0.005,0.005 0.0168,-0.005 0.022,0 0.005,0.005 -0.005,0.0169 0,0.0221 0.005,0.005 0.0169,-0.005 0.0221,0 0.0104,0.0104 -0.0104,0.0337 0,0.0441 0.005,0.005 0.0169,-0.005 0.022,0 0.005,0.005 -0.005,0.0168 0,0.022 0.005,0.005 0.0169,-0.005 0.0221,0 0.005,0.005 -0.005,0.0169 0,0.022 0.005,0.005 0.0168,-0.005 0.022,0 0.005,0.005 -0.005,0.0169 0,0.0221 0.005,0.005 0.0169,-0.005 0.0221,0 0.005,0.005 -0.005,0.0169 0,0.0221 0.005,0.005 0.0169,-0.005 0.0221,0 0.005,0.005 -0.003,0.0155 0,0.022 0.009,0.0186 0.0348,0.0255 0.0441,0.0441 0.003,0.007 -0.005,0.0169 0,0.0221 0.005,0.005 0.0169,-0.005 0.022,0 0.0104,0.0104 -0.0104,0.0337 0,0.0441 0.0104,0.0104 0.0337,-0.0104 0.0441,0 0.005,0.005 -0.005,0.0169 0,0.0221 0.005,0.005 0.0169,-0.005 0.022,0 0.0104,0.0104 -0.0104,0.0337 0,0.0441 0.005,0.005 0.0169,-0.005 0.0221,0 0.0456,0.0456 -0.0697,-0.002 0.0221,0.0441 0.007,0.003 0.0169,-0.005 0.0221,0 0.005,0.005 -0.003,0.0155 0,0.0221 0.005,0.009 0.0174,0.0127 0.022,0.022 0.003,0.007 -0.005,0.0169 0,0.022 0.005,0.005 0.0169,-0.005 0.022,0 0.005,0.005 -0.005,0.0169 0,0.0221 0.005,0.005 0.0169,-0.005 0.0221,0 0.0104,0.0104 -0.0104,0.0337 0,0.0441 0.005,0.005 0.0169,-0.005 0.0221,0 0.005,0.005 -0.005,0.0168 0,0.022 0.005,0.005 0.0169,-0.005 0.0221,0 0.005,0.005 -0.003,0.0155 0,0.0221 0.005,0.009 0.0174,0.0128 0.022,0.022 0.003,0.007 -0.005,0.0169 0,0.0221 0.005,0.005 0.0169,-0.005 0.0221,0 0.005,0.005 -0.005,0.0169 0,0.022 0.005,0.005 0.0169,-0.005 0.022,0 0.005,0.005 -0.005,0.0169 0,0.0221 0.005,0.005 0.0169,-0.005 0.0221,0 0.0104,0.0104 -0.0104,0.0337 0,0.0441 0.005,0.005 0.0169,-0.005 0.022,0 0.005,0.005 -0.005,0.0169 0,0.022 0.005,0.005 0.0169,-0.005 0.0221,0 0.005,0.005 -0.005,0.0169 0,0.022 0.005,0.005 0.0169,-0.005 0.0221,0 0.005,0.005 -0.003,0.0155 0,0.0221 0.005,0.009 0.0174,0.0128 0.0221,0.0221 0.003,0.007 -0.005,0.0169 0,0.0221 0.005,0.005 0.0168,-0.005 0.022,0 0.005,0.005 -0.005,0.0168 0,0.022 0.005,0.005 0.022,-0.007 0.022,0 0,0.007 -0.0147,0 -0.022,0 l 13.1346,16.58677 c 0.0884,-0.0221 0.0112,0.0262 0.0211,0.0361 0.003,0.003 0.008,-0.003 0.011,0 0.001,0.001 -0.001,0.004 0,0.006 0.001,0.001 0.004,-0.001 0.006,0 0.003,0.003 -0.003,0.008 0,0.011 0.001,0.001 0.004,-0.001 0.006,0 0.001,0.001 -0.001,0.004 0,0.006 0.001,0.001 0.004,-0.001 0.006,0 0.001,0.001 -0.001,0.004 0,0.006 0.001,0.001 0.004,-0.001 0.006,0 0.003,0.003 -0.003,0.008 0,0.011 0.0147,0 -0.002,-0.002 0.006,0.006 0.001,0.001 0.004,-0.001 0.006,0 0.003,0.003 -0.003,0.008 0,0.011 0.001,0.001 0.004,-10e-4 0.006,0 0.001,0.001 -0.001,0.004 0,0.006 0.001,0.001 0.004,0 0.006,0 0,0.002 -0.001,0.004 0,0.006 0.001,0.001 0.004,-10e-4 0.006,0 0.003,0.003 -0.003,0.008 0,0.011 0.001,10e-4 0.004,-0.001 0.006,0 0.001,10e-4 -0.001,0.004 0,0.006 0.001,10e-4 0.004,-0.001 0.006,0 0.004,0.004 -0.004,0.007 0,0.011 0.003,0.003 0.008,-0.003 0.011,0 0.003,0.003 -0.003,0.008 0,0.011 0.001,0.001 0.004,-0.001 0.006,0 0.001,0.001 -0.001,0.004 0,0.006 0.001,0.001 0.004,-0.001 0.006,0 0.001,0.001 -0.001,0.004 0,0.006 0.0147,0 -0.002,-0.002 0.006,0.006 0.001,0.001 0.004,-0.001 0.006,0 0.004,0.004 -0.004,0.007 0,0.011 0.001,0.001 0.004,-0.001 0.006,0 0.001,0.001 -0.001,0.004 0,0.006 0.001,0.001 0.004,-0.001 0.006,0 0.001,0.001 -0.001,0.004 0,0.006 0.003,0.003 0.008,-0.003 0.011,0 0.004,0.004 -0.004,0.007 0,0.011 0.001,0.001 0.004,-0.001 0.006,0 0.001,0.001 -0.001,0.004 0,0.006 0.001,0.001 0.004,-0.001 0.006,0 0.001,0.001 -0.001,0.004 0,0.006 0.001,0.001 0.004,-0.001 0.006,0 0.001,0.001 -0.001,0.004 0,0.006 0.001,0.001 0.004,-0.001 0.006,0 0.001,0.001 -0.001,0.004 0,0.006 0.001,0.001 0.004,-0.001 0.006,0 0.001,0.001 -0.001,0.004 0,0.006 0.001,0.001 0.004,0 0.006,0 0,0.002 -0.001,0.004 0,0.006 0.001,0.001 0.004,-0.001 0.006,0 0.001,0.001 -8e-4,0.004 0,0.006 0.001,0.002 0.004,0.003 0.006,0.006 7.9e-4,0.002 -0.001,0.004 0,0.006 0.001,0.001 0.004,-0.001 0.006,0 0.001,0.001 -0.001,0.004 0,0.006 0.001,0.001 0.004,0 0.006,0 0,0.002 -8e-4,0.004 0,0.006 0.001,0.002 0.004,0.004 0.006,0.006 0.002,0.002 0.003,0.004 0.006,0.006 0.002,7.9e-4 0.004,-0.001 0.006,0 0.001,0.001 -8e-4,0.004 0,0.006 0.001,0.002 0.004,0.003 0.006,0.006 7.9e-4,0.002 -0.001,0.004 0,0.006 0.001,0.001 0.004,-0.001 0.006,0 0.001,0.001 -0.001,0.004 0,0.006 0.0147,0 -0.002,-0.002 0.006,0.006 0.001,0.001 0.004,-0.001 0.006,0 0.001,0.001 -0.001,0.004 0,0.006 0.001,0.001 0.004,-0.001 0.006,0 0.003,0.003 -0.003,0.008 0,0.011 0.0114,0.0114 -5.3e-4,-0.0174 0.011,0.006 7.9e-4,0.002 -0.001,0.004 0,0.006 0.001,0.001 0.004,-0.001 0.006,0 0.001,0.001 -8e-4,0.004 0,0.006 0.001,0.002 0.004,0.003 0.006,0.006 7.9e-4,0.002 -0.001,0.004 0,0.006 0.001,0.001 0.004,-0.001 0.006,0 0.001,0.001 -0.001,0.004 0,0.006 0.001,0.001 0.004,-0.001 0.006,0 0.001,0.001 -0.001,0.004 0,0.006 0.001,0.001 0.004,-0.001 0.006,0 0.001,0.001 -0.001,0.004 0,0.006 0.001,0.001 0.004,-0.001 0.006,0 0.001,0.001 -0.001,0.004 0,0.006 0.001,0.001 0.004,-0.001 0.006,0 0.001,0.001 0,0.004 0,0.006 0.002,0 0.004,-8e-4 0.006,0 0.0229,0.0115 -0.006,-2.7e-4 0.006,0.011 0.001,0.001 0.004,-0.001 0.006,0 0.001,0.001 -0.001,0.004 0,0.006 0.001,0.001 0.004,-0.001 0.006,0 0.001,0.001 -0.001,0.004 0,0.006 0.001,0.001 0.004,-0.001 0.006,0 0.001,0.001 -0.001,0.004 0,0.006 0.001,0.001 0.004,-0.001 0.006,0 0.001,0.001 -0.001,0.004 0,0.006 0.001,0.001 0.004,-0.001 0.006,0 0.001,0.001 -0.001,0.004 0,0.006 0.001,0.001 0.004,-0.001 0.006,0 0.001,0.001 -0.001,0.004 0,0.006 0.001,0.001 0.004,-0.001 0.006,0 0.001,0.001 -0.001,0.004 0,0.006 0.001,0.001 0.004,-0.001 0.006,0 0.001,0.001 -0.001,0.004 0,0.006 0.001,0.001 0.004,-0.001 0.006,0 0.001,0.001 -0.001,0.004 0,0.006 0.001,0.001 0.004,-8e-4 0.006,0 0.002,0.001 0.003,0.004 0.006,0.006 0.002,7.9e-4 0.004,-0.001 0.006,0 0.004,0.004 -0.004,0.007 0,0.011 0.001,0.001 0.004,-0.001 0.006,0 0.001,0.001 -0.001,0.004 0,0.006 0.001,0.001 0.004,-8e-4 0.006,0 0.002,0.001 0.003,0.004 0.006,0.006 0.002,7.9e-4 0.004,-0.001 0.006,0 0.001,0.001 -0.001,0.004 0,0.006 0.001,0.001 0.004,-0.001 0.006,0 0.001,0.001 -0.001,0.004 0,0.006 0.001,0.001 0.004,-0.001 0.006,0 0.001,0.001 -0.001,0.004 0,0.006 0.001,0.001 0.004,-0.001 0.006,0 0.001,0.001 -0.001,0.004 0,0.006 0.001,0.001 0.004,-8e-4 0.006,0 0.002,0.001 0.003,0.004 0.006,0.006 0.002,7.9e-4 0.004,-0.001 0.006,0 0.003,0.003 -0.003,0.008 0,0.011 0.003,0.003 0.008,-0.003 0.011,0 0.001,0.001 -0.001,0.004 0,0.006 0.001,0.001 0.004,-8e-4 0.006,0 0.002,0.001 0.003,0.004 0.006,0.006 0.002,7.9e-4 0.004,-10e-4 0.006,0 0.003,0.003 -0.003,0.008 0,0.011 0.003,0.003 0.008,-0.003 0.011,0 0.001,10e-4 -0.001,0.004 0,0.006 0.001,10e-4 0.004,-8e-4 0.006,0 0.002,10e-4 0.003,0.004 0.006,0.006 0.002,7.9e-4 0.004,-0.001 0.006,0 0.001,10e-4 -0.001,0.004 0,0.006 0.001,10e-4 0.004,-0.001 0.006,0 0.001,10e-4 -0.001,0.004 0,0.006 0.003,0.003 0.008,-0.003 0.011,0 0.001,10e-4 -0.001,0.004 0,0.006 0.003,0.003 0.008,-0.003 0.011,0 0.001,10e-4 -0.001,0.004 0,0.006 0.001,10e-4 0.004,-0.001 0.006,0 0.001,10e-4 -0.001,0.004 0,0.006 0.001,0.001 0.004,-10e-4 0.006,0 0.001,0.001 -0.001,0.004 0,0.006 0.003,0.003 0.008,-0.003 0.011,0 0.001,0.001 -10e-4,0.004 0,0.006 0.001,0.001 0.004,-10e-4 0.006,0 0.001,0.001 -10e-4,0.004 0,0.006 0.004,0.004 0.011,-0.006 0.0165,0.006 7.9e-4,0.002 -0.001,0.004 0,0.006 0.003,0.003 0.008,-0.003 0.011,0 0.001,0.001 -0.001,0.004 0,0.006 0.003,0.003 0.008,-0.003 0.011,0 0.001,0.001 -10e-4,0.004 0,0.006 0.001,0.001 0.004,-8e-4 0.006,0 0.005,0.002 0.006,0.009 0.011,0.011 0.003,0.002 0.008,-0.003 0.011,0 0.001,10e-4 -0.001,0.004 0,0.006 0.001,10e-4 0.004,0 0.006,0 0,0.002 -0.001,0.004 0,0.006 0.003,0.003 0.008,-0.002 0.011,0 0.005,0.002 0.006,0.009 0.011,0.011 0.002,7.9e-4 0.004,-0.001 0.006,0 0.001,0.001 -0.001,0.004 0,0.006 0.003,0.003 0.008,-0.002 0.011,0 0.002,0.001 0.003,0.004 0.006,0.006 0.003,0.002 0.008,-0.002 0.011,0 0.002,0.001 0.003,0.004 0.006,0.006 0.002,7.9e-4 0.004,-0.001 0.006,0 0.001,0.001 -0.001,0.004 0,0.006 0.001,0.001 0.004,-8e-4 0.006,0 0.002,0.001 0.003,0.004 0.006,0.006 0.003,0.002 0.008,-0.003 0.011,0 0.001,0.001 -10e-4,0.004 0,0.006 0.001,0.001 0.0143,-0.001 0.0165,0 0.002,0.001 0.003,0.004 0.006,0.006 0.002,7.9e-4 0.004,0 0.006,0 0.002,0.002 0.003,0.004 0.006,0.006 0.002,7.9e-4 0.004,-0.001 0.006,0 0.001,10e-4 -0.001,0.004 0,0.006 0.001,10e-4 0.0207,-0.001 0.022,0 0.001,10e-4 -10e-4,0.004 0,0.006 0.003,0.003 0.008,-0.002 0.011,0 0.002,10e-4 0.003,0.004 0.006,0.006 0.003,10e-4 0.0205,-0.002 0.022,0 0.001,10e-4 -0.001,0.004 0,0.006 0.003,0.003 0.008,-0.003 0.011,0 0.001,10e-4 -0.001,0.004 0,0.006 0.002,0.002 0.0259,-0.002 0.0276,0 0.001,10e-4 -0.001,0.004 0,0.006 0.001,10e-4 0.0207,-0.001 0.022,0 0.001,10e-4 -0.001,0.004 0,0.006 0.003,0.003 0.0138,-0.003 0.0165,0 0.001,10e-4 -0.001,0.004 0,0.006 0.001,10e-4 0.004,-8e-4 0.006,0 0.002,10e-4 0.003,0.004 0.006,0.006 0.002,10e-4 0.0154,-0.001 0.0165,0 10e-4,10e-4 -0.001,0.004 0,0.006 10e-4,10e-4 0.004,0 0.006,0 0.009,0 0.0184,0 0.0276,0 0.002,0 0.004,-0.001 0.006,0 0.001,10e-4 -0.001,0.004 0,0.006 0.001,10e-4 0.0144,-0.001 0.0165,0 0.002,10e-4 0.003,0.004 0.006,0.006 0.002,7.9e-4 0.004,-0.001 0.006,0 0.001,10e-4 -0.001,0.004 0,0.006 0.002,0.002 0.0258,-0.002 0.0276,0 0.001,10e-4 -0.001,0.004 0,0.006 0.002,0.002 0.0259,-0.002 0.0276,0 10e-4,10e-4 -0.001,0.004 0,0.006 10e-4,10e-4 0.004,0 0.006,0 0.009,0 0.0184,0 0.0276,0 0.002,0 0.004,-0.001 0.006,0 0.001,10e-4 -0.001,0.004 0,0.006 0.001,10e-4 0.004,-8e-4 0.006,0 0.002,10e-4 0.003,0.004 0.006,0.006 0.003,0.002 0.0297,-0.002 0.0331,0 0.002,10e-4 0.003,0.004 0.006,0.006 0.004,0.002 0.0256,-0.002 0.0276,0 0.001,10e-4 -10e-4,0.004 0,0.006 1.7e-4,1.8e-4 0.0152,0 0.0165,0 0.009,0 0.0184,0 0.0276,0 0.002,0 0.004,-0.001 0.006,0 0.001,10e-4 -0.001,0.004 0,0.006 0.003,0.003 0.0138,-0.003 0.0165,0 10e-4,10e-4 -0.001,0.004 0,0.006 10e-4,0.001 0.004,0 0.006,0 0.002,0 0.004,0 0.006,0 0.0165,0 0.0331,0 0.0496,0 0.0257,0 0.0514,0 0.0772,0 0.002,0 0.004,0 0.006,0 0.002,0 0.004,0.001 0.006,0 0.001,-10e-4 -10e-4,-0.004 0,-0.006 0.001,-0.001 0.004,0 0.006,0 0.002,0 0.004,0 0.006,0 0.011,0 0.0221,0 0.0331,0 0.002,0 0.0149,7.9e-4 0.0165,0 0.002,-0.001 0.003,-0.004 0.006,-0.006 0.002,-8e-4 0.004,0 0.006,0 0.002,0 0.004,0 0.006,0 0.009,0 0.0184,0 0.0276,0 0.002,0 0.004,0 0.006,0 0.002,0 0.004,7.9e-4 0.006,0 0.0136,-0.007 -0.002,-0.006 0.011,-0.006 0.011,0 0.022,0 0.0331,0 0.002,0 0.004,10e-4 0.006,0 0.001,-0.001 -0.001,-0.004 0,-0.006 0.003,-0.003 0.0138,0.003 0.0165,0 0.001,-0.001 -10e-4,-0.004 0,-0.006 0.001,-0.001 0.0207,10e-4 0.0221,0 10e-4,-0.001 -0.001,-0.004 0,-0.006 10e-4,-0.001 0.0207,10e-4 0.022,0 0.001,-0.001 -0.001,-0.004 0,-0.006 0.001,-0.001 0.0207,10e-4 0.0221,0 0.001,-0.001 -0.001,-0.004 0,-0.006 0.003,-0.003 0.008,0.003 0.011,0 0.001,-0.001 -0.002,-0.005 0,-0.006 0.004,-0.002 0.0201,0.002 0.022,0 10e-4,-0.001 -0.001,-0.004 0,-0.006 0.003,-0.003 0.008,0.002 0.011,0 0.002,-0.001 0.003,-0.004 0.006,-0.006 0.002,-0.001 0.0154,10e-4 0.0165,0 0.001,-0.001 -10e-4,-0.004 0,-0.006 0.003,-0.003 0.008,0.003 0.011,0 10e-4,-0.001 -0.001,-0.004 0,-0.006 0.003,-0.003 0.0138,0.003 0.0165,0 0.001,-0.001 -0.001,-0.004 0,-0.006 0.001,-0.001 0.0207,10e-4 0.0221,0 0.001,-0.001 -10e-4,-0.004 0,-0.006 0.001,-0.001 0.004,7.9e-4 0.006,0 0.002,-0.001 0.003,-0.004 0.006,-0.006 0.003,-0.002 0.008,0.003 0.011,0 10e-4,-0.001 -0.001,-0.004 0,-0.006 10e-4,-0.001 0.004,7.9e-4 0.006,0 0.002,-0.001 0.003,-0.004 0.006,-0.006 0.002,-0.001 0.0154,10e-4 0.0165,0 0.001,-0.001 -0.001,-0.004 0,-0.006 0.003,-0.003 0.0138,0.003 0.0165,0 0.001,-0.001 -0.001,-0.004 0,-0.006 0.001,-0.001 0.004,10e-4 0.006,0 0.001,-0.001 -0.001,-0.004 0,-0.006 0.003,-0.003 0.008,0.002 0.011,0 0.002,-0.001 0.003,-0.004 0.006,-0.006 0.002,-8e-4 0.004,0.001 0.006,0 0.001,-0.001 -0.001,-0.004 0,-0.006 0.003,-0.003 0.0138,0.003 0.0165,0 0.001,-0.001 -0.001,-0.004 0,-0.006 0.001,-0.001 0.004,0.001 0.006,0 0.001,-0.001 -0.001,-0.004 0,-0.006 0.003,-0.003 0.008,0.002 0.011,0 0.002,-0.001 0.003,-0.004 0.006,-0.006 0.003,-0.002 0.008,0.003 0.011,0 0.001,-0.001 -0.001,-0.004 0,-0.006 0.003,-0.003 0.008,0.002 0.011,0 0.005,-0.002 0.006,-0.009 0.011,-0.011 0.002,-8e-4 0.004,10e-4 0.006,0 0.001,-0.001 -10e-4,-0.004 0,-0.006 0.003,-0.003 0.008,0.003 0.011,0 10e-4,-0.001 -0.001,-0.004 0,-0.006 0.003,-0.003 0.008,0.002 0.011,0 0.002,-0.001 0.003,-0.004 0.006,-0.006 0.002,-8e-4 0.004,7.9e-4 0.006,0 0.002,-0.001 0.003,-0.004 0.006,-0.006 0.002,-8e-4 0.004,10e-4 0.006,0 0.001,-0.001 -0.001,-0.004 0,-0.006 0.003,-0.003 0.008,0.003 0.011,0 0.001,-0.001 -0.001,-0.004 0,-0.006 0.001,-0.001 0.004,10e-4 0.006,0 0.001,-0.001 -0.001,-0.004 0,-0.006 0.003,-0.003 0.008,0.003 0.011,0 0.001,-0.001 -0.001,-0.004 0,-0.006 0.003,-0.003 0.008,0.003 0.011,0 0.001,-0.001 -0.001,-0.004 0,-0.006 0.001,-0.001 0.004,10e-4 0.006,0 0.001,-0.001 -0.001,-0.004 0,-0.006 0.003,-0.003 0.008,0.003 0.011,0 0.001,-0.001 -10e-4,-0.004 0,-0.006 0.003,-0.003 0.008,0.003 0.011,0 10e-4,-0.001 -0.001,-0.004 0,-0.006 0.003,-0.003 0.008,0.003 0.011,0 10e-4,-0.001 -0.001,-0.004 0,-0.006 10e-4,-0.001 0.004,10e-4 0.006,0 10e-4,-0.001 -0.001,-0.004 0,-0.006 0.003,-0.003 0.008,0.003 0.011,0 0.001,-0.001 -0.001,-0.004 0,-0.006 0.003,-0.003 0.008,0.003 0.011,0 0.003,-0.003 -0.003,-0.008 0,-0.011 0.003,-0.003 0.008,0.003 0.011,0 0.001,-0.001 -0.001,-0.004 0,-0.006 0.001,-0.001 0.004,7.9e-4 0.006,0 0.002,-0.001 0.003,-0.004 0.006,-0.006 0.002,-8e-4 0.004,7.9e-4 0.006,0 0.0229,-0.0115 -0.006,2.6e-4 0.006,-0.011 0.003,-0.003 0.008,0.003 0.011,0 0.001,-10e-4 -0.001,-0.004 0,-0.006 0.001,-10e-4 0.004,0.001 0.006,0 0.001,-10e-4 -0.001,-0.004 0,-0.006 0.001,-10e-4 0.004,0.001 0.006,0 0.001,-10e-4 -0.001,-0.004 0,-0.006 0.003,-0.003 0.008,0.003 0.011,0 0,-0.0147 -0.002,0.002 0.006,-0.006 0.001,-10e-4 -10e-4,-0.004 0,-0.006 0.003,-0.003 0.0138,0.003 0.0165,0 0.001,-10e-4 -0.001,-0.004 0,-0.006 0.001,-10e-4 0.004,0.001 0.006,0 0.001,-10e-4 -0.001,-0.004 0,-0.006 0.001,-10e-4 0.004,0.001 0.006,0 0.001,-10e-4 -0.001,-0.004 0,-0.006 0.001,-10e-4 0.004,7.9e-4 0.006,0 0.002,-10e-4 0.003,-0.004 0.006,-0.006 0.002,-8e-4 0.004,0.001 0.006,0 0.001,-10e-4 -0.001,-0.004 0,-0.006 0.001,-10e-4 0.004,7.9e-4 0.006,0 0.002,-10e-4 0.003,-0.004 0.006,-0.006 0.002,-8e-4 0.004,0.001 0.006,0 0.001,-10e-4 -0.001,-0.004 0,-0.006 0.001,-10e-4 0.004,0.001 0.006,0 0.001,-10e-4 -0.001,-0.004 0,-0.006 0.001,-10e-4 0.004,0.001 0.006,0 0.001,-10e-4 -0.001,-0.004 0,-0.006 0.003,-0.003 0.008,0.003 0.011,0 0.001,-0.001 -0.001,-0.004 0,-0.006 0.001,-0.001 0.004,10e-4 0.006,0 0.001,-0.001 -0.001,-0.004 0,-0.006 0.001,-0.001 0.004,10e-4 0.006,0 0.001,-0.001 -0.001,-0.004 0,-0.006 0.001,-0.001 0.004,10e-4 0.006,0 0.001,-0.001 -0.001,-0.004 0,-0.006 0.001,-0.001 0.004,7.9e-4 0.006,0 0.005,-0.003 0.0166,-0.0193 0.022,-0.0221 0.002,-8e-4 0.004,0.001 0.006,0 0.001,-10e-4 -10e-4,-0.004 0,-0.006 0.003,-0.003 0.008,0.003 0.011,0 0.003,-0.003 -0.003,-0.008 0,-0.011 0.003,-0.003 0.008,0.003 0.011,0 0.001,-0.001 -0.001,-0.004 0,-0.006 0.001,-0.001 0.004,0 0.006,0 0,-0.002 -0.001,-0.004 0,-0.006 0.001,-0.001 0.004,0.001 0.006,0 0.003,-0.003 -0.003,-0.008 0,-0.011 0.003,-0.003 0.008,0.002 0.011,0 0.0229,-0.0115 -0.006,2.6e-4 0.006,-0.011 0.0147,0 -0.002,0.002 0.006,-0.006 0.001,-0.001 0.004,0.001 0.006,0 0.001,-0.001 -0.001,-0.004 0,-0.006 0.001,-0.001 0.004,7.9e-4 0.006,0 0.007,-0.003 0.01,-0.0132 0.0165,-0.0165 0.002,-8e-4 0.004,0.001 0.006,0 10e-4,-0.001 -0.001,-0.004 0,-0.006 10e-4,-0.001 0.004,0 0.006,0 0,-0.002 -0.001,-0.004 0,-0.006 10e-4,-0.001 0.004,0.001 0.006,0 10e-4,-0.001 -0.001,-0.004 0,-0.006 10e-4,-0.001 0.004,7.9e-4 0.006,0 0.002,-0.001 0.003,-0.004 0.006,-0.006 0.002,-8e-4 0.004,0.001 0.006,0 0.004,-0.004 -0.004,-0.007 0,-0.011 0.0114,-0.0114 -5.3e-4,0.0174 0.011,-0.006 7.9e-4,-0.002 -0.001,-0.004 0,-0.006 0.003,-0.003 0.008,0.003 0.011,0 0.001,-0.001 -0.001,-0.004 0,-0.006 0.001,-0.001 0.004,0.001 0.006,0 0.001,-0.001 -0.001,-0.004 0,-0.006 0.001,-0.001 0.004,0.001 0.006,0 0.001,-0.001 -0.001,-0.004 0,-0.006 0.001,-0.001 0.004,0.001 0.006,0 0.001,-0.001 -0.001,-0.004 0,-0.006 0.003,-0.003 0.008,0.003 0.011,0 0.004,-0.004 -0.004,-0.007 0,-0.011 0.001,-0.001 0.004,0.001 0.006,0 0.001,-0.001 -0.001,-0.004 0,-0.006 0.003,-0.003 0.008,0.003 0.011,0 0.001,-0.001 -0.001,-0.004 0,-0.006 0.001,-0.001 0.004,0.001 0.006,0 0.001,-0.001 -0.001,-0.004 0,-0.006 0.001,-0.001 0.004,0 0.006,0 0,-0.002 -0.001,-0.004 0,-0.006 0.001,-0.001 0.004,0.001 0.006,0 0.001,-0.001 -0.001,-0.004 0,-0.006 0.003,-0.003 0.008,0.003 0.011,0 0.001,-0.001 -0.001,-0.004 0,-0.006 0.001,-0.001 0.004,0.001 0.006,0 0.001,-0.001 -8e-4,-0.004 0,-0.006 0.0115,-0.0229 -2.7e-4,0.006 0.011,-0.006 0.001,-0.001 -10e-4,-0.004 0,-0.006 0.0147,0 -0.002,0.002 0.006,-0.006 0.001,-0.001 0.004,0.001 0.006,0 0.001,-0.001 -10e-4,-0.004 0,-0.006 0.003,-0.003 0.008,0.003 0.011,0 0.001,-0.001 -10e-4,-0.004 0,-0.006 0.001,-0.001 0.004,0.001 0.006,0 0.001,-0.001 -10e-4,-0.004 0,-0.006 0.001,-0.001 0.004,0.001 0.006,0 0.001,-0.001 -10e-4,-0.004 0,-0.006 0.003,-0.003 0.008,0.003 0.011,0 0.004,-0.004 -0.004,-0.007 0,-0.011 0.003,-0.003 0.008,0.003 0.011,0 0.001,-0.001 -0.001,-0.004 0,-0.006 0.001,-0.001 0.004,0.001 0.006,0 0.001,-0.001 -0.001,-0.004 0,-0.006 0.001,-0.001 0.004,0.001 0.006,0 0.001,-0.001 -0.001,-0.004 0,-0.006 0.001,-0.001 0.004,0.001 0.006,0 0.001,-0.001 -0.001,-0.004 0,-0.006 0.001,-0.001 0.004,0.001 0.006,0 0.001,-0.001 -0.001,-0.004 0,-0.006 0.001,-0.001 0.004,0.001 0.006,0 0.001,-0.001 -0.001,-0.004 0,-0.006 0.003,-0.003 0.008,0.003 0.011,0 0.001,-0.001 -0.001,-0.004 0,-0.006 0.001,-0.001 0.004,7.9e-4 0.006,0 0.002,-0.001 0.003,-0.004 0.006,-0.006 0.002,-8e-4 0.004,0.001 0.006,0 0.001,-0.001 -0.001,-0.004 0,-0.006 0.001,-0.001 0.004,0 0.006,0 0,-0.002 -0.001,-0.004 0,-0.006 0.001,-0.001 0.004,0.001 0.006,0 0.001,-0.001 -0.001,-0.004 0,-0.006 0.003,-0.003 0.008,0.003 0.011,0 0.001,-0.001 -0.001,-0.004 0,-0.006 0.001,-0.001 0.004,0.001 0.006,0 0.001,-0.001 -0.001,-0.004 0,-0.006 0.0147,0 -0.002,0.002 0.006,-0.006 0.003,-0.003 0.008,0.003 0.011,0 0.004,-0.004 -0.004,-0.007 0,-0.011 0.003,-0.003 0.008,0.003 0.011,0 0.001,-0.001 -0.001,-0.004 0,-0.006 0.007,-0.007 0.006,0.009 0.006,-0.006 l 7.26225,-5.99063 c 0.0184,-0.0221 0.0367,-0.0441 0.0551,-0.0661 0.004,0 0.008,0.003 0.011,0 0.003,-0.003 -0.003,-0.008 0,-0.011 0.003,-0.003 0.008,0.003 0.011,0 0.005,-0.005 -0.005,-0.0169 0,-0.0221 0.003,-0.003 0.008,0.003 0.011,0 0.003,-0.003 -0.003,-0.008 0,-0.011 0.003,-0.003 0.008,0.003 0.011,0 0.006,-0.006 -0.006,-0.0276 0,-0.0331 0.005,-0.005 0.0169,0.005 0.022,0 0.005,-0.005 -0.005,-0.0169 0,-0.0221 0.003,-0.003 0.008,0.003 0.011,0 0.005,-0.005 -0.005,-0.0169 0,-0.0221 0.0294,0 -0.004,0.004 0.011,-0.011 0.005,-0.005 0.0169,0.005 0.022,0 0.005,-0.005 -0.005,-0.0169 0,-0.0221 0.003,-0.003 0.008,0.003 0.011,0 0.005,-0.005 -0.005,-0.0168 0,-0.022 0.003,-0.003 0.008,0.003 0.011,0 0.005,-0.005 -0.005,-0.0169 0,-0.0221 0.005,-0.005 0.0169,0.005 0.0221,0 0.003,-0.003 -0.002,-0.008 0,-0.011 0.002,-0.005 0.009,-0.006 0.011,-0.011 0.002,-0.003 -0.003,-0.008 0,-0.011 0.003,-0.003 0.008,0.003 0.011,0 0.005,-0.005 -0.005,-0.0169 0,-0.0221 0.003,-0.003 0.008,0.003 0.011,0 0.003,-0.003 -0.003,-0.008 0,-0.011 0.003,-0.003 0.008,0.003 0.011,0 0.005,-0.005 -0.005,-0.0169 0,-0.022 0.003,-0.003 0.008,0.003 0.011,0 0.003,-0.003 -0.003,-0.008 0,-0.011 0.003,-0.003 0.008,0.003 0.011,0 0.006,-0.006 -0.006,-0.0276 0,-0.0331 0.003,-0.003 0.008,0.003 0.011,0 0.006,-0.006 -0.006,-0.0276 0,-0.0331 0.005,-0.005 0.0169,0.005 0.022,0 0.003,-0.003 -0.003,-0.0414 0,-0.0441 0.003,-0.003 0.008,0.003 0.011,0 0.003,-0.003 -0.003,-0.0414 0,-0.0441 0.003,-0.003 0.008,0.003 0.011,0 0.003,-0.003 0,-0.007 0,-0.011 0,-0.0221 0,-0.0441 0,-0.0662 0,-0.004 -5.2e-4,-0.0436 0,-0.0441 0.003,-0.003 0.008,0.003 0.011,0 0.002,-0.002 -0.002,-0.0287 0,-0.0331 0.002,-0.005 0.009,-0.006 0.011,-0.011 0.001,-0.003 0,-0.0383 0,-0.0441 0,-0.0294 0,-0.0588 0,-0.0882 0,-0.0294 0,-0.0588 0,-0.0882 0,-0.004 0,-0.007 0,-0.011 0,-0.004 0.003,-0.008 0,-0.011 -0.003,-0.003 -0.008,0.003 -0.011,0 -0.003,-0.003 0.003,-0.0414 0,-0.0441 -0.003,-0.003 -0.008,0.003 -0.011,0 -0.003,-0.003 0.003,-0.0414 0,-0.0441 -0.003,-0.003 -0.008,0.003 -0.011,0 -0.003,-0.003 0.003,-0.0414 0,-0.0441 -0.003,-0.003 -0.008,0.003 -0.011,0 -0.005,-0.005 0.005,-0.0168 0,-0.022 -0.003,-0.003 -0.008,0.003 -0.011,0 -0.005,-0.005 0.003,-0.0155 0,-0.0221 -0.002,-0.005 -0.009,-0.006 -0.011,-0.011 -0.002,-0.004 0.002,-0.0308 0,-0.0331 -0.003,-0.003 -0.008,0.003 -0.011,0 -0.006,-0.006 0.006,-0.0276 0,-0.0331 -0.003,-0.003 -0.008,0.003 -0.011,0 -0.003,-0.003 0.003,-0.008 0,-0.011 -0.003,-0.003 -0.008,0.003 -0.011,0 -0.006,-0.006 0.006,-0.0276 0,-0.0331 -0.003,-0.003 -0.008,0.003 -0.011,0 -0.005,-0.005 0.005,-0.0169 0,-0.0221 -0.003,-0.003 -0.008,0.003 -0.011,0 -0.005,-0.005 0.005,-0.0168 0,-0.022 -0.003,-0.003 -0.008,0.003 -0.011,0 -0.005,-0.005 0.005,-0.0169 0,-0.0221 -0.003,-0.003 -0.008,0.003 -0.011,0 -0.003,-0.003 0.003,-0.008 0,-0.011 -0.003,-0.003 -0.008,0.003 -0.011,0 -0.003,-0.003 0.002,-0.008 0,-0.011 -0.002,-0.005 -0.009,-0.006 -0.011,-0.011 -0.002,-0.003 0.003,-0.008 0,-0.011 -0.003,-0.003 -0.008,0.003 -0.011,0 -0.005,-0.005 0.005,-0.0169 0,-0.0221 -0.005,-0.005 -0.0169,0.005 -0.0221,0 -0.005,-0.005 0.005,-0.0169 0,-0.022 -0.003,-0.003 -0.008,0.003 -0.011,0 0,-0.0294 0.004,0.004 -0.011,-0.011 -0.005,-0.005 0.005,-0.0169 0,-0.0221 -0.005,-0.005 -0.0168,0.005 -0.022,0 -0.005,-0.005 0.005,-0.0168 0,-0.022 -0.003,-0.003 -0.008,0.003 -0.011,0 -0.005,-0.005 0.005,-0.0169 0,-0.022 -0.003,-0.003 -0.008,0.003 -0.011,0 -0.003,-0.003 0.003,-0.008 0,-0.011 -0.005,-0.005 -0.0169,0.005 -0.022,0 -0.003,-0.003 0.002,-0.008 0,-0.011 -0.002,-0.005 -0.009,-0.006 -0.011,-0.011 -0.002,-0.003 0.003,-0.008 0,-0.011 -0.003,-0.003 -0.008,0.003 -0.011,0 -0.003,-0.003 0.003,-0.008 0,-0.011 -0.003,-0.003 -0.008,0.002 -0.011,0 -0.005,-0.002 -0.006,-0.009 -0.011,-0.011 -0.003,-0.002 -0.008,0.003 -0.011,0 -0.005,-0.005 0.005,-0.0169 0,-0.0221 -0.003,-0.003 -0.008,0.003 -0.011,0 -0.003,-0.003 0.003,-0.008 0,-0.011 -0.003,-0.003 -0.008,0.002 -0.011,0 -0.005,-0.002 -0.006,-0.009 -0.011,-0.011 -0.003,-0.002 -0.008,0.003 -0.011,0 -0.005,-0.005 0.005,-0.0169 0,-0.0221 -0.003,-0.003 -0.008,0.002 -0.011,0 -0.005,-0.002 -0.006,-0.009 -0.011,-0.011 -0.003,-0.002 -0.008,0.003 -0.011,0 -0.003,-0.003 0.003,-0.008 0,-0.011 -0.003,-0.003 -0.008,0.003 -0.011,0 -0.003,-0.003 0.003,-0.008 0,-0.011 -0.003,-0.003 -0.008,0.003 -0.011,0 -0.003,-0.003 0.003,-0.008 0,-0.011 -0.003,-0.003 -0.008,0.003 -0.011,0 -0.003,-0.003 0.003,-0.008 0,-0.011 -0.005,-0.005 -0.0169,0.005 -0.0221,0 -0.005,-0.005 0.005,-0.0169 0,-0.0221 -0.003,-0.003 -0.008,0.003 -0.011,0 -0.003,-0.003 0,-0.007 0,-0.011 -0.004,0 -0.008,0.003 -0.011,0 -0.003,-0.003 0.003,-0.008 0,-0.011 -0.005,-0.005 -0.0168,0.005 -0.022,0 -0.003,-0.003 0.003,-0.008 0,-0.011 -0.003,-0.003 -0.008,0.003 -0.011,0 -0.005,-0.005 0.005,-0.0168 0,-0.022 -0.003,-0.003 -0.007,0 -0.011,0 0,-0.004 0.003,-0.008 0,-0.011 -0.005,-0.005 -0.0169,0.005 -0.0221,0 -0.003,-0.003 0.003,-0.008 0,-0.011 -0.003,-0.003 -0.008,0.003 -0.011,0 0,-0.0294 0.004,0.004 -0.011,-0.011 -0.003,-0.003 0.003,-0.008 0,-0.011 -0.003,-0.003 -0.008,0.003 -0.011,0 -0.003,-0.003 0.003,-0.008 0,-0.011 -0.003,-0.003 -0.008,0.003 -0.011,0 -0.003,-0.003 0.003,-0.008 0,-0.011 -0.003,-0.003 -0.008,0.003 -0.011,0 -0.003,-0.003 0.003,-0.008 0,-0.011 -0.003,-0.003 -0.008,0.003 -0.011,0 -0.003,-0.003 0.003,-0.008 0,-0.011 -0.003,-0.003 -0.008,0.003 -0.011,0 -0.003,-0.003 0.003,-0.008 0,-0.011 -0.003,-0.003 -0.008,0.003 -0.011,0 -0.003,-0.003 0.003,-0.008 0,-0.011 -0.005,-0.005 -0.0169,0.005 -0.0221,0 -0.003,-0.003 0.003,-0.008 0,-0.011 -0.003,-0.003 -0.008,0.002 -0.011,0 -0.0459,-0.0229 0.0118,7.9e-4 -0.011,-0.022 -0.003,-0.003 -0.008,0.003 -0.011,0 -0.003,-0.003 0.003,-0.008 0,-0.011 -0.003,-0.003 -0.008,0.003 -0.011,0 -0.003,-0.003 0.003,-0.008 0,-0.011 -0.005,-0.005 -0.0169,0.005 -0.0221,0 -0.005,-0.005 0.005,-0.0168 0,-0.022 -0.003,-0.003 -0.008,0.002 -0.011,0 -0.009,-0.005 -0.0127,-0.0174 -0.022,-0.0221 -0.003,-0.002 -0.008,0.003 -0.011,0 -0.003,-0.003 0.003,-0.008 0,-0.011 -0.0294,0 0.004,0.004 -0.011,-0.011 -0.003,-0.003 -0.008,0.003 -0.011,0 -0.003,-0.003 0.003,-0.008 0,-0.011 -0.005,-0.005 -0.0169,0.005 -0.0221,0 0,-0.0294 0.004,0.004 -0.011,-0.011 -0.005,-0.005 0.005,-0.0168 0,-0.022 -0.005,-0.005 -0.0169,0.005 -0.0221,0 -0.003,-0.003 0.003,-0.008 0,-0.011 -0.003,-0.003 -0.008,0.003 -0.011,0 -0.003,-0.003 0.003,-0.008 0,-0.011 -0.0228,-0.0228 8e-4,0.0349 -0.022,-0.011 -0.002,-0.003 0.003,-0.008 0,-0.011 -0.003,-0.003 -0.008,0.002 -0.011,0 -0.009,-0.005 -0.0128,-0.0174 -0.022,-0.0221 -0.003,-0.002 -0.008,0.003 -0.011,0 -0.005,-0.005 0.005,-0.0168 0,-0.022 -0.003,-0.003 -0.008,0.002 -0.011,0 -0.005,-0.002 -0.006,-0.009 -0.011,-0.011 -0.003,-0.002 -0.008,0.003 -0.011,0 -0.003,-0.003 0.003,-0.008 0,-0.011 -0.003,-0.003 -0.008,0.003 -0.011,0 0,-0.0294 0.004,0.004 -0.011,-0.011 -0.003,-0.003 0.003,-0.008 0,-0.011 -0.003,-0.003 -0.008,0.003 -0.011,0 -0.003,-0.003 0.003,-0.008 0,-0.011 -0.003,-0.003 -0.008,0.003 -0.011,0 -0.003,-0.003 0.003,-0.008 0,-0.011 -0.007,-0.007 -0.0147,0.007 -0.0221,0 -0.003,-0.003 0.003,-0.008 0,-0.011 -0.003,-0.003 -0.008,0.003 -0.011,0 -0.003,-0.003 0.003,-0.008 0,-0.011 -0.003,-0.003 -0.008,0.003 -0.011,0 -0.003,-0.003 0.003,-0.008 0,-0.011 -0.003,-0.003 -0.008,0.003 -0.011,0 -0.003,-0.003 0.003,-0.008 0,-0.011 -0.003,-0.003 -0.008,0.003 -0.011,0 -0.003,-0.003 0.003,-0.008 0,-0.011 -0.005,-0.005 -0.0169,0.005 -0.0221,0 -0.005,-0.005 0.005,-0.0169 0,-0.0221 -0.005,-0.005 -0.0169,0.005 -0.0221,0 -0.003,-0.003 0.002,-0.008 0,-0.011 -0.0229,-0.0459 8e-4,0.0118 -0.0221,-0.011 -0.003,-0.003 0.003,-0.008 0,-0.011 -0.003,-0.003 -0.008,0.003 -0.011,0 -0.0147,-0.0147 0.0184,-0.011 -0.011,-0.011 l -15.54407,-19.2605 c -0.28606,-0.0572 -0.0772,0.022 -0.11024,-0.0441 -0.005,-0.009 -0.0174,-0.0128 -0.0221,-0.0221 -0.003,-0.007 0.005,-0.0169 0,-0.0221 -0.005,-0.005 -0.0168,0.005 -0.022,0 -0.005,-0.005 0.003,-0.0155 0,-0.022 -0.005,-0.009 -0.0174,-0.0128 -0.0221,-0.0221 -0.007,-0.0131 0.0104,-0.0337 0,-0.0441 -0.005,-0.005 -0.0169,0.005 -0.0221,0 -0.0104,-0.0104 0.007,-0.0309 0,-0.0441 -0.009,-0.0186 -0.0348,-0.0255 -0.0441,-0.0441 -0.006,-0.012 0.006,-0.0822 0,-0.0882 -0.005,-0.005 -0.0169,0.005 -0.0221,0 -0.001,-0.001 0,-0.0999 0,-0.11025 0,-0.007 -0.005,-0.0168 0,-0.022 0.005,-0.005 0.0169,0.005 0.0221,0 0.0104,-0.0104 -0.0104,-0.0337 0,-0.0441 0.005,-0.005 0.0168,0.005 0.022,0 0.005,-0.005 -0.005,-0.0829 0,-0.0882 0.005,-0.005 0.0169,0.005 0.022,0 0.0104,-0.0104 -0.0104,-0.0337 0,-0.0441 0.005,-0.005 0.0169,0.005 0.0221,0 0.011,-0.011 -0.011,-0.0551 0,-0.0661 0.005,-0.005 0.0169,0.005 0.0221,0 0.005,-0.005 -0.005,-0.0169 0,-0.0221 0.0104,-0.0104 0.0337,0.0104 0.0441,0 0.005,-0.005 -0.005,-0.0829 0,-0.0882 0.005,-0.005 0.0169,0.005 0.0221,0 0.005,-0.005 -0.005,-0.0168 0,-0.022 0.005,-0.005 0.0169,0.005 0.022,0 0.005,-0.005 -0.005,-0.0169 0,-0.0221 0.005,-0.005 0.0169,0.005 0.0221,0 0.005,-0.005 -0.005,-0.0169 0,-0.0221 0.005,-0.005 0.0168,0.005 0.022,0 0.005,-0.005 -0.005,-0.0169 0,-0.0221 0.005,-0.005 0.0155,0.003 0.0221,0 0.009,-0.005 0.0128,-0.0174 0.0221,-0.022 0.007,-0.003 0.0169,0.005 0.0221,0 0.005,-0.005 -0.005,-0.0169 0,-0.022 0.005,-0.005 0.0155,0.003 0.022,0 0.009,-0.005 0.0128,-0.0174 0.022,-0.0221 0.007,-0.003 0.0169,0.005 0.0221,0 0.005,-0.005 -0.005,-0.0169 0,-0.0221 0.011,-0.011 0.0551,0.011 0.0661,0 0.005,-0.005 -0.005,-0.0169 0,-0.022 0.0104,-0.0104 0.0309,0.007 0.0441,0 0.009,-0.005 0.0127,-0.0174 0.022,-0.0221 0.007,-0.003 0.0169,0.005 0.0221,0 0.005,-0.005 -0.005,-0.0169 0,-0.0221 0.011,-0.011 0.0551,0.011 0.0661,0 0.005,-0.005 -0.005,-0.0169 0,-0.0221 0.007,-0.007 0.10341,0.007 0.11024,0 0.005,-0.005 -0.005,-0.0169 0,-0.022 0.011,-0.011 0.0551,0.011 0.0662,0 0.005,-0.005 -0.005,-0.0169 0,-0.022 0.0104,-0.0104 0.0337,0.0104 0.0441,0 0.005,-0.005 -0.005,-0.0169 0,-0.0221 0.006,-0.006 0.0762,0.006 0.0882,0 0.009,-0.005 0.0128,-0.0174 0.0221,-0.0221 0.0131,-0.007 0.0337,0.0104 0.0441,0 0.005,-0.005 -0.005,-0.0169 0,-0.0221 0.007,-0.007 0.10341,0.007 0.11024,0 0.005,-0.005 -0.005,-0.0168 0,-0.022 0.005,-0.005 0.0169,0.005 0.0221,0 0.005,-0.005 -0.005,-0.0169 0,-0.0221 0.005,-0.005 0.0147,0 0.0221,0 0.0104,0 0.10924,10e-4 0.11024,0 0.005,-0.005 -0.005,-0.0169 0,-0.022 0.001,-0.001 0.0998,0 0.11024,0 0.007,0 0.0169,0.005 0.0221,0 0.005,-0.005 -0.005,-0.0169 0,-0.0221 0.005,-0.005 0.0829,0.005 0.0882,0 0.005,-0.005 -0.005,-0.0168 0,-0.022 0.011,-0.011 0.0551,0.011 0.0661,0 0.005,-0.005 -0.005,-0.0169 0,-0.0221 0.005,-0.005 0.0829,0.005 0.0882,0 0.005,-0.005 -0.005,-0.0169 0,-0.0221 0.005,-0.005 0.0829,0.005 0.0882,0 0.005,-0.005 -0.005,-0.0169 0,-0.0221 0.005,-0.005 0.0829,0.005 0.0882,0 0.005,-0.005 -0.005,-0.0168 0,-0.022 0.005,-0.005 0.0155,0.003 0.022,0 0.009,-0.005 0.0128,-0.0174 0.0221,-0.022 0.012,-0.006 0.0822,0.006 0.0882,0 0.0294,-0.0294 -0.0367,-0.0221 0.022,-0.0221 0.005,0 0.0654,7.9e-4 0.0661,0 0.005,-0.005 -0.005,-0.0169 0,-0.0221 0.006,-0.006 0.0762,0.006 0.0882,0 0.009,-0.005 0.0128,-0.0174 0.0221,-0.022 0.009,-0.004 0.0616,0.005 0.0661,0 0.005,-0.005 -0.005,-0.0169 0,-0.0221 0.011,-0.011 0.0551,0.011 0.0662,0 0.005,-0.005 -0.005,-0.0169 0,-0.0221 0.005,-0.005 0.0829,0.005 0.0882,0 0.005,-0.005 -0.005,-0.0169 0,-0.0221 0.005,-0.005 0.0147,0 0.022,0 0.007,0 0.0147,0 0.0221,0 0.007,0 0.0147,0 0.0221,0 0.007,0 0.0169,0.005 0.022,0 0.005,-0.005 -0.005,-0.0169 0,-0.022 0.0217,-0.0218 0.0441,0.0452 0.0441,-0.022 l 15.98508,-4.34307 c 0.063,-0.0234 0.11444,-0.0221 0.17639,-0.0221 0.007,0 0.0169,0.005 0.0221,0 0.005,-0.005 -0.005,-0.0169 0,-0.0221 0.005,-0.005 0.0829,0.005 0.0882,0 0.0104,-0.0104 -0.0104,-0.0337 0,-0.0441 0.005,-0.005 0.0829,0.005 0.0882,0 0.005,-0.005 -0.005,-0.0169 0,-0.0221 0.0104,-0.0104 0.0337,0.0104 0.0441,0 0.005,-0.005 -0.005,-0.0169 0,-0.0221 0.0104,-0.0104 0.0337,0.0104 0.0441,0 0.005,-0.005 -0.005,-0.0169 0,-0.0221 0.005,-0.005 0.0155,0.003 0.022,0 0.009,-0.005 0.0128,-0.0174 0.0221,-0.022 0.0131,-0.007 0.0337,0.0104 0.0441,0 0.005,-0.005 -0.005,-0.0169 0,-0.0221 0.0104,-0.0104 0.0337,0.0104 0.0441,0 0.005,-0.005 -0.005,-0.0169 0,-0.0221 0.0104,-0.0104 0.0337,0.0104 0.0441,0 0.005,-0.005 -0.005,-0.0169 0,-0.022 0.005,-0.005 0.0169,0.005 0.0221,0 0.005,-0.005 -0.005,-0.0169 0,-0.022 0.0104,-0.0104 0.0337,0.0104 0.0441,0 0.0104,-0.0104 -0.0104,-0.0337 0,-0.0441 0.005,-0.005 0.0169,0.005 0.0221,0 0.005,-0.005 -0.005,-0.0169 0,-0.0221 0.005,-0.005 0.0169,0.005 0.0221,0 0.005,-0.005 -0.005,-0.0168 0,-0.022 0.005,-0.005 0.0169,0.005 0.0221,0 0.0104,-0.0104 -0.0104,-0.0337 0,-0.0441 0.005,-0.005 0.0168,0.005 0.022,0 0.005,-0.005 -0.005,-0.0169 0,-0.022 0.0104,-0.0104 0.0337,0.0104 0.0441,0 0.011,-0.011 -0.011,-0.0551 0,-0.0661 0.005,-0.005 0.0169,0.005 0.0221,0 0.005,-0.005 -0.005,-0.0169 0,-0.0221 0.005,-0.005 0.0168,0.005 0.022,0 7.9e-4,-7.2e-4 0,-0.0608 0,-0.0661 0,-0.0588 -0.007,0.007 0.0221,-0.0221 0.005,-0.005 -0.005,-0.0169 0,-0.0221 0.005,-0.005 0.0169,0.005 0.0221,0 0.005,-0.005 0,-0.0147 0,-0.022 0,-0.007 0,-0.0147 0,-0.0221 0,-0.0368 0,-0.0735 0,-0.11024 0,-0.007 0.005,-0.0169 0,-0.0221 -0.005,-0.005 -0.0169,0.005 -0.0221,0 -0.0104,-0.0104 0.0104,-0.0337 0,-0.0441 -0.005,-0.005 -0.0169,0.005 -0.0221,0 -0.011,-0.011 0.011,-0.0551 0,-0.0661 -0.005,-0.005 -0.0168,0.005 -0.022,0 -0.005,-0.005 0.005,-0.0169 0,-0.0221 -0.005,-0.005 -0.0169,0.005 -0.0221,0 -0.005,-0.005 0.005,-0.0169 0,-0.0221 -0.005,-0.005 -0.0169,0.005 -0.0221,0 -0.005,-0.005 0.005,-0.0169 0,-0.0221 -0.005,-0.005 -0.0169,0.005 -0.0221,0 -0.005,-0.005 0.005,-0.0168 0,-0.022 -0.005,-0.005 -0.0168,0.005 -0.022,0 -0.005,-0.005 0.005,-0.0169 0,-0.0221 -0.0456,-0.0456 0.002,0.0697 -0.0441,-0.022 0,-0.0588 0.007,0.007 -0.0221,-0.0221 -0.005,-0.005 0.005,-0.0169 0,-0.0221 -0.005,-0.005 -0.0168,0.005 -0.022,0 -0.005,-0.005 0.005,-0.0168 0,-0.022 -0.0104,-0.0104 -0.0337,0.0104 -0.0441,0 -0.005,-0.005 0.005,-0.0169 0,-0.0221 -0.0104,-0.0104 -0.0337,0.0104 -0.0441,0 -0.005,-0.005 0.005,-0.0169 0,-0.0221 -0.005,-0.005 -0.0169,0.005 -0.022,0 -0.005,-0.005 0.005,-0.0169 0,-0.022 -0.0104,-0.0104 -0.0337,0.0104 -0.0441,0 -0.005,-0.005 0.005,-0.0169 0,-0.0221 -0.005,-0.005 -0.0155,0.003 -0.022,0 -0.009,-0.005 -0.0128,-0.0174 -0.0221,-0.022 -0.007,-0.003 -0.0169,0.005 -0.022,0 -0.005,-0.005 0.005,-0.0169 0,-0.0221 -0.0104,-0.0104 -0.0337,0.0104 -0.0441,0 -0.0104,-0.0104 0.0104,-0.0337 0,-0.0441 -0.0104,-0.0104 -0.0337,0.0104 -0.0441,0 -0.005,-0.005 0.005,-0.0169 0,-0.0221 -0.005,-0.005 -0.0169,0.005 -0.0221,0 -0.005,-0.005 0.005,-0.0169 0,-0.0221 -0.0147,-0.0147 -0.0294,0.0147 -0.0441,0 -0.0104,-0.0104 0.0104,-0.0337 0,-0.0441 -0.0104,-0.0104 -0.0337,0.0104 -0.0441,0 -0.005,-0.005 0.005,-0.0169 0,-0.0221 -0.0104,-0.0104 -0.0337,0.0104 -0.0441,0 -0.005,-0.005 0.005,-0.0169 0,-0.0221 -0.0104,-0.0104 -0.0337,0.0104 -0.0441,0 -0.005,-0.005 0.005,-0.0169 0,-0.0221 -0.005,-0.005 -0.0169,0.005 -0.0221,0 -0.005,-0.005 0.005,-0.0168 0,-0.022 -0.005,-0.005 -0.0168,0.005 -0.022,0 -0.005,-0.005 0.005,-0.0169 0,-0.0221 -0.011,-0.011 -0.0551,0.011 -0.0662,0 -0.005,-0.005 0.005,-0.0169 0,-0.0221 -0.005,-0.005 -0.0169,0.005 -0.022,0 -0.005,-0.005 0.005,-0.0169 0,-0.022 -0.0104,-0.0104 -0.0337,0.0104 -0.0441,0 -0.005,-0.005 0.005,-0.0169 0,-0.0221 -0.005,-0.005 -0.0155,0.003 -0.022,0 -0.009,-0.005 -0.0128,-0.0174 -0.0221,-0.022 -0.007,-0.003 -0.0168,0.005 -0.022,0 -0.005,-0.005 0.005,-0.0169 0,-0.0221 -0.011,-0.011 -0.0551,0.011 -0.0662,0 -0.005,-0.005 0.005,-0.0169 0,-0.0221 -0.005,-0.005 -0.0168,0.005 -0.022,0 -0.005,-0.005 0.005,-0.0169 0,-0.022 -0.0104,-0.0104 -0.031,0.007 -0.0441,0 -0.009,-0.005 -0.0128,-0.0174 -0.0221,-0.0221 -0.007,-0.003 -0.0168,0.005 -0.022,0 -0.005,-0.005 0.005,-0.0169 0,-0.022 -0.011,-0.011 -0.0551,0.011 -0.0662,0 -0.005,-0.005 0.003,-0.0155 0,-0.0221 -0.0223,-0.0446 -0.0512,-0.007 -0.0661,-0.0221 -0.005,-0.005 0.005,-0.0168 0,-0.022 -0.005,-0.005 -0.0169,0.005 -0.0221,0 -0.005,-0.005 0.005,-0.0169 0,-0.0221 -0.011,-0.011 -0.0551,0.011 -0.0661,0 -0.005,-0.005 0.005,-0.0169 0,-0.0221 -0.005,-0.005 -0.0169,0.005 -0.0221,0 -0.005,-0.005 0.005,-0.0169 0,-0.0221 -0.011,-0.011 -0.0551,0.011 -0.0661,0 -0.005,-0.005 0.005,-0.0168 0,-0.022 -0.0104,-0.0104 -0.0337,0.0104 -0.0441,0 -0.005,-0.005 0.005,-0.0169 0,-0.0221 -0.005,-0.005 -0.0155,0.003 -0.022,0 -0.009,-0.005 -0.0128,-0.0174 -0.0221,-0.0221 -0.0131,-0.007 -0.0309,0.007 -0.0441,0 -0.0186,-0.009 -0.0255,-0.0348 -0.0441,-0.0441 -0.0131,-0.007 -0.0337,0.0104 -0.0441,0 -0.005,-0.005 0.005,-0.0169 0,-0.0221 -0.0104,-0.0104 -0.0337,0.0104 -0.0441,0 -0.005,-0.005 0.005,-0.0169 0,-0.0221 -0.011,-0.011 -0.0551,0.011 -0.0661,0 -0.0456,-0.0456 0.0697,0.002 -0.0221,-0.0441 -0.009,-0.004 -0.0616,0.005 -0.0661,0 -0.005,-0.005 0.005,-0.0169 0,-0.022 -0.0104,-0.0104 -0.0337,0.0104 -0.0441,0 -0.005,-0.005 0.005,-0.0169 0,-0.0221 -0.0104,-0.0104 -0.0337,0.0104 -0.0441,0 -0.005,-0.005 0.005,-0.0169 0,-0.0221 -0.005,-0.005 -0.0168,0.005 -0.022,0 -0.005,-0.005 0.005,-0.0169 0,-0.022 -0.011,-0.011 -0.0551,0.011 -0.0661,0 -0.005,-0.005 0.005,-0.0169 0,-0.0221 -0.0104,-0.0104 -0.0337,0.0104 -0.0441,0 -0.005,-0.005 0.005,-0.0169 0,-0.0221 -0.0104,-0.0104 -0.0309,0.007 -0.0441,0 -0.0186,-0.009 -0.0255,-0.0348 -0.0441,-0.0441 -0.0131,-0.007 -0.0309,0.007 -0.0441,0 -0.009,-0.005 -0.0127,-0.0174 -0.022,-0.022 -0.007,-0.003 -0.0155,0.003 -0.0221,0 -0.009,-0.005 -0.0128,-0.0174 -0.0221,-0.0221 -0.0131,-0.007 -0.0337,0.0104 -0.0441,0 -0.005,-0.005 0.005,-0.0169 0,-0.0221 -0.005,-0.005 -0.0169,0.005 -0.022,0 -0.005,-0.005 0.005,-0.0169 0,-0.0221 -0.011,-0.011 -0.0551,0.011 -0.0662,0 -0.005,-0.005 0.005,-0.0168 0,-0.022 -0.0104,-0.0104 -0.0337,0.0104 -0.0441,0 -0.005,-0.005 0.005,-0.0169 0,-0.022 -0.0104,-0.0104 -0.0337,0.0104 -0.0441,0 -0.005,-0.005 0.005,-0.0169 0,-0.0221 -0.005,-0.005 -0.0155,0.003 -0.022,0 -0.009,-0.005 -0.0128,-0.0174 -0.0221,-0.0221 -0.0131,-0.007 -0.0309,0.007 -0.0441,0 -0.009,-0.005 -0.0127,-0.0174 -0.022,-0.022 -0.0131,-0.007 -0.0337,0.0104 -0.0441,0 -0.005,-0.005 0.005,-0.0169 0,-0.0221 -0.0104,-0.0104 -0.0337,0.0104 -0.0441,0 -0.005,-0.005 0.005,-0.0169 0,-0.0221 -0.005,-0.005 -0.0169,0.005 -0.0221,0 -0.005,-0.005 0.005,-0.0169 0,-0.0221 -0.0104,-0.0104 -0.031,0.007 -0.0441,0 -0.009,-0.005 -0.0127,-0.0174 -0.022,-0.022 -0.0131,-0.007 -0.0337,0.0104 -0.0441,0 -0.005,-0.005 0.005,-0.0169 0,-0.0221 -0.011,-0.011 -0.0551,0.011 -0.0661,0 -0.005,-0.005 0.005,-0.0169 0,-0.0221 -0.005,-0.005 -0.0169,0.005 -0.0221,0 -0.005,-0.005 0.005,-0.0169 0,-0.0221 -0.0104,-0.0104 -0.0309,0.007 -0.0441,0 -0.009,-0.005 -0.0127,-0.0174 -0.022,-0.022 -0.007,-0.003 -0.0169,0.005 -0.0221,0 -0.005,-0.005 0.005,-0.0169 0,-0.0221 -0.011,-0.011 -0.0551,0.011 -0.0661,0 -0.005,-0.005 0.005,-0.0169 0,-0.0221 -0.0104,-0.0104 -0.0337,0.0104 -0.0441,0 -0.005,-0.005 0.005,-0.0169 0,-0.022 -0.005,-0.005 -0.0169,0.005 -0.022,0 -0.005,-0.005 0.005,-0.0169 0,-0.0221 -0.0104,-0.0104 -0.0337,0.0104 -0.0441,0 -0.005,-0.005 0.005,-0.0169 0,-0.022 -0.0104,-0.0104 -0.031,0.007 -0.0441,0 -0.009,-0.005 -0.0127,-0.0174 -0.022,-0.0221 -0.0131,-0.007 -0.0337,0.0104 -0.0441,0 -0.005,-0.005 0.005,-0.0169 0,-0.0221 -0.005,-0.005 -0.0155,0.003 -0.0221,0 -0.009,-0.005 -0.0128,-0.0174 -0.0221,-0.0221 -0.0131,-0.007 -0.0337,0.0104 -0.0441,0 -0.005,-0.005 0.005,-0.0168 0,-0.022 -0.0104,-0.0104 -0.0337,0.0104 -0.0441,0 -0.005,-0.005 0.005,-0.0169 0,-0.0221 -0.0104,-0.0104 -0.031,0.007 -0.0441,0 -0.0918,-0.0459 0.0236,0.002 -0.0221,-0.0441 -0.011,-0.011 -0.0551,0.011 -0.0661,0 -0.005,-0.005 0.005,-0.0168 0,-0.022 -0.0104,-0.0104 -0.0337,0.0104 -0.0441,0 -0.005,-0.005 0.005,-0.0169 0,-0.0221 -0.0104,-0.0104 -0.0337,0.0104 -0.0441,0 -0.005,-0.005 0.005,-0.0169 0,-0.0221 -0.005,-0.005 -0.0169,0.005 -0.0221,0 -0.005,-0.005 0.005,-0.0169 0,-0.0221 -0.0104,-0.0104 -0.0309,0.007 -0.0441,0 -0.009,-0.005 -0.0128,-0.0174 -0.0221,-0.022 -0.0131,-0.007 -0.0337,0.0104 -0.0441,0 -0.005,-0.005 0.005,-0.0169 0,-0.022 -0.0104,-0.0104 -0.0337,0.0104 -0.0441,0 -0.005,-0.005 0.005,-0.0169 0,-0.0221 -0.005,-0.005 -0.0169,0.005 -0.0221,0 -0.005,-0.005 0.005,-0.0169 0,-0.0221 -0.0104,-0.0104 -0.0337,0.0104 -0.0441,0 -0.005,-0.005 0.005,-0.0169 0,-0.022 -0.0104,-0.0104 -0.0337,0.0104 -0.0441,0 -0.005,-0.005 0.005,-0.0169 0,-0.0221 -0.011,-0.011 -0.0551,0.011 -0.0661,0 -0.0456,-0.0456 0.0697,0.002 -0.0221,-0.0441 -0.0131,-0.007 -0.0309,0.007 -0.0441,0 -0.009,-0.005 -0.0127,-0.0174 -0.022,-0.022 -0.007,-0.003 -0.0169,0.005 -0.0221,0 -0.005,-0.005 0.005,-0.0169 0,-0.022 -0.0104,-0.0104 -0.0337,0.0104 -0.0441,0 -0.005,-0.005 0.005,-0.0169 0,-0.0221 -0.0104,-0.0104 -0.0337,0.0104 -0.0441,0 -0.0456,-0.0456 0.0697,0.002 -0.0221,-0.0441 -0.009,-0.004 -0.0616,0.005 -0.0661,0 -0.005,-0.005 0.005,-0.0168 0,-0.022 -0.0104,-0.0104 -0.031,0.007 -0.0441,0 -0.0918,-0.0459 0.0236,0.002 -0.022,-0.0441 -0.0104,-0.0104 -0.0337,0.0104 -0.0441,0 -0.005,-0.005 0.005,-0.0169 0,-0.0221 -0.0104,-0.0104 -0.0337,0.0104 -0.0441,0 -0.005,-0.005 0.005,-0.0168 0,-0.022 -0.0104,-0.0104 -0.0337,0.0104 -0.0441,0 -0.005,-0.005 0.005,-0.0169 0,-0.0221 -0.0104,-0.0104 -0.0337,0.0104 -0.0441,0 -0.005,-0.005 0.005,-0.0169 0,-0.0221 -0.0104,-0.0104 -0.0337,0.0104 -0.0441,0 -0.005,-0.005 0.005,-0.0169 0,-0.0221 -0.0104,-0.0104 -0.0337,0.0104 -0.0441,0 -0.005,-0.005 0.005,-0.0168 0,-0.022 -0.0104,-0.0104 -0.0337,0.0104 -0.0441,0 -0.005,-0.005 0.005,-0.0169 0,-0.022 -0.005,-0.005 -0.0169,0.005 -0.0221,0 -0.005,-0.005 0.005,-0.0169 0,-0.0221 -0.0104,-0.0104 -0.0309,0.007 -0.0441,0 -0.009,-0.005 -0.0128,-0.0174 -0.0221,-0.0221 -0.007,-0.003 -0.0169,0.005 -0.0221,0 -0.005,-0.005 0.005,-0.0169 0,-0.022 -0.011,-0.011 -0.0551,0.011 -0.0661,0 -0.005,-0.005 0.005,-0.0169 0,-0.0221 -0.005,-0.005 -0.0169,0.005 -0.0221,0 -0.005,-0.005 0.005,-0.0169 0,-0.0221 -0.0104,-0.0104 -0.0337,0.0104 -0.0441,0 -0.005,-0.005 0.005,-0.0169 0,-0.0221 -0.0104,-0.0104 -0.0337,0.0104 -0.0441,0 -0.005,-0.005 0.005,-0.0169 0,-0.022 -0.0104,-0.0104 -0.0337,0.0104 -0.0441,0 -0.005,-0.005 0.005,-0.0169 0,-0.022 -0.005,-0.005 -0.0168,0.005 -0.022,0 -0.005,-0.005 0.005,-0.0169 0,-0.0221 -0.011,-0.011 -0.0551,0.011 -0.0661,0 -0.005,-0.005 0.005,-0.0169 0,-0.0221 -0.0104,-0.0104 -0.0337,0.0104 -0.0441,0 -0.0294,-0.0294 0.0367,-0.0221 -0.0221,-0.0221 L 146.72721,135.258 c -0.0298,0.0426 -0.0552,0.0887 -0.0894,0.12791 -0.01,0.0111 -0.0337,-0.0104 -0.0441,0 -0.005,0.005 0,0.0147 0,0.022 -0.007,0 -0.0169,-0.005 -0.0221,0 -0.0104,0.0104 0.0104,0.0337 0,0.0441 -0.005,0.005 -0.0168,-0.005 -0.022,0 -0.0456,0.0456 0.0697,-0.002 -0.0221,0.0441 -0.007,0.003 -0.0169,-0.005 -0.0221,0 -0.0104,0.0104 0.0104,0.0337 0,0.0441 -0.005,0.005 -0.0169,-0.005 -0.0221,0 -0.005,0.005 0.005,0.0169 0,0.0221 -0.005,0.005 -0.0168,-0.005 -0.022,0 -0.0104,0.0104 0.0104,0.0337 0,0.0441 -0.005,0.005 -0.0169,-0.005 -0.022,0 -0.005,0.005 0.005,0.0169 0,0.0221 -0.005,0.005 -0.0169,-0.005 -0.0221,0 -0.0104,0.0104 0.0104,0.0337 0,0.0441 -0.005,0.005 -0.0169,-0.005 -0.0221,0 -0.0104,0.0104 0.0104,0.0337 0,0.0441 -0.005,0.005 -0.0169,-0.005 -0.022,0 -0.005,0.005 0.005,0.0169 0,0.022 -0.005,0.005 -0.0169,-0.005 -0.0221,0 -0.005,0.005 0.005,0.0169 0,0.0221 -0.005,0.005 -0.0169,-0.005 -0.0221,0 -0.0104,0.0104 0.0104,0.0337 0,0.0441 -0.005,0.005 -0.0169,-0.005 -0.0221,0 -0.005,0.005 0.005,0.0169 0,0.0221 -0.005,0.005 -0.0169,-0.005 -0.022,0 -0.0104,0.0104 0.0104,0.0337 0,0.0441 -0.005,0.005 -0.0169,-0.005 -0.022,0 -0.0104,0.0104 0.0104,0.0337 0,0.0441 -0.005,0.005 -0.0169,-0.005 -0.0221,0 -0.005,0.005 0.005,0.0169 0,0.0221 -0.0104,0.0104 -0.0337,-0.0104 -0.0441,0 -0.0104,0.0104 0.0104,0.0337 0,0.0441 -0.005,0.005 -0.0168,-0.005 -0.022,0 -0.0104,0.0104 0.0104,0.0337 0,0.0441 -0.005,0.005 -0.0169,-0.005 -0.0221,0 -0.005,0.005 0.005,0.0168 0,0.022 -0.005,0.005 -0.0169,-0.005 -0.022,0 -0.005,0.005 0.005,0.0169 0,0.022 -0.005,0.005 -0.0169,-0.005 -0.0221,0 -0.0104,0.0104 0.0104,0.0337 0,0.0441 -0.005,0.005 -0.0168,-0.005 -0.022,0 -0.005,0.005 0.005,0.0169 0,0.022 -0.0104,0.0104 -0.0337,-0.0104 -0.0441,0 -0.011,0.011 0.011,0.0551 0,0.0662 -0.005,0.005 -0.0169,-0.005 -0.0221,0 -0.005,0.005 0.005,0.0169 0,0.022 -0.005,0.005 -0.0168,-0.005 -0.022,0 -0.0104,0.0104 0.0104,0.0337 0,0.0441 -0.005,0.005 -0.0169,-0.005 -0.022,0 -0.005,0.005 0.005,0.0169 0,0.0221 -0.005,0.005 -0.0169,-0.005 -0.0221,0 -0.005,0.005 0.005,0.0169 0,0.0221 -0.005,0.005 -0.0169,-0.005 -0.0221,0 -0.0104,0.0104 0.0104,0.0337 0,0.0441 -0.005,0.005 -0.0169,-0.005 -0.022,0 -0.005,0.005 0.005,0.0169 0,0.022 -0.005,0.005 -0.0169,-0.005 -0.0221,0 -0.005,0.005 0.005,0.0169 0,0.0221 -0.005,0.005 -0.0169,-0.005 -0.0221,0 -0.005,0.005 0.005,0.0168 0,0.022 -0.005,0.005 -0.0169,-0.005 -0.0221,0 -0.005,0.005 0.005,0.0169 0,0.0221 -0.005,0.005 -0.0169,-0.005 -0.022,0 -0.0104,0.0104 0.0104,0.0337 0,0.0441 -0.0104,0.0104 -0.0337,-0.0104 -0.0441,0 -0.0104,0.0104 0.0104,0.0337 0,0.0441 -0.005,0.005 -0.0169,-0.005 -0.0221,0 -0.0104,0.0104 0.0104,0.0337 0,0.0441 -0.005,0.005 -0.0169,-0.005 -0.0221,0 -0.005,0.005 0.003,0.0155 0,0.022 -0.0459,0.0918 0.002,-0.0236 -0.0441,0.0221 -0.005,0.005 0.005,0.0169 0,0.0221 -0.005,0.005 -0.0169,-0.005 -0.0221,0 -0.0104,0.0104 0.0104,0.0337 0,0.0441 -0.0104,0.0104 -0.0337,-0.0104 -0.0441,0 -0.0104,0.0104 0.0104,0.0337 0,0.0441 -0.0104,0.0104 -0.0337,-0.0104 -0.0441,0 -0.005,0.005 0.005,0.0169 0,0.0221 -0.005,0.005 -0.0169,-0.005 -0.0221,0 -0.0104,0.0104 0.0104,0.0337 0,0.0441 -0.005,0.005 -0.0168,-0.005 -0.022,0 -0.005,0.005 0.005,0.0169 0,0.0221 -0.005,0.005 -0.0169,-0.005 -0.0221,0 -0.005,0.005 0.005,0.0169 0,0.0221 -0.0104,0.0104 -0.0337,-0.0104 -0.0441,0 -0.0104,0.0104 0.0104,0.0337 0,0.0441 -0.005,0.005 -0.0169,-0.005 -0.022,0 -0.005,0.005 0.005,0.0169 0,0.0221 -0.005,0.005 -0.0169,-0.005 -0.0221,0 -0.005,0.005 0.005,0.0169 0,0.0221 -0.005,0.005 -0.0169,-0.005 -0.0221,0 -0.005,0.005 0.005,0.0169 0,0.0221 -0.005,0.005 -0.0169,-0.005 -0.0221,0 -0.005,0.005 0.005,0.0168 0,0.022 -0.005,0.005 -0.0169,-0.005 -0.022,0 -0.005,0.005 0.005,0.0169 0,0.0221 -0.005,0.005 -0.0169,-0.005 -0.022,0 -0.005,0.005 0.005,0.0169 0,0.022 -0.005,0.005 -0.0169,-0.005 -0.0221,0 -0.005,0.005 0.005,0.0169 0,0.0221 -0.005,0.005 -0.0169,-0.005 -0.0221,0 -0.005,0.005 0.005,0.0169 0,0.022 -0.005,0.005 -0.0169,-0.005 -0.0221,0 -0.005,0.005 0.005,0.0169 0,0.0221 -0.005,0.005 -0.0168,-0.005 -0.022,0 -0.005,0.005 0.005,0.0169 0,0.0221 -0.0104,0.0104 -0.0337,-0.0104 -0.0441,0 -0.005,0.005 0.005,0.0169 0,0.0221 -0.005,0.005 -0.0169,-0.005 -0.022,0 -0.0104,0.0104 0.0104,0.0337 0,0.0441 -0.0104,0.0104 -0.0337,-0.0104 -0.0441,0 -0.005,0.005 0.005,0.0169 0,0.0221 -0.005,0.005 -0.0169,-0.005 -0.0221,0 -0.005,0.005 0.005,0.0169 0,0.0221 -0.005,0.005 -0.0169,-0.005 -0.0221,0 -0.005,0.005 0.005,0.0169 0,0.0221 -0.005,0.005 -0.0168,-0.005 -0.022,0 -0.005,0.005 0.005,0.0168 0,0.022 -0.0104,0.0104 -0.0337,-0.0104 -0.0441,0 -0.005,0.005 0.005,0.0169 0,0.0221 -0.005,0.005 -0.0169,-0.005 -0.0221,0 -0.005,0.005 0.005,0.0169 0,0.0221 -0.005,0.005 -0.0169,-0.005 -0.022,0 -0.005,0.005 0.005,0.0169 0,0.022 -0.005,0.005 -0.0169,-0.005 -0.0221,0 -0.005,0.005 0.005,0.0169 0,0.022 -0.005,0.005 -0.0169,-0.005 -0.0221,0 -0.005,0.005 0.005,0.0169 0,0.0221 -0.005,0.005 -0.0169,-0.005 -0.0221,0 -0.005,0.005 0.005,0.0169 0,0.0221 -0.0104,0.0104 -0.0337,-0.0104 -0.0441,0 -0.005,0.005 0.005,0.0169 0,0.0221 -0.005,0.005 -0.0169,-0.005 -0.022,0 -0.005,0.005 0.005,0.0168 0,0.022 -0.005,0.005 -0.0169,-0.005 -0.0221,0 -0.005,0.005 0.005,0.0169 0,0.0221 -0.005,0.005 -0.0169,-0.005 -0.0221,0 -0.005,0.005 0.005,0.0169 0,0.022 -0.005,0.005 -0.0155,-0.003 -0.022,0 -0.009,0.005 -0.0128,0.0174 -0.0221,0.0221 -0.007,0.003 -0.0169,-0.005 -0.0221,0 -0.005,0.005 0.003,0.0155 0,0.022 -0.005,0.009 -0.0174,0.0128 -0.0221,0.0221 -0.003,0.007 0.005,0.0169 0,0.0221 -0.0104,0.0104 -0.0309,-0.007 -0.0441,0 -0.009,0.005 -0.0147,0.0147 -0.0221,0.0221 -0.007,0.007 -0.0174,0.0127 -0.0221,0.022 -0.003,0.007 0.005,0.0169 0,0.0221 -0.0104,0.0104 -0.0337,-0.0104 -0.0441,0 -0.005,0.005 0.005,0.0169 0,0.022 -0.005,0.005 -0.0169,-0.005 -0.0221,0 -0.005,0.005 0.005,0.0169 0,0.0221 -0.005,0.005 -0.0169,-0.005 -0.022,0 -0.005,0.005 0.005,0.0169 0,0.0221 -0.005,0.005 -0.0169,-0.005 -0.022,0 -0.005,0.005 0.005,0.0168 0,0.022 -0.0104,0.0104 -0.0337,-0.0104 -0.0441,0 -0.005,0.005 0.005,0.0169 0,0.0221 -0.005,0.005 -0.0169,-0.005 -0.0221,0 -0.005,0.005 0.005,0.0169 0,0.0221 -0.0104,0.0104 -0.0337,-0.0104 -0.0441,0 -0.0104,0.0104 0.0104,0.0337 0,0.0441 -0.0104,0.0104 -0.0337,-0.0104 -0.0441,0 -0.005,0.005 0.005,0.0169 0,0.0221 -0.005,0.005 -0.0169,-0.005 -0.0221,0 -0.005,0.005 0.005,0.0169 0,0.0221 -0.005,0.005 -0.0168,-0.005 -0.022,0 -0.005,0.005 0.005,0.0169 0,0.0221 -0.005,0.005 -0.0169,-0.005 -0.0221,0 -0.005,0.005 0.005,0.0168 0,0.022 -0.005,0.005 -0.0169,-0.005 -0.0221,0 -0.005,0.005 0.005,0.0169 0,0.0221 -0.0104,0.0104 -0.0337,-0.0104 -0.0441,0 -0.005,0.005 0.005,0.0169 0,0.0221 -0.0104,0.0104 -0.0337,-0.0104 -0.0441,0 -0.0104,0.0104 0.0104,0.0337 0,0.0441 -0.005,0.005 -0.0169,-0.005 -0.0221,0 -0.005,0.005 0.005,0.0169 0,0.0221 -0.0104,0.0104 -0.0337,-0.0104 -0.0441,0 -0.005,0.005 0.005,0.0169 0,0.0221 -0.005,0.005 -0.0169,-0.005 -0.0221,0 -0.005,0.005 0.005,0.0169 0,0.0221 -0.005,0.005 -0.0169,-0.005 -0.0221,0 -0.0456,0.0456 0.0697,-0.002 -0.022,0.0441 -0.007,0.003 -0.0169,-0.005 -0.0221,0 -0.005,0.005 0.005,0.0169 0,0.022 -0.0147,0.0147 -0.0294,-0.0147 -0.0441,0 -0.005,0.005 0.005,0.0169 0,0.0221 -0.0104,0.0104 -0.0337,-0.0104 -0.0441,0 -0.0104,0.0104 0.0104,0.0337 0,0.0441 -0.005,0.005 -0.0169,-0.005 -0.0221,0 -0.005,0.005 0.005,0.0169 0,0.0221 -0.0104,0.0104 -0.0337,-0.0104 -0.0441,0 -0.005,0.005 0.005,0.0169 0,0.0221 -0.005,0.005 -0.0168,-0.005 -0.022,0 -0.005,0.005 0.005,0.0169 0,0.022 -0.005,0.005 -0.0169,-0.005 -0.0221,0 -0.005,0.005 0.005,0.0169 0,0.022 -0.005,0.005 -0.0169,-0.005 -0.0221,0 -0.005,0.005 0.005,0.0169 0,0.0221 -0.0104,0.0104 -0.0337,-0.0104 -0.0441,0 -0.005,0.005 0.005,0.0169 0,0.0221 -0.005,0.005 -0.0169,-0.005 -0.022,0 -0.005,0.005 0.005,0.0169 0,0.0221 -0.005,0.005 -0.0169,-0.005 -0.0221,0 -0.005,0.005 0.005,0.0168 0,0.022 -0.005,0.005 -0.0169,-0.005 -0.0221,0 -0.005,0.005 0.005,0.0169 0,0.0221 -0.005,0.005 -0.0168,-0.005 -0.022,0 -0.005,0.005 0.005,0.0169 0,0.0221 -0.0104,0.0104 -0.0337,-0.0104 -0.0441,0 -0.0104,0.0104 0.0104,0.0337 0,0.0441 -0.0104,0.0104 -0.0337,-0.0104 -0.0441,0 -0.005,0.005 0.005,0.0169 0,0.0221 -0.005,0.005 -0.0169,-0.005 -0.0221,0 -0.005,0.005 0.005,0.0169 0,0.0221 -0.0104,0.0104 -0.0337,-0.0104 -0.0441,0 -0.005,0.005 0.005,0.0169 0,0.0221 -0.005,0.005 -0.0168,-0.005 -0.022,0 -0.005,0.005 0.005,0.0168 0,0.022 -0.005,0.005 -0.0169,-0.005 -0.0221,0 -0.005,0.005 0.005,0.0169 0,0.0221 -0.005,0.005 -0.0169,-0.005 -0.0221,0 -0.005,0.005 0.005,0.0169 0,0.0221 -0.0104,0.0104 -0.0337,-0.0104 -0.0441,0 -0.005,0.005 0.005,0.0169 0,0.022 -0.005,0.005 -0.0169,-0.005 -0.022,0 -0.005,0.005 0.005,0.0169 0,0.0221 -0.005,0.005 -0.0169,-0.005 -0.0221,0 -0.005,0.005 0.005,0.0168 0,0.022 -0.005,0.005 -0.0169,-0.005 -0.0221,0 -0.005,0.005 0.005,0.0169 0,0.0221 -0.0104,0.0104 -0.0337,-0.0104 -0.0441,0 -0.0104,0.0104 0.0104,0.0337 0,0.0441 -0.0104,0.0104 -0.0337,-0.0104 -0.0441,0 -0.005,0.005 0.005,0.0169 0,0.0221 -0.0104,0.0104 -0.0337,-0.0104 -0.0441,0 -0.005,0.005 0.005,0.0169 0,0.022 -0.005,0.005 -0.0169,-0.005 -0.0221,0 -0.005,0.005 0.005,0.0169 0,0.0221 -0.005,0.005 -0.0169,-0.005 -0.0221,0 -0.005,0.005 0.005,0.0169 0,0.0221 -0.005,0.005 -0.0155,-0.003 -0.0221,0 -0.0186,0.009 -0.0255,0.0348 -0.0441,0.0441 -0.007,0.003 -0.0169,-0.005 -0.0221,0 -0.005,0.005 0.005,0.0169 0,0.0221 -0.0104,0.0104 -0.0375,-0.0131 -0.0441,0 -0.007,0.0131 0.007,0.0309 0,0.0441 -0.007,0.0132 -0.0337,-0.0104 -0.0441,0 -0.005,0.005 0.005,0.0169 0,0.0221 -0.005,0.005 -0.0169,-0.005 -0.0221,0 -0.005,0.005 0.005,0.0169 0,0.0221 -0.005,0.005 -0.0155,-0.003 -0.022,0 -0.009,0.005 -0.0147,0.0147 -0.0221,0.0221 -0.007,0.007 -0.0174,0.0127 -0.0221,0.022 -0.003,0.007 0.005,0.0169 0,0.0221 -0.011,0.011 -0.0551,-0.011 -0.0661,0 -0.005,0.005 0.005,0.0169 0,0.0221 -0.005,0.005 -0.0169,-0.005 -0.0221,0 -0.0104,0.0104 0.0104,0.0337 0,0.0441 -0.0104,0.0104 -0.0337,-0.0104 -0.0441,0 -0.005,0.005 0.005,0.0169 0,0.022 -0.005,0.005 -0.0168,-0.005 -0.022,0 -0.005,0.005 0.005,0.0169 0,0.0221 -0.0104,0.0104 -0.0337,-0.0104 -0.0441,0 -0.0104,0.0104 0.0104,0.0337 0,0.0441 -0.0104,0.0104 -0.0309,-0.007 -0.0441,0 -0.009,0.005 -0.0128,0.0174 -0.022,0.0221 -0.007,0.003 -0.0169,-0.005 -0.0221,0 -0.005,0.005 0.005,0.0169 0,0.0221 -0.005,0.005 -0.0169,-0.005 -0.0221,0 -0.005,0.005 0.005,0.0169 0,0.022 -0.0104,0.0104 -0.0337,-0.0104 -0.0441,0 -0.005,0.005 0.005,0.0169 0,0.0221 -0.005,0.005 -0.0169,-0.005 -0.0221,0 -0.005,0.005 0.005,0.0168 0,0.022 -0.0104,0.0104 -0.0337,-0.0104 -0.0441,0 -0.005,0.005 0.005,0.0169 0,0.0221 -0.0104,0.0104 -0.0337,-0.0104 -0.0441,0 -0.005,0.005 0.003,0.0155 0,0.0221 -0.0459,0.0918 0.002,-0.0236 -0.0441,0.0221 -0.005,0.005 0.005,0.0168 0,0.022 -0.0104,0.0104 -0.0337,-0.0104 -0.0441,0 -0.005,0.005 0.005,0.0169 0,0.022 -0.0104,0.0104 -0.0337,-0.0104 -0.0441,0 -0.005,0.005 0.003,0.0155 0,0.0221 -0.0459,0.0918 0.002,-0.0236 -0.0441,0.0221 -0.005,0.005 0.005,0.0168 0,0.022 -0.0104,0.0104 -0.0337,-0.0104 -0.0441,0 -0.005,0.005 0.005,0.0169 0,0.0221 -0.0104,0.0104 -0.0337,-0.0104 -0.0441,0 -0.005,0.005 0.005,0.0169 0,0.0221 -0.0456,0.0456 0.002,-0.0697 -0.0441,0.0221 -0.003,0.007 0.005,0.0168 0,0.022 -0.0104,0.0104 -0.0337,-0.0104 -0.0441,0 -0.005,0.005 0.005,0.0169 0,0.0221 -0.0104,0.0104 -0.0337,-0.0104 -0.0441,0 -0.005,0.005 0.005,0.0169 0,0.0221 -0.0104,0.0104 -0.0337,-0.0104 -0.0441,0 -0.0104,0.0104 0.0104,0.0337 0,0.0441 -0.011,0.011 -0.0551,-0.011 -0.0661,0 -0.005,0.005 0.005,0.0169 0,0.0221 -0.0104,0.0104 -0.0337,-0.0104 -0.0441,0 -0.005,0.005 0.005,0.0169 0,0.0221 -0.0104,0.0104 -0.0337,-0.0104 -0.0441,0 -0.005,0.005 0.005,0.0169 0,0.022 -0.005,0.005 -0.0169,-0.005 -0.022,0 -0.005,0.005 0.005,0.0169 0,0.0221 -0.005,0.005 -0.0169,-0.005 -0.0221,0 -0.005,0.005 0.005,0.0168 0,0.022 -0.0104,0.0104 -0.0337,-0.0104 -0.0441,0 -0.005,0.005 0.005,0.0169 0,0.0221 -0.011,0.011 -0.0551,-0.011 -0.0661,0 -0.005,0.005 0.005,0.0169 0,0.0221 -0.005,0.005 -0.0169,-0.005 -0.022,0 -0.005,0.005 0.005,0.0169 0,0.0221 -0.0104,0.0104 -0.0337,-0.0104 -0.0441,0 -0.005,0.005 0.005,0.0168 0,0.022 -0.0104,0.0104 -0.0337,-0.0104 -0.0441,0 -0.005,0.005 0.005,0.0169 0,0.022 -0.0104,0.0104 -0.0337,-0.0104 -0.0441,0 -0.005,0.005 0.005,0.0169 0,0.0221 -0.005,0.005 -0.0169,-0.005 -0.022,0 -0.005,0.005 0.005,0.0169 0,0.0221 -0.0104,0.0104 -0.0337,-0.0104 -0.0441,0 -0.005,0.005 0.005,0.0168 0,0.022 -0.011,0.011 -0.0551,-0.011 -0.0662,0 -0.005,0.005 0.005,0.0169 0,0.0221 -0.005,0.005 -0.0169,-0.005 -0.022,0 -0.005,0.005 0.005,0.0169 0,0.0221 -0.0147,0.0147 -0.0294,-0.0147 -0.0441,0 -0.005,0.005 0.005,0.0169 0,0.0221 -0.0104,0.0104 -0.0337,-0.0104 -0.0441,0 -0.005,0.005 0.005,0.0168 0,0.022 -0.0104,0.0104 -0.0337,-0.0104 -0.0441,0 -0.005,0.005 0.005,0.0169 0,0.022 -0.011,0.011 -0.0551,-0.011 -0.0661,0 -0.005,0.005 0.005,0.0169 0,0.0221 -0.005,0.005 -0.0169,-0.005 -0.0221,0 -0.005,0.005 0.005,0.0169 0,0.0221 -0.011,0.011 -0.0551,-0.011 -0.0661,0 -0.005,0.005 0.005,0.0169 0,0.022 -0.005,0.005 -0.0169,-0.005 -0.0221,0 -0.005,0.005 0.005,0.0169 0,0.0221 -0.011,0.011 -0.0551,-0.011 -0.0661,0 -0.005,0.005 0.005,0.0169 0,0.0221 -0.005,0.005 -0.0169,-0.005 -0.0221,0 -0.005,0.005 0.005,0.0169 0,0.0221 -0.011,0.011 -0.0551,-0.011 -0.0661,0 -0.005,0.005 0.005,0.0169 0,0.022 -0.0104,0.0104 -0.031,-0.007 -0.0441,0 -0.009,0.005 -0.0128,0.0174 -0.0221,0.022 -0.007,0.003 -0.0169,-0.005 -0.0221,0 -0.005,0.005 0.005,0.0169 0,0.0221 -0.011,0.011 -0.0551,-0.011 -0.0661,0 -0.005,0.005 0.005,0.0169 0,0.0221 -0.005,0.005 -0.0169,-0.005 -0.0221,0 -0.005,0.005 0.005,0.0169 0,0.0221 -0.011,0.011 -0.0551,-0.011 -0.0661,0 -0.005,0.005 0.005,0.0168 0,0.022 -0.0104,0.0104 -0.0337,-0.0104 -0.0441,0 -0.005,0.005 0.005,0.0169 0,0.0221 -0.011,0.011 -0.0551,-0.011 -0.0661,0 -0.005,0.005 0.005,0.0169 0,0.022 -0.005,0.005 -0.0155,-0.003 -0.022,0 -0.009,0.005 -0.0128,0.0174 -0.0221,0.0221 -0.0131,0.007 -0.0337,-0.0104 -0.0441,0 -0.005,0.005 0.005,0.0168 0,0.022 -0.005,0.005 -0.0829,-0.005 -0.0882,0 -0.005,0.005 0.005,0.0169 0,0.0221 -0.0104,0.0104 -0.0337,-0.0104 -0.0441,0 -0.005,0.005 0.005,0.0169 0,0.0221 -0.0104,0.0104 -0.0337,-0.0104 -0.0441,0 -0.005,0.005 0.005,0.0169 0,0.0221 -0.0104,0.0104 -0.0337,-0.0104 -0.0441,0 -0.005,0.005 0.005,0.0168 0,0.022 -0.005,0.005 -0.0829,-0.005 -0.0882,0 -0.005,0.005 0.005,0.0169 0,0.022 -0.011,0.011 -0.0551,-0.011 -0.0662,0 -0.005,0.005 0.005,0.0169 0,0.0221 -0.005,0.005 -0.0168,-0.005 -0.022,0 -0.005,0.005 0.005,0.0169 0,0.0221 -0.005,0.005 -0.0147,0 -0.0221,0 -0.007,0 -0.0147,0 -0.0221,0 -0.007,0 -0.0147,0 -0.0221,0 -0.007,0 -0.0168,-0.005 -0.022,0 -0.005,0.005 0.005,0.0169 0,0.022 -0.011,0.011 -0.0551,-0.011 -0.0661,0 -0.005,0.005 0.005,0.0169 0,0.0221 -0.0104,0.0104 -0.0337,-0.0104 -0.0441,0 -0.005,0.005 0.005,0.0169 0,0.0221 -0.0104,0.0104 -0.0337,-0.0104 -0.0441,0 -0.005,0.005 0.005,0.0169 0,0.0221 -0.0104,0.0104 -0.0337,-0.0104 -0.0441,0 -0.005,0.005 0.005,0.0169 0,0.022 -0.011,0.011 -0.0551,-0.011 -0.0661,0 -0.005,0.005 0.005,0.0169 0,0.022 -0.005,0.005 -0.0829,-0.005 -0.0882,0 -0.005,0.005 0.005,0.0169 0,0.0221 -0.005,0.005 -0.0168,-0.005 -0.022,0 -0.005,0.005 0.005,0.0169 0,0.0221 -0.011,0.011 -0.0551,-0.011 -0.0662,0 -0.005,0.005 0.005,0.0169 0,0.0221 -0.005,0.005 -0.0829,-0.005 -0.0882,0 -0.005,0.005 0.005,0.0168 0,0.022 -0.011,0.011 -0.0551,-0.011 -0.0661,0 -0.005,0.005 0.005,0.0169 0,0.0221 -0.0104,0.0104 -0.0337,-0.0104 -0.0441,0 -0.005,0.005 0.005,0.0169 0,0.0221 -0.011,0.011 -0.0551,-0.011 -0.0661,0 -0.005,0.005 0.005,0.0169 0,0.022 -0.005,0.005 -0.0829,-0.005 -0.0882,0 -0.005,0.005 0.005,0.0169 0,0.022 -0.005,0.005 -0.0829,-0.005 -0.0882,0 -0.005,0.005 0.005,0.0169 0,0.0221 -0.0104,0.0104 -0.0337,-0.0104 -0.0441,0 -0.005,0.005 0.005,0.0169 0,0.0221 -0.011,0.011 -0.0551,-0.011 -0.0662,0 -0.005,0.005 0.005,0.0169 0,0.0221 -0.005,0.005 -0.0829,-0.005 -0.0882,0 -0.005,0.005 0.005,0.0168 0,0.022 -0.005,0.005 -0.0829,-0.005 -0.0882,0 -0.005,0.005 0.005,0.0169 0,0.0221 -0.005,0.005 -0.0829,-0.005 -0.0882,0 -0.005,0.005 0.005,0.0169 0,0.022 -0.005,0.005 -0.0151,-0.002 -0.0221,0 -0.0156,0.005 -0.0285,0.0169 -0.0441,0.0221 -0.0139,0.005 -0.0337,-0.0104 -0.0441,0 -0.005,0.005 0.005,0.0169 0,0.022 -0.005,0.005 -0.0829,-0.005 -0.0882,0 -0.005,0.005 0.005,0.0169 0,0.0221 -0.007,0.007 -0.10341,-0.007 -0.11024,0 -0.005,0.005 0.005,0.0169 0,0.0221 -0.005,0.005 -0.0169,-0.005 -0.0221,0 -0.005,0.005 0.005,0.0169 0,0.0221 -0.005,0.005 -0.0829,-0.005 -0.0882,0 -0.005,0.005 0.005,0.0169 0,0.022 -0.011,0.011 -0.0551,-0.011 -0.0662,0 -0.005,0.005 0.005,0.0169 0,0.022 -0.011,0.011 -0.0551,-0.011 -0.0661,0 -0.005,0.005 0.005,0.0169 0,0.0221 -0.005,0.005 -0.0169,-0.005 -0.0221,0 -0.005,0.005 0.005,0.0169 0,0.0221 -0.007,0.007 -0.10342,-0.007 -0.11025,0 -0.005,0.005 0.005,0.0169 0,0.0221 -0.007,0.007 -0.10341,-0.007 -0.11024,0 -0.005,0.005 0.005,0.0168 0,0.022 -0.0104,0.0104 -0.0337,-0.0104 -0.0441,0 -0.005,0.005 0.005,0.0169 0,0.0221 -0.005,0.005 -0.0829,-0.005 -0.0882,0 -0.005,0.005 0.005,0.0169 0,0.0221 -0.0104,0.0104 -0.0337,-0.0104 -0.0441,0 -0.005,0.005 0.005,0.0169 0,0.022 -0.005,0.005 -0.0148,0.001 -0.0221,0 -0.0297,-0.006 -0.0588,-0.0147 -0.0882,-0.0221 z"
       id="path7816-2"
       inkscape:connector-curvature="0" />
  </g>
</svg>
